<?xml version="1.0" encoding="UTF-8"?>
<svg version="1.1" xmlns="http://www.w3.org/2000/svg" width="632" height="575">
<path d="M0 0 C0.33 0.99 0.66 1.98 1 3 C1.63164062 2.96519531 2.26328125 2.93039062 2.9140625 2.89453125 C10.9433089 2.65157134 18.22279939 4.09259897 26 6 C26 6.66 26 7.32 26 8 C26.72703125 7.84402344 27.4540625 7.68804688 28.203125 7.52734375 C35.73595364 6.06906538 42.40291894 6.00321986 50 7 C50 8.32 50 9.64 50 11 C50.58007812 11.02578125 51.16015625 11.0515625 51.7578125 11.078125 C57.27975074 11.47905781 60.55906729 12.46743989 65 16 C65.94875 16.680625 66.8975 17.36125 67.875 18.0625 C68.57625 18.701875 69.2775 19.34125 70 20 C70 20.99 70 21.98 70 23 C71.98 23 73.96 23 76 23 C76.33 23.99 76.66 24.98 77 26 C77.886875 25.855625 78.77375 25.71125 79.6875 25.5625 C96.87315345 23.1824095 96.87315345 23.1824095 104 26 C104 26.66 104 27.32 104 28 C105.98 28 107.96 28 110 28 C110 30.31 110 32.62 110 35 C110.75023437 35.17015625 111.50046875 35.3403125 112.2734375 35.515625 C115.53268983 36.28733714 118.7658053 37.12940213 122 38 C122.91652344 38.23203125 123.83304687 38.4640625 124.77734375 38.703125 C131.50981663 40.81934144 134.08403233 44.22405913 137.4296875 50.34375 C138.86072419 53.07679798 138.86072419 53.07679798 141.1796875 54.921875 C143.75309339 57.85975469 143.40334004 59.91649901 143.25 63.75 C143.21390625 64.92046875 143.1778125 66.0909375 143.140625 67.296875 C143.07101562 68.63492188 143.07101562 68.63492188 143 70 C143.66 70 144.32 70 145 70 C145.144375 69.195625 145.28875 68.39125 145.4375 67.5625 C146 65 146 65 147 64 C154.48311131 64.13857614 159.66273534 67.24458391 166 71 C166.66 71.33 167.32 71.66 168 72 C168 72.99 168 73.98 168 75 C168.763125 75.103125 169.52625 75.20625 170.3125 75.3125 C173.23942162 76.06124739 174.31505916 76.51692929 176 79 C176.1875 81.6875 176.1875 81.6875 176 84 C176.66 84 177.32 84 178 84 C178.03738281 84.58007812 178.07476563 85.16015625 178.11328125 85.7578125 C178.54354829 90.87039734 179.4760352 94.45686336 182 99 C182.226875 100.010625 182.45375 101.02125 182.6875 102.0625 C184.40888943 105.91513348 186.6353888 106.76765326 190.22265625 108.765625 C192 110 192 110 193 112.8125 C193 113.534375 193 114.25625 193 115 C194.32 115.33 195.64 115.66 197 116 C197 116.66 197 117.32 197 118 C197.928125 118 198.85625 118 199.8125 118 C207.24920983 119.05806847 213.83219773 125.41644131 218.6875 130.8125 C221 134 221 134 221 137 C223.475 137.99 223.475 137.99 226 139 C226 141.64 226 144.28 226 147 C228.31 147.66 230.62 148.32 233 149 C233.33 150.65 233.66 152.3 234 154 C233.34 154 232.68 154 232 154 C232 154.99 232 155.98 232 157 C230.68 157.33 229.36 157.66 228 158 C228 159.32 228 160.64 228 162 C228.78375 162.268125 229.5675 162.53625 230.375 162.8125 C233 164 233 164 235 167 C235.43428132 170.63136393 235.32420574 174.28296717 235.3125 177.9375 C235.32861328 178.93974609 235.34472656 179.94199219 235.36132812 180.97460938 C235.36197266 181.94076172 235.36261719 182.90691406 235.36328125 183.90234375 C235.36775269 185.22480103 235.36775269 185.22480103 235.37231445 186.57397461 C235 189 235 189 233.48901367 190.91308594 C231.39898966 193.84234078 231.70459086 195.92453188 231.8125 199.48828125 C231.83570313 200.75220703 231.85890625 202.01613281 231.8828125 203.31835938 C231.96059397 205.96941114 232.03871592 208.62045294 232.1171875 211.27148438 C232.34294475 223.60660943 232.34294475 223.60660943 229 229 C226.8125 229.9375 226.8125 229.9375 225 230 C224.9175 231.03125 224.835 232.0625 224.75 233.125 C223.92672859 237.37856898 222.76046978 239.68743626 220 243 C217.86328125 243.6640625 217.86328125 243.6640625 216 244 C215.82984375 244.72445312 215.6596875 245.44890625 215.484375 246.1953125 C213.72639486 253.20853116 212.15942457 258.71445882 206.0625 263.125 C202.11217093 266.17752701 200.86731506 270.50524052 199.17578125 275.0625 C196.19396743 282.51208138 192.97594565 284.51202718 186 288 C185.17604805 289.53515258 184.41416868 291.10397769 183.6875 292.6875 C178.70789863 302.83543399 178.70789863 302.83543399 174.12890625 304.8046875 C172.1875 305.375 172.1875 305.375 169 306 C168.34 309.63 167.68 313.26 167 317 C166.01 317 165.02 317 164 317 C164 318.32 164 319.64 164 321 C162.35 321 160.7 321 159 321 C159.0309375 322.2065625 159.0309375 322.2065625 159.0625 323.4375 C159 326 159 326 158 327 C156.1128125 326.9071875 156.1128125 326.9071875 154.1875 326.8125 C151.23496383 326.79671104 150.27085686 326.81942876 147.75 328.5 C146.23717613 330.66117695 145.34418793 332.481484 144.3125 334.875 C142.22939615 339.33997958 139.25663694 341.20117599 135.10546875 343.6796875 C132.82468878 344.98123982 132.82468878 344.98123982 130.8125 347.375 C129 349 129 349 125.75 349.25 C124.8425 349.1675 123.935 349.085 123 349 C122.690625 350.5159375 122.690625 350.5159375 122.375 352.0625 C120.01913084 360.02758144 113.71154243 364.35052918 106.8671875 368.49609375 C100.5906086 371.78830476 93.82631015 373.15469589 86.91015625 374.47265625 C84.69554417 374.97671717 84.69554417 374.97671717 82 377 C80.47574608 377.47948042 78.93704315 377.91410985 77.390625 378.31640625 C72.05784699 379.85649243 67.55729234 382.20906404 62.75 384.9375 C54.91703767 389.21323502 47.71443615 391.96829146 39 394 C37.00826654 394.51962626 35.02118335 395.05488005 33.03417969 395.59228516 C31.18238781 396.09260832 29.32761139 396.58184771 27.47265625 397.0703125 C25.165687 397.68792631 22.87475445 398.36903911 20.60546875 399.11328125 C16.36406681 400.1563996 12.58864832 400.1874349 8.25 400.0625 C2.54979918 399.85367429 2.54979918 399.85367429 -3 401 C-4.76196912 401.20838276 -6.52439287 401.41393973 -8.28930664 401.59570312 C-14.14610366 402.20448643 -19.48989366 402.99862336 -25.0625 405 C-31.67134805 407.18156149 -38.06318714 407.71796909 -44.96020508 408.2043457 C-51.18319714 408.65021455 -57.35555892 409.2560914 -63.54296875 410.04296875 C-111.61555576 416.10102682 -111.61555576 416.10102682 -132 408 C-132 409.98 -132 411.96 -132 414 C-133.32 414 -134.64 414 -136 414 C-136.33 414.99 -136.66 415.98 -137 417 C-140.38270494 418.69135247 -144.22006273 418.34703402 -147.95703125 418.5234375 C-151.04104792 418.80893203 -151.04104792 418.80893203 -153.4921875 420.51171875 C-156.5939998 422.3525139 -158.72974879 422.36455776 -162.3125 422.4375 C-166.45514647 422.65065631 -169.39774684 422.87122424 -172.9375 425.0625 C-177.62552323 427.83541587 -182.40081745 427.23926025 -187.69921875 427.07421875 C-191.29380954 426.99339363 -194.48213222 427.32992995 -198 428 C-198 428.99 -198 429.98 -198 431 C-199.19625 430.9175 -200.3925 430.835 -201.625 430.75 C-206.14235353 430.72618267 -208.31411475 432.41203802 -212 435 C-218.27906977 436.36046512 -218.27906977 436.36046512 -221 435 C-221.625 432.4375 -221.625 432.4375 -222 430 C-222.99 430 -223.98 430 -225 430 C-224.95359375 430.68707031 -224.9071875 431.37414062 -224.859375 432.08203125 C-224.82328125 432.98308594 -224.7871875 433.88414062 -224.75 434.8125 C-224.70359375 435.70582031 -224.6571875 436.59914063 -224.609375 437.51953125 C-225 440 -225 440 -226.8125 441.78125 C-229.51379383 443.28625656 -231.9467631 443.65304126 -235 444 C-235 444.99 -235 445.98 -235 447 C-240.5825192 450.32575612 -244.49686791 451.46450943 -251 451 C-251.28875 451.598125 -251.5775 452.19625 -251.875 452.8125 C-253 455 -253 455 -255 458 C-256.0209375 457.690625 -256.0209375 457.690625 -257.0625 457.375 C-261.11054601 456.85822817 -263.26082481 457.29441132 -267 459 C-268.81689558 461.23586009 -270.28606277 463.51723077 -271.73828125 466.00390625 C-273 468 -273 468 -275 469 C-276.99960012 469.039992 -279.00047242 469.04346799 -281 469 C-281.33 470.65 -281.66 472.3 -282 474 C-285.3 474.33 -288.6 474.66 -292 475 C-292.33 475.99 -292.66 476.98 -293 478 C-294.7421875 478.80859375 -294.7421875 478.80859375 -296.875 479.4375 C-300.53847156 480.66082621 -301.7336363 481.87025965 -304 485 C-306.6875 485.25 -306.6875 485.25 -309 485 C-309 485.66 -309 486.32 -309 487 C-314.75 490 -314.75 490 -317 490 C-317.12375 490.61875 -317.2475 491.2375 -317.375 491.875 C-318 494 -318 494 -320 496 C-323.125 496.125 -323.125 496.125 -326 496 C-326 497.65 -326 499.3 -326 501 C-332.75 501.125 -332.75 501.125 -335 500 C-335.66 501.65 -336.32 503.3 -337 505 C-339.31 505.33 -341.62 505.66 -344 506 C-344.66 508.97 -345.32 511.94 -346 515 C-348.97 515 -351.94 515 -355 515 C-355.23074219 515.59167969 -355.46148437 516.18335938 -355.69921875 516.79296875 C-358.97459466 524.7289586 -363.90822003 530.62966229 -372 534 C-375.15634277 534.32728335 -376.85809266 533.92090388 -380 533 C-383.55997356 528.11066923 -381.86846559 521.59267206 -381 516 C-380.08670758 512.82541151 -379.03145544 509.7211403 -377.96875 506.59375 C-376.8185495 502.32687719 -376.42889535 498.20336382 -376.0625 493.8125 C-375.41259125 486.5142823 -373.78370549 481.32575008 -370 475 C-365.44996437 467.09590666 -363.10623086 458.92217282 -360.875 450.125 C-360.21632478 447.54121123 -359.54514816 444.96172168 -358.8671875 442.3828125 C-358.57956543 441.25246582 -358.29194336 440.12211914 -357.99560547 438.95751953 C-357.02329141 436.06918886 -356.08221742 434.21029166 -354 432 C-353.34 432 -352.68 432 -352 432 C-351.90407059 431.38090759 -351.80814117 430.76181519 -351.70930481 430.1239624 C-350.61705132 423.86197179 -348.7791254 418.74483073 -345.82421875 413.140625 C-345.41718216 412.34775085 -345.01014557 411.55487671 -344.59077454 410.73797607 C-343.73515336 409.07794108 -342.87352001 407.42099202 -342.00610352 405.76708984 C-340.68724546 403.2495141 -339.39020364 400.72157749 -338.09570312 398.19140625 C-337.25647192 396.56965799 -336.41601842 394.94854154 -335.57421875 393.328125 C-335.19069748 392.58113342 -334.80717621 391.83414185 -334.41203308 391.06451416 C-332.02431924 386.53890701 -329.37036352 382.84846988 -326 379 C-324.63800949 376.74896809 -324.63800949 376.74896809 -323.6875 374.625 C-323.130625 373.42875 -322.57375 372.2325 -322 371 C-321.01 371 -320.02 371 -319 371 C-318.88897949 370.26628174 -318.77795898 369.53256348 -318.66357422 368.77661133 C-317.55571652 364.14097276 -314.76226287 360.60016048 -312.125 356.6875 C-311.58230469 355.85154297 -311.03960937 355.01558594 -310.48046875 354.15429688 C-309.95324219 353.36474609 -309.42601562 352.57519531 -308.8828125 351.76171875 C-308.40215332 351.03944092 -307.92149414 350.31716309 -307.42626953 349.57299805 C-306.72026611 348.79436401 -306.72026611 348.79436401 -306 348 C-305.01 348 -304.02 348 -303 348 C-302.9175 346.948125 -302.835 345.89625 -302.75 344.8125 C-301.93628339 340.67610724 -300.7475324 339.09097395 -298 336 C-297.67 335.01 -297.34 334.02 -297 333 C-295.68 333 -294.36 333 -293 333 C-292.34 331.35 -291.68 329.7 -291 328 C-289.68 328 -288.36 328 -287 328 C-287 326.35 -287 324.7 -287 323 C-287.99 323 -288.98 323 -290 323 C-290.75 320.8125 -290.75 320.8125 -291 318 C-290.33484375 317.23300781 -289.6696875 316.46601563 -288.984375 315.67578125 C-286.75487619 313.19801205 -286.75487619 313.19801205 -286.90625 310.3359375 C-287.1021875 309.35882813 -287.298125 308.38171875 -287.5 307.375 C-287.71398437 306.24320312 -287.92796875 305.11140625 -288.1484375 303.9453125 C-288.42796642 302.6292822 -288.712178 301.31424147 -289 300 C-289.16661133 299.23655273 -289.33322266 298.47310547 -289.50488281 297.68652344 C-289.68116211 296.87989258 -289.85744141 296.07326172 -290.0390625 295.2421875 C-290.21759766 294.4167041 -290.39613281 293.5912207 -290.58007812 292.74072266 C-290.93451587 291.12066266 -291.29983579 289.50293223 -291.67773438 287.88818359 C-292.89000261 282.47757885 -293.16571487 277.5459242 -293 272 C-294.093125 271.9175 -295.18625 271.835 -296.3125 271.75 C-300 271 -300 271 -301.6953125 269.328125 C-303.31667752 266.43491078 -303.43456604 264.30152147 -303.5625 261 C-303.64933345 256.88304846 -303.64933345 256.88304846 -305.01171875 253.09375 C-306.51151162 249.91632321 -306.26372266 246.98555619 -306.25 243.5 C-306.25773437 241.53546875 -306.25773437 241.53546875 -306.265625 239.53125 C-306.01676203 236.22283645 -305.54770866 234.80147265 -304 232 C-303.69387787 229.71592103 -303.69387787 229.71592103 -303.625 227.3125 C-303.00352906 220.13925073 -300.44338628 214.67579052 -296 209.0625 C-290.06140118 201.45507973 -288.36128493 193.50179362 -288 184 C-287.34 184 -286.68 184 -286 184 C-285.896875 182.96875 -285.79375 181.9375 -285.6875 180.875 C-284.99466927 176.96995408 -283.78207631 174.50764777 -282 171 C-281.20826387 168.90360898 -280.4377705 166.79908603 -279.6875 164.6875 C-277.46757197 158.81672646 -274.67876543 154.04690134 -271 149 C-270.24547446 147.81537033 -269.49488805 146.62821325 -268.75 145.4375 C-267.88375 144.2309375 -267.88375 144.2309375 -267 143 C-266.34 143 -265.68 143 -265 143 C-264.773125 142.2575 -264.54625 141.515 -264.3125 140.75 C-263 138 -263 138 -260.5625 136.0625 C-257.5787635 133.66095598 -256.60707288 131.43329207 -255 128 C-253.15320657 125.56559047 -252.31681059 125.08104457 -249.3125 124.3125 C-248.549375 124.209375 -247.78625 124.10625 -247 124 C-246.67 123.01 -246.34 122.02 -246 121 C-245.01 121 -244.02 121 -243 121 C-242.87625 120.26265625 -242.7525 119.5253125 -242.625 118.765625 C-241.38078321 113.25996571 -238.90577248 108.92000541 -234.10009766 105.74462891 C-229.77814195 103.24734797 -225.32240564 101.03239692 -220.8059082 98.91040039 C-218.74386158 97.91646117 -218.74386158 97.91646117 -216 96 C-215.01 96 -214.02 96 -213 96 C-212.67 93.69 -212.34 91.38 -212 89 C-211.45472656 88.85304688 -210.90945312 88.70609375 -210.34765625 88.5546875 C-205.94470087 87.24509051 -202.37404804 85.74039145 -198.625 83.0625 C-191.81015612 78.28496085 -184.38878486 75.25433023 -176 76 C-175.92136719 75.2471875 -175.84273437 74.494375 -175.76171875 73.71875 C-174.55009606 69.39418902 -171.70101004 68.07639887 -168.0546875 65.7109375 C-158.92827371 60.59921213 -150.12776347 58.45108314 -139.77319336 58.27587891 C-134.33884086 58.17661544 -130.73442782 57.59379854 -126.6875 53.875 C-122.92094177 51.24716868 -120.52041941 51.69353089 -116 52 C-116 51.34 -116 50.68 -116 50 C-115.34 50 -114.68 50 -114 50 C-114 49.34 -114 48.68 -114 48 C-112.35 48 -110.7 48 -109 48 C-108.34 46.35 -107.68 44.7 -107 43 C-106.01 43 -105.02 43 -104 43 C-103.67 41.68 -103.34 40.36 -103 39 C-102.30132812 38.89042969 -101.60265625 38.78085937 -100.8828125 38.66796875 C-99.97273438 38.50941406 -99.06265625 38.35085937 -98.125 38.1875 C-97.22007812 38.03667969 -96.31515625 37.88585938 -95.3828125 37.73046875 C-92.65587522 37.16948699 -92.65587522 37.16948699 -91 34 C-88.27734375 32.97265625 -88.27734375 32.97265625 -84.9375 32.0625 C-77.96678674 30.02842301 -71.75691267 27.52138733 -65.39453125 24.0390625 C-64.41782471 23.50684082 -64.41782471 23.50684082 -63.42138672 22.96386719 C-62.13517434 22.25792241 -60.85386515 21.54293983 -59.57861328 20.81738281 C-56.26808041 18.98790102 -53.30695554 17.74683184 -49.59765625 16.9453125 C-48.41042969 16.63335938 -47.22320312 16.32140625 -46 16 C-45.67 15.01 -45.34 14.02 -45 13 C-39.27959989 12.1679418 -33.77759884 11.87963336 -28 12 C-27.34 10.68 -26.68 9.36 -26 8 C-24.35 8 -22.7 8 -21 8 C-20.88978516 7.07960938 -20.88978516 7.07960938 -20.77734375 6.140625 C-20 4 -20 4 -18.06640625 2.734375 C-11.85230725 0.29139068 -6.66034948 -0.51015443 0 0 Z " fill="#010101" transform="translate(382,0)"/>
<path d="M0 0 C3.48859275 2.24820422 5.47402867 4.16112146 7 8 C7.1953125 10.578125 7.1953125 10.578125 7.125 13.25 C7.10695313 14.14203125 7.08890625 15.0340625 7.0703125 15.953125 C7.04710937 16.62859375 7.02390625 17.3040625 7 18 C7.99 18 8.98 18 10 18 C10.33 22.62 10.66 27.24 11 32 C14.465 31.505 14.465 31.505 18 31 C20 34 20 34 19.625 36.6875 C19.41875 37.450625 19.2125 38.21375 19 39 C17.35 39 15.7 39 14 39 C14 40.65 14 42.3 14 44 C14.99 44.33 15.98 44.66 17 45 C19.16169611 49.56358069 19.40113296 54.26858385 19.78125 59.23046875 C20.06634994 62.84003768 20.52596905 66.41090852 21 70 C21.99 70 22.98 70 24 70 C25.30739255 73.92217766 26.10476886 76.87178054 25.75 81 C25.61655119 84.61014136 26.57604291 86.17138405 28.9375 88.875 C29.48277344 89.42929687 30.02804687 89.98359375 30.58984375 90.5546875 C32.81840442 92.83880785 32.99730754 93.86537677 33.0625 97.125 C33.041875 98.07375 33.02125 99.0225 33 100 C33.66 100 34.32 100 35 100 C35.25394531 100.83402344 35.50789062 101.66804687 35.76953125 102.52734375 C36.11371094 103.65269531 36.45789063 104.77804687 36.8125 105.9375 C37.17472656 107.12472656 37.53695312 108.31195312 37.91015625 109.53515625 C38.79419526 112.3457032 39.747033 115.10604327 40.75 117.875 C42.67968516 123.63242129 42.67769828 128.4772473 40 134 C38.35 134 36.7 134 35 134 C35 134.99 35 135.98 35 137 C28.61546499 136.63166144 28.61546499 136.63166144 25.625 133.5625 C23.52296306 130.24774944 22.83398148 128.26142572 22.5 124.38671875 C22.4175 123.46826172 22.335 122.54980469 22.25 121.60351562 C22.1675 120.64123047 22.085 119.67894531 22 118.6875 C21.83580049 116.7953572 21.66920879 114.90342017 21.5 113.01171875 C21.4278125 112.17084717 21.355625 111.32997559 21.28125 110.46362305 C20.99267627 107.93584741 20.53304264 105.48669946 20 103 C18.68 103 17.36 103 16 103 C11.69879518 80.93072289 11.69879518 80.93072289 14 70 C13.01 70 12.02 70 11 70 C11 68.35 11 66.7 11 65 C10.34 65 9.68 65 9 65 C9 64.01 9 63.02 9 62 C9.66 62 10.32 62 11 62 C11 61.01 11 60.02 11 59 C10.34 59 9.68 59 9 59 C9 58.34 9 57.68 9 57 C8.01 57 7.02 57 6 57 C5.67 54.69 5.34 52.38 5 50 C3.35 50 1.7 50 0 50 C0 51.32 0 52.64 0 54 C-0.71027344 54.20496094 -1.42054688 54.40992188 -2.15234375 54.62109375 C-3.07144531 54.89050781 -3.99054688 55.15992188 -4.9375 55.4375 C-5.85402344 55.70433594 -6.77054688 55.97117187 -7.71484375 56.24609375 C-9.9402493 56.79026051 -9.9402493 56.79026051 -11 58 C-12.66617115 58.04063832 -14.33388095 58.042721 -16 58 C-16 56.35 -16 54.7 -16 53 C-16.66 53 -17.32 53 -18 53 C-18.02578125 53.6290625 -18.0515625 54.258125 -18.078125 54.90625 C-18.44312132 60.41437622 -19.37290729 64.32265462 -22.09375 69.11328125 C-23.23730464 71.24100574 -23.23730464 71.24100574 -23.5 74.875 C-23.665 75.90625 -23.83 76.9375 -24 78 C-24.63679687 78.30550781 -25.27359375 78.61101562 -25.9296875 78.92578125 C-28.1563309 79.8211159 -28.1563309 79.8211159 -28.9765625 81.98828125 C-29.29753906 83.13876953 -29.29753906 83.13876953 -29.625 84.3125 C-29.86347656 85.12460937 -30.10195312 85.93671875 -30.34765625 86.7734375 C-30.56292969 87.50820313 -30.77820313 88.24296875 -31 89 C-31.350625 89.804375 -31.70125 90.60875 -32.0625 91.4375 C-33.31065278 94.84911759 -33.84468267 98.31254896 -34.4375 101.890625 C-34.623125 102.58671875 -34.80875 103.2828125 -35 104 C-35.99 104.495 -35.99 104.495 -37 105 C-37.39308347 106.95878868 -37.39308347 106.95878868 -37.5 109.25 C-37.81479551 112.83866883 -38.41372871 115.72170599 -40 119 C-42.64 119 -45.28 119 -48 119 C-49.08360869 112.93179132 -48.79074734 108.89893243 -47 103 C-53.94485303 102.51547537 -60.2990368 104.30712509 -67 106 C-67.33 107.32 -67.66 108.64 -68 110 C-73.75 110.125 -73.75 110.125 -76 109 C-76 109.66 -76 110.32 -76 111 C-82.52595383 110.6049005 -89.07940612 109.98581674 -95 107 C-96.9194358 104.1208463 -97.2835487 103.26127782 -97.59765625 100.0234375 C-97.67693359 99.270625 -97.75621094 98.5178125 -97.83789062 97.7421875 C-97.91201172 96.96101562 -97.98613281 96.17984375 -98.0625 95.375 C-98.12380983 90.27804041 -98.12380983 90.27804041 -100 86 C-101.58985844 88.52932024 -102.92574137 90.7600875 -103.8125 93.625 C-105 96 -105 96 -107.8125 97.25 C-111.8640855 99.47439988 -112.75495556 101.83020094 -114.77734375 105.85546875 C-116.36221047 108.63531485 -118.4463081 110.11833229 -121 112 C-121.45375 112.86625 -121.9075 113.7325 -122.375 114.625 C-124 117 -124 117 -127.3125 117.8125 C-131.93801901 119.30207392 -133.06442634 121.30607378 -135.54296875 125.3203125 C-136.02378906 125.87460937 -136.50460938 126.42890625 -137 127 C-138.32 127 -139.64 127 -141 127 C-141.2475 127.763125 -141.495 128.52625 -141.75 129.3125 C-143.17560018 132.37754038 -144.00320024 133.46110282 -147 135 C-150.75 135.1875 -150.75 135.1875 -154 135 C-154.20625 135.639375 -154.4125 136.27875 -154.625 136.9375 C-155.07875 137.618125 -155.5325 138.29875 -156 139 C-157.485 139.2165625 -157.485 139.2165625 -159 139.4375 C-159.99 139.623125 -160.98 139.80875 -162 140 C-162.23847656 140.76828125 -162.47695312 141.5365625 -162.72265625 142.328125 C-164.57576242 146.20434708 -167.60680422 146.946711 -171.4375 148.3125 C-172.11876953 148.57611328 -172.80003906 148.83972656 -173.50195312 149.11132812 C-176.46134007 150.22725758 -178.81453434 151 -182 151 C-182 150.01 -182 149.02 -182 148 C-183.32 148 -184.64 148 -186 148 C-186.67495956 144.32522017 -187.10611338 141.4919802 -186.3125 137.8125 C-185.98506206 133.81775711 -186.53028794 132.01407298 -187.875 128.3125 C-191.21882398 119.07662755 -191.19369323 109.72770454 -191 100 C-191.66 100 -192.32 100 -193 100 C-193 98.68 -193 97.36 -193 96 C-193.66 96 -194.32 96 -195 96 C-195.495 93.525 -195.495 93.525 -196 91 C-195.34 91 -194.68 91 -194 91 C-194 90.34 -194 89.68 -194 89 C-195.134375 89.020625 -196.26875 89.04125 -197.4375 89.0625 C-201 89 -201 89 -202 88 C-202.125 85.5 -202.125 85.5 -202 83 C-201 82 -201 82 -197.9375 81.9375 C-196.968125 81.958125 -195.99875 81.97875 -195 82 C-195 80.02 -195 78.04 -195 76 C-192.525 75.505 -192.525 75.505 -190 75 C-189.92136719 74.38640625 -189.84273437 73.7728125 -189.76171875 73.140625 C-189 71 -189 71 -187.14453125 69.734375 C-182.59997161 67.81606842 -179.03829065 66.48325224 -174 67 C-173.67 66.34 -173.34 65.68 -173 65 C-171.06640625 64.65625 -171.06640625 64.65625 -168.5625 64.5 C-162.71881706 64.01718859 -156.6656591 63.4449511 -151.16918945 61.27832031 C-144.24458836 58.61139699 -137.67612441 58.48398342 -130.3125 58.5 C-129.11560547 58.47164063 -127.91871094 58.44328125 -126.68554688 58.4140625 C-116.9491414 58.39238992 -116.9491414 58.39238992 -113.3984375 61.40625 C-112.60695313 62.2621875 -111.81546875 63.118125 -111 64 C-109.07131892 65.17542403 -109.07131892 65.17542403 -107.3125 66 C-103.80021106 68.12062729 -102.49363068 69.22199298 -101 73 C-100.8125 76.8125 -100.8125 76.8125 -101 80 C-100.67 79.67 -100.34 79.34 -100 79 C-100.03925552 76.54502006 -100.14647259 74.13473282 -100.3125 71.6875 C-100.35665039 70.9648999 -100.40080078 70.2422998 -100.44628906 69.49780273 C-100.74804807 65.09455473 -101.34968608 60.89071721 -102.25 56.5625 C-103.2165472 51.27534258 -102.96843228 46.62909369 -100 42 C-98.68252676 41.30251417 -97.34870513 40.63499346 -96 40 C-95.34 39.01 -94.68 38.02 -94 37 C-91.35546875 36.26953125 -91.35546875 36.26953125 -88.1875 35.8125 C-87.14980469 35.65394531 -86.11210937 35.49539063 -85.04296875 35.33203125 C-82.32772687 35.03575967 -79.72756902 34.93445768 -77 35 C-77 34.01 -77 33.02 -77 32 C-74.29120665 30.64560332 -71.99066732 30.93498549 -69 31 C-69 30.34 -69 29.68 -69 29 C-68.18015625 28.95101563 -67.3603125 28.90203125 -66.515625 28.8515625 C-65.43796875 28.77679688 -64.3603125 28.70203125 -63.25 28.625 C-62.18265625 28.55539062 -61.1153125 28.48578125 -60.015625 28.4140625 C-57.15734371 28.02160419 -55.50942115 27.30902705 -53 26 C-50.02475039 26.29752496 -47.67758805 26.66120597 -45 28 C-45 29.32 -45 30.64 -45 32 C-45.66 32 -46.32 32 -47 32 C-47.061875 32.7425 -47.12375 33.485 -47.1875 34.25 C-48.46375555 38.56963418 -51.1897864 39.96100166 -54.98046875 42.13671875 C-64.0233843 46.69818942 -72.44949091 45.27586599 -82 43 C-82 43.66 -82 44.32 -82 45 C-85.3 45.66 -88.6 46.32 -92 47 C-91.38125 48.27875 -90.7625 49.5575 -90.125 50.875 C-89.77695313 51.59429687 -89.42890625 52.31359375 -89.0703125 53.0546875 C-88.03442457 55.15135019 -88.03442457 55.15135019 -86 57 C-86 58.32 -86 59.64 -86 61 C-85.34 61 -84.68 61 -84 61 C-84 59.68 -84 58.36 -84 57 C-82.865625 56.525625 -81.73125 56.05125 -80.5625 55.5625 C-77.24259834 54.36377917 -77.24259834 54.36377917 -76 53 C-74.08548183 52.90016316 -72.16711381 52.87032411 -70.25 52.875 C-69.20328125 52.87242187 -68.1565625 52.86984375 -67.078125 52.8671875 C-64.26776878 52.98844652 -61.73360391 53.36215909 -59 54 C-59 54.99 -59 55.98 -59 57 C-58.34 57 -57.68 57 -57 57 C-57.26117847 60.74355802 -57.78784911 62.71713215 -60.0625 65.75 C-67.56055546 71.49319141 -77.02680006 70.21030937 -86 70 C-85.83886719 70.57621094 -85.67773438 71.15242188 -85.51171875 71.74609375 C-84.71270927 75.26539507 -84.82795517 78.38705863 -85 82 C-85.66 82.99 -86.32 83.98 -87 85 C-86.01 85 -85.02 85 -84 85 C-83.505 86.134375 -83.01 87.26875 -82.5 88.4375 C-81.18386966 90.79893241 -80.59365383 91.80749478 -77.98828125 92.65234375 C-75.99921426 92.8558928 -73.99838103 92.93447931 -72 93 C-71.67 93.33 -71.34 93.66 -71 94 C-64.01092152 94.81673139 -59.80495655 93.83127132 -54 90 C-50.4036112 88.6513542 -46.80827321 88.92676398 -43 89 C-42.67 87.02 -42.34 85.04 -42 83 C-41.01 82.67 -40.02 82.34 -39 82 C-38.814375 80.14375 -38.814375 80.14375 -38.625 78.25 C-38.23131338 75.03301794 -37.4456104 72.89122081 -36 70 C-35.73747269 67.99979195 -35.56332389 66.01360748 -35.44140625 64 C-35 62 -35 62 -33.59375 60.1328125 C-31.61855018 57.48953039 -30.87736929 55.03326523 -29.9375 51.875 C-29.42123047 50.14056641 -29.42123047 50.14056641 -28.89453125 48.37109375 C-28.14608197 45.55051853 -27.58651492 42.81381018 -27.125 39.9375 C-26.18639161 34.73710215 -23.90184289 30.47384585 -21.4609375 25.82421875 C-18.46669355 20.03588086 -16.67495887 14.47960514 -16 8 C-15.01 7.67 -14.02 7.34 -13 7 C-13 5.35 -13 3.7 -13 2 C-8.24125693 -0.9016726 -5.40738332 -1.47474091 0 0 Z M-8 25 C-8 25.66 -8 26.32 -8 27 C-8.66 27 -9.32 27 -10 27 C-14.10793508 33.35005232 -16.47643976 39.39591073 -17 47 C-16.67 47.99 -16.34 48.98 -16 50 C-11.82152545 49.52517335 -9.07322948 48.95940617 -6 46 C-5.67 45.01 -5.34 44.02 -5 43 C-1.9375 41.3125 -1.9375 41.3125 1 40 C1 38.35 1 36.7 1 35 C1.66 35 2.32 35 3 35 C3 34.01 3 33.02 3 32 C2.34 32 1.68 32 1 32 C1 29.36 1 26.72 1 24 C-3.65052872 23.73067479 -3.65052872 23.73067479 -8 25 Z M-166 76 C-166.68739258 76.25765137 -167.37478516 76.51530273 -168.08300781 76.78076172 C-176.93794362 79.64244243 -176.93794362 79.64244243 -184.52514648 84.53320312 C-186.67766271 86.67396086 -189.13069807 87.17109055 -192 88 C-191.73323796 89.98491642 -191.73323796 89.98491642 -191 92 C-190.01 92.33 -189.02 92.66 -188 93 C-186.28125 95.8359375 -186.28125 95.8359375 -184.5 99.375 C-182.39576408 103.79579223 -182.39576408 103.79579223 -179.3828125 107.56640625 C-174.38907125 112.74353348 -174.44178519 124.11424468 -174 131 C-172.8944811 130.06409496 -171.79064547 129.12620142 -170.6875 128.1875 C-169.76517578 127.40439453 -169.76517578 127.40439453 -168.82421875 126.60546875 C-166.98983234 125.03692097 -166.98983234 125.03692097 -165.39453125 123.32421875 C-164 122 -164 122 -162 121.625 C-159.73724844 121.17076418 -159.73724844 121.17076418 -158.6875 118.625 C-156.42579299 115.1067891 -153.77467392 114.60773148 -150 113 C-148.95710245 110.93109581 -148.95710245 110.93109581 -149 109 C-147.02 109 -145.04 109 -143 109 C-143 108.01 -143 107.02 -143 106 C-142.401875 105.896875 -141.80375 105.79375 -141.1875 105.6875 C-138.68741714 104.90175967 -137.62464918 104.03081147 -136 102 C-136 101.34 -136 100.68 -136 100 C-135.01 100 -134.02 100 -133 100 C-132.505 98.515 -132.505 98.515 -132 97 C-130.66666667 96.66666667 -129.33333333 96.33333333 -128 96 C-127.505 94.515 -127.505 94.515 -127 93 C-126.195625 92.443125 -125.39125 91.88625 -124.5625 91.3125 C-121.02282952 88.11816323 -120.84863851 85.62893731 -120 81 C-120.99 80.505 -120.99 80.505 -122 80 C-122.061875 79.38125 -122.12375 78.7625 -122.1875 78.125 C-122.86395622 75.68241819 -122.86395622 75.68241819 -125.8203125 74.390625 C-130.96954827 72.32465034 -136.21552559 72.55075052 -141.6875 72.625 C-142.76459229 72.63587646 -143.84168457 72.64675293 -144.95141602 72.65795898 C-152.36330538 72.8068598 -159.02437882 73.34482324 -166 76 Z " fill="#0F0F0F" transform="translate(264,424)"/>
<path d="M0 0 C4.06004931 0.93381134 8.024302 2.07507407 11.99609375 3.328125 C14.6509167 3.81033835 17.02605918 3.53292223 19.703125 3.24609375 C21.18039062 3.09333984 21.18039062 3.09333984 22.6875 2.9375 C23.80898438 2.81181641 23.80898438 2.81181641 24.953125 2.68359375 C25.283125 3.67359375 25.613125 4.66359375 25.953125 5.68359375 C26.89414062 5.6371875 27.83515625 5.59078125 28.8046875 5.54296875 C40.96092531 5.19061403 40.96092531 5.19061403 45.953125 9.68359375 C49.05238195 12.00803647 51.11694973 13.5442312 54.953125 14.18359375 C58.87268637 13.53033352 60.95017806 12.27704793 63.953125 9.68359375 C65.38091774 6.57424357 65.38091774 6.57424357 65.953125 3.68359375 C68.263125 3.68359375 70.573125 3.68359375 72.953125 3.68359375 C72.293125 5.33359375 71.633125 6.98359375 70.953125 8.68359375 C70.293125 8.68359375 69.633125 8.68359375 68.953125 8.68359375 C69.04013672 9.48796875 69.04013672 9.48796875 69.12890625 10.30859375 C69.63727638 19.13970907 67.78552464 30.16971579 61.91015625 37.08984375 C59.765625 38.87109375 59.765625 38.87109375 57.6640625 40.3671875 C55.69336882 41.64760593 55.69336882 41.64760593 54.890625 44.43359375 C53.953125 46.68359375 53.953125 46.68359375 50.515625 48.24609375 C49.34 48.72046875 48.164375 49.19484375 46.953125 49.68359375 C45.93511924 51.00323084 44.93064135 52.33369021 43.953125 53.68359375 C42.633125 53.68359375 41.313125 53.68359375 39.953125 53.68359375 C39.685 54.36421875 39.416875 55.04484375 39.140625 55.74609375 C38.74875 56.71546875 38.356875 57.68484375 37.953125 58.68359375 C37.52 59.90046875 37.086875 61.11734375 36.640625 62.37109375 C34.953125 65.68359375 34.953125 65.68359375 32.640625 67.12109375 C29.953125 67.68359375 29.953125 67.68359375 26.890625 67.62109375 C23.94082926 67.37861126 23.94082926 67.37861126 22.16015625 69.17578125 C19.21478036 71.18802036 17.2310254 70.98613398 13.703125 70.87109375 C12.08664062 70.83048828 12.08664062 70.83048828 10.4375 70.7890625 C9.61765625 70.75425781 8.7978125 70.71945312 7.953125 70.68359375 C7.82808594 71.48667969 7.70304687 72.28976562 7.57421875 73.1171875 C7.36925781 73.96410156 7.16429687 74.81101562 6.953125 75.68359375 C5.015625 76.74609375 5.015625 76.74609375 2.953125 77.68359375 C1.68507934 79.71718855 1.68507934 79.71718855 0.953125 81.68359375 C-0.696875 81.68359375 -2.346875 81.68359375 -4.046875 81.68359375 C-4.376875 81.02359375 -4.706875 80.36359375 -5.046875 79.68359375 C-10.47784288 77.57770825 -14.35614172 77.37752382 -20.046875 78.68359375 C-20.665625 79.3590625 -21.284375 80.03453125 -21.921875 80.73046875 C-24.046875 82.68359375 -24.046875 82.68359375 -26.81640625 83.00390625 C-27.82058594 82.93945312 -28.82476562 82.875 -29.859375 82.80859375 C-34.71539297 82.64358343 -38.42010652 83.05061664 -43.046875 84.68359375 C-48.66556052 86.6245942 -52.31487394 87.02106066 -58.046875 85.68359375 C-60.046875 83.74609375 -60.046875 83.74609375 -61.046875 81.68359375 C-61.046875 81.02359375 -61.046875 80.36359375 -61.046875 79.68359375 C-63.521875 80.17859375 -63.521875 80.17859375 -66.046875 80.68359375 C-66.046875 80.02359375 -66.046875 79.36359375 -66.046875 78.68359375 C-66.67335938 78.70679688 -67.29984375 78.73 -67.9453125 78.75390625 C-68.76257813 78.77195312 -69.57984375 78.79 -70.421875 78.80859375 C-71.23398437 78.83179688 -72.04609375 78.855 -72.8828125 78.87890625 C-75.046875 78.68359375 -75.046875 78.68359375 -77.046875 76.68359375 C-78.54886386 76.16684144 -80.07437183 75.71696705 -81.609375 75.30859375 C-90.720485 72.66047257 -97.19076705 69.33420528 -104.046875 62.68359375 C-102.8278387 60.13662462 -101.59717947 57.59642625 -100.359375 55.05859375 C-100.01970703 54.34574219 -99.68003906 53.63289063 -99.33007812 52.8984375 C-97.05071052 48.25449229 -94.66870129 44.40393372 -91.046875 40.68359375 C-88.71530008 40.33817524 -86.38179139 40.00565118 -84.046875 39.68359375 C-82.40647725 38.52209323 -82.40647725 38.52209323 -80.859375 36.99609375 C-75.63793301 32.0720004 -68.81551156 28.93980594 -62.046875 26.68359375 C-61.86125 24.88921875 -61.86125 24.88921875 -61.671875 23.05859375 C-61.22362446 19.40762562 -60.34240663 16.13834476 -59.046875 12.68359375 C-54.171875 13.55859375 -54.171875 13.55859375 -53.046875 14.68359375 C-51.3453125 14.90015625 -51.3453125 14.90015625 -49.609375 15.12109375 C-46.046875 15.68359375 -46.046875 15.68359375 -44.046875 17.68359375 C-43.86743164 20.59765625 -43.86743164 20.59765625 -43.95703125 24.30859375 C-43.9774865 25.66926676 -43.99765924 27.02994404 -44.01757812 28.390625 C-44.0607026 30.52540848 -44.10876966 32.65991142 -44.16333008 34.79443359 C-44.36280224 43.19977786 -44.25171734 50.75463473 -41.046875 58.68359375 C-40.50353516 60.05451172 -40.50353516 60.05451172 -39.94921875 61.453125 C-39.63082031 62.12730469 -39.31242187 62.80148437 -38.984375 63.49609375 C-37.87824601 65.86756727 -36.87612905 68.15565609 -35.984375 70.62109375 C-35.11238856 73.02120379 -35.11238856 73.02120379 -32.046875 74.68359375 C-32.046875 75.67359375 -32.046875 76.66359375 -32.046875 77.68359375 C-31.28375 77.82796875 -30.520625 77.97234375 -29.734375 78.12109375 C-27.046875 78.68359375 -27.046875 78.68359375 -24.046875 79.68359375 C-24.046875 78.36359375 -24.046875 77.04359375 -24.046875 75.68359375 C-21.671875 74.12109375 -21.671875 74.12109375 -19.046875 72.68359375 C-18.056875 71.19859375 -18.056875 71.19859375 -17.046875 69.68359375 C-16.056875 69.68359375 -15.066875 69.68359375 -14.046875 69.68359375 C-13.77875 68.96171875 -13.510625 68.23984375 -13.234375 67.49609375 C-12.046875 64.68359375 -12.046875 64.68359375 -10.484375 62.12109375 C-9.17185905 59.89552322 -8.41022152 58.2270194 -8.046875 55.68359375 C-8.376875 55.35359375 -8.706875 55.02359375 -9.046875 54.68359375 C-9.08547686 53.1267147 -9.05846909 51.56812017 -9.00390625 50.01171875 C-8.6594967 36.20663606 -8.47252325 24.21461852 -17.046875 12.68359375 C-17.4234925 11.36183426 -17.76531753 10.02881279 -18.046875 8.68359375 C-17.05107422 8.33748047 -17.05107422 8.33748047 -16.03515625 7.984375 C-10.16473502 5.93613791 -10.16473502 5.93613791 -5.734375 1.74609375 C-3.046875 -0.31640625 -3.046875 -0.31640625 0 0 Z " fill="#FBFBFB" transform="translate(357.046875,220.31640625)"/>
<path d="M0 0 C6.63602781 0.55300232 12.32159126 2.03850741 16.921875 7.125 C18.09862828 8.6537735 19.24724917 10.20483862 20.359375 11.78125 C21.96779989 14.09047786 21.96779989 14.09047786 24.203125 16.09375 C26 18 26 18 26 21 C27.98 21 29.96 21 32 21 C32.226875 20.319375 32.45375 19.63875 32.6875 18.9375 C34.30210338 15.32386386 36.22513188 11.85720842 39 9 C39.99 9 40.98 9 42 9 C42 9.66 42 10.32 42 11 C43.32 11 44.64 11 46 11 C46 12.32 46 13.64 46 15 C46.99 15 47.98 15 49 15 C51.01469702 32.61498615 51.01469702 32.61498615 45.9375 40 C41.95708188 42.71007191 38.72014508 42.87001322 34 43 C32.1746875 43.1546875 32.1746875 43.1546875 30.3125 43.3125 C26.18851545 42.92344485 24.21345535 41.55615766 21 39 C20.38125 38.525625 19.7625 38.05125 19.125 37.5625 C17.54068985 35.36206924 17.78605805 33.63861736 18 31 C17.21625 30.814375 16.4325 30.62875 15.625 30.4375 C13 29 13 29 11.6875 25.375 C11.460625 24.26125 11.23375 23.1475 11 22 C8.64742521 22.94102992 7.27289577 23.57781979 5.87890625 25.734375 C4.82133335 28.46056292 4.76840677 30.58183012 4.8125 33.5 C4.81894531 34.4384375 4.82539063 35.376875 4.83203125 36.34375 C4.98240872 38.72181227 5.38298069 40.71228223 6 43 C6.42795058 47.96422669 6.12213579 51.0878313 4.0625 55.625 C1.37927991 61.85045668 0.44794125 68.23728037 1 75 C3.333492 77.83411155 3.333492 77.83411155 6 80 C6.93683567 83.19591409 7.02816511 85.82360163 6 89 C3.24950457 91.68840749 -0.0579474 94 -4 94 C-3.9175 94.9075 -3.835 95.815 -3.75 96.75 C-4 100 -4 100 -5.6875 102.3125 C-10.12714661 105.55224212 -14.65423867 105.10481885 -20 105 C-20.495 106.485 -20.495 106.485 -21 108 C-22.65 108 -24.3 108 -26 108 C-26.10441406 108.7425 -26.20882812 109.485 -26.31640625 110.25 C-27.67525612 115.71645889 -31.77563506 119.6543111 -36.51171875 122.51953125 C-38.23456396 123.37194047 -39.97449668 124.19076164 -41.73046875 124.97265625 C-44.11832338 125.96408715 -44.11832338 125.96408715 -46.4375 127.75 C-51.22610238 130.0859036 -56.99189631 130.69458877 -62.19921875 129.4921875 C-65.56336055 128.15217295 -66.96913179 127.04630231 -69 124 C-69.33333333 117.66666667 -69.33333333 117.66666667 -68 115 C-67.76827173 112.45384991 -67.58105471 109.92603775 -67.4375 107.375 C-67.39431641 106.66859375 -67.35113281 105.9621875 -67.30664062 105.234375 C-67.20055249 103.48981463 -67.09977111 101.74493303 -67 100 C-67.66 100 -68.32 100 -69 100 C-70.85592953 93.04026425 -70.1673334 86.00400041 -69 79 C-69.32293223 77.66410941 -69.65739557 76.33098125 -70 75 C-70.54669488 69.21765033 -70.15655834 65.05049335 -67 60 C-66 59 -66 59 -63.625 58.625 C-61 59 -61 59 -59.1875 61.25 C-58 64 -58 64 -58 68 C-55.69 68 -53.38 68 -51 68 C-50.87625 67.236875 -50.7525 66.47375 -50.625 65.6875 C-50 63 -50 63 -48 60 C-44.375 59.3125 -44.375 59.3125 -41 59 C-40.67 58.01 -40.34 57.02 -40 56 C-38.02 56 -36.04 56 -34 56 C-34 55.34 -34 54.68 -34 54 C-32.35 54 -30.7 54 -29 54 C-29 53.01 -29 52.02 -29 51 C-25.05272412 50.82057837 -22.4019487 50.90649311 -19 53 C-19 54.65 -19 56.3 -19 58 C-25.75 62 -25.75 62 -28 62 C-28 62.99 -28 63.98 -28 65 C-30.31 65 -32.62 65 -35 65 C-35.144375 65.78375 -35.28875 66.5675 -35.4375 67.375 C-36 70 -36 70 -37 72 C-38.98 72 -40.96 72 -43 72 C-43.495 73.485 -43.495 73.485 -44 75 C-45.9609375 75.88671875 -45.9609375 75.88671875 -48.375 76.6875 C-51.19120549 77.82920493 -52.64565499 78.42844041 -54.26171875 81.03515625 C-55.18634549 83.47504563 -55.18634549 83.47504563 -56 87 C-56.99 87 -57.98 87 -59 87 C-59.29162695 92.44370304 -58.77488783 96.03987862 -56.66796875 101.03515625 C-55.62469237 104.10397507 -55.79912738 106.78603816 -56 110 C-54.68 110 -53.36 110 -52 110 C-51.505 108.515 -51.505 108.515 -51 107 C-46.24983365 104.7987034 -42.11918146 104.8234765 -37 105 C-36.731875 104.21625 -36.46375 103.4325 -36.1875 102.625 C-35 100 -35 100 -32 98 C-31.01 98 -30.02 98 -29 98 C-28.7525 96.948125 -28.505 95.89625 -28.25 94.8125 C-27.03714489 91.9063351 -26.15767966 91.08520722 -23.33984375 89.5625 C-21.22257714 88.72293951 -19.09589338 87.9067818 -16.9609375 87.11328125 C-13.40138482 85.77492701 -10.87267529 84.48447592 -8 82 C-6.76999802 79.52429495 -6.76999802 79.52429495 -7 77 C-7.48339844 76.5978125 -7.96679688 76.195625 -8.46484375 75.78125 C-10.79933947 73.07252214 -10.48496339 70.57447072 -10.625 67.0625 C-10.79475593 63.21874072 -10.96263402 59.70487851 -12 56 C-12.4662937 50.05475529 -11.08434068 45.4713943 -9 40 C-8.34 40 -7.68 40 -7 40 C-7.2165625 38.97519531 -7.433125 37.95039063 -7.65625 36.89453125 C-7.93775834 35.53390759 -8.21899395 34.17322749 -8.5 32.8125 C-8.64308594 32.13896484 -8.78617187 31.46542969 -8.93359375 30.77148438 C-9.68069842 27.12490207 -10.17352282 23.72351043 -10 20 C-10.76183594 20.433125 -10.76183594 20.433125 -11.5390625 20.875 C-15.87808125 23.21514494 -18.93935183 24.50606482 -24 24 C-24 24.99 -24 25.98 -24 27 C-26.97 27.495 -26.97 27.495 -30 28 C-30.14695312 28.60328125 -30.29390625 29.2065625 -30.4453125 29.828125 C-31.640303 34.08613711 -32.39831213 36.47853718 -35.8125 39.4375 C-40.90605782 41.93434207 -44.85012724 43.00401293 -50.5 43.1875 C-53.66480566 43.41571048 -55.43764761 43.56904876 -57.97265625 45.51171875 C-59.47977732 47.27804984 -60.76801599 49.03397674 -62 51 C-62.66 51.99 -63.32 52.98 -64 54 C-66.3125 54.3984375 -66.3125 54.3984375 -69 54.375 C-69.886875 54.38273437 -70.77375 54.39046875 -71.6875 54.3984375 C-72.450625 54.26695312 -73.21375 54.13546875 -74 54 C-76 51 -76 51 -75.84375 49.01171875 C-74.19353112 45.07716912 -70.65826923 42.96936827 -67 41 C-63.9830961 40.27836404 -61.0975772 40.01434064 -58 40 C-57.9071875 38.700625 -57.9071875 38.700625 -57.8125 37.375 C-56.75705304 32.9908357 -55.13182806 31.20821412 -52 28 C-51.34 28 -50.68 28 -50 28 C-50 27.01 -50 26.02 -50 25 C-48.35 24.67 -46.7 24.34 -45 24 C-45 23.01 -45 22.02 -45 21 C-44.01 21 -43.02 21 -42 21 C-41.86078125 19.87271484 -41.86078125 19.87271484 -41.71875 18.72265625 C-40.48023224 14.03109713 -36.85895744 11.70385145 -33 9 C-30.65894579 7.8294729 -28.33711975 6.82834388 -25.8828125 5.921875 C-23.65410638 5.02646279 -23.65410638 5.02646279 -22 2 C-19.35546875 1.671875 -19.35546875 1.671875 -16.1875 1.75 C-15.14980469 1.76546875 -14.11210937 1.7809375 -13.04296875 1.796875 C-10.26674386 1.98219425 -7.71514788 2.42083023 -5 3 C-3.3337447 3.0370279 -1.66598681 3.04759962 0 3 C0 2.01 0 1.02 0 0 Z " fill="#0E0E0E" transform="translate(499,374)"/>
<path d="M0 0 C1.22912109 -0.01998047 2.45824219 -0.03996094 3.72460938 -0.06054688 C12.7866005 -0.05571381 19.73675104 1.3870007 27.3125 6.4375 C27.3125 7.0975 27.3125 7.7575 27.3125 8.4375 C28.19035156 8.58251953 28.19035156 8.58251953 29.0859375 8.73046875 C33.4535995 10.117393 35.96734638 13.64508532 38.3125 17.4375 C40.44732886 24.31742883 40.42948874 31.30118715 40.3125 38.4375 C40.6425 38.7675 40.9725 39.0975 41.3125 39.4375 C40.92694584 45.02803538 40.14074652 49.5612129 37.3125 54.4375 C35.3125 55.10416667 33.3125 55.77083333 31.3125 56.4375 C29.52148257 59.69911194 29.52148257 59.69911194 28.3125 63.4375 C27.32712479 65.4447458 26.33186943 67.44730253 25.3125 69.4375 C24.3225 69.4375 23.3325 69.4375 22.3125 69.4375 C22.18875 70.05625 22.065 70.675 21.9375 71.3125 C21.3125 73.4375 21.3125 73.4375 19.3125 75.4375 C17.9925 75.4375 16.6725 75.4375 15.3125 75.4375 C15.3125 76.4275 15.3125 77.4175 15.3125 78.4375 C13.3325 78.4375 11.3525 78.4375 9.3125 78.4375 C8.8175 80.4175 8.8175 80.4175 8.3125 82.4375 C6.6625 82.4375 5.0125 82.4375 3.3125 82.4375 C3.1578125 84.108125 3.1578125 84.108125 3 85.8125 C2.773125 87.00875 2.54625 88.205 2.3125 89.4375 C-0.6875 91.4375 -0.6875 91.4375 -3.125 91.375 C-6.5731982 90.11346407 -7.78196105 88.54282273 -9.6875 85.4375 C-9.9375 82.625 -9.9375 82.625 -9.6875 80.4375 C-11.0075 80.1075 -12.3275 79.7775 -13.6875 79.4375 C-13.6875 77.1275 -13.6875 74.8175 -13.6875 72.4375 C-15.1725 71.9425 -15.1725 71.9425 -16.6875 71.4375 C-17.75 68.63671875 -17.75 68.63671875 -18.6875 65.125 C-19.85071501 60.79687082 -21.02599513 57.98367409 -23.6875 54.4375 C-24.06210816 51.70036305 -23.82648721 49.21724416 -23.6875 46.4375 C-22.2025 45.9425 -22.2025 45.9425 -20.6875 45.4375 C-22.3875394 39.09550906 -24.15495949 32.79157668 -26.13671875 26.53125 C-26.6875 24.4375 -26.6875 24.4375 -26.6875 21.4375 C-28.0075 21.4375 -29.3275 21.4375 -30.6875 21.4375 C-32.8125 14.6875 -32.8125 14.6875 -31.6875 12.4375 C-30.6975 12.4375 -29.7075 12.4375 -28.6875 12.4375 C-28.501875 11.2928125 -28.501875 11.2928125 -28.3125 10.125 C-27.6875 7.4375 -27.6875 7.4375 -25.6875 4.4375 C-23.3568782 4.08570803 -21.02314933 3.75419821 -18.6875 3.4375 C-17.91559326 2.94113037 -17.14368652 2.44476074 -16.34838867 1.93334961 C-11.36050724 -0.87064613 -5.5926382 -0.03175995 0 0 Z M-7.6875 11.4375 C-12.02212652 11.52929209 -16.35252474 11.49616884 -20.6875 11.4375 C-20.543125 12.4275 -20.39875 13.4175 -20.25 14.4375 C-19.67824821 18.43159465 -19.17930166 22.43282937 -18.6875 26.4375 C-17.6975 26.7675 -16.7075 27.0975 -15.6875 27.4375 C-14.09784429 29.65451147 -12.96422514 32.01612473 -11.6875 34.4375 C-10.3675 34.4375 -9.0475 34.4375 -7.6875 34.4375 C-7.65011719 35.04335938 -7.61273438 35.64921875 -7.57421875 36.2734375 C-7.14592863 41.7320371 -6.14201859 46.51302589 -4.44921875 51.70703125 C-3.25419794 55.99072123 -2.70889725 60.34850996 -2.1171875 64.75 C-1.83152071 67.39978694 -1.83152071 67.39978694 -0.6875 69.4375 C2.48729088 68.09509371 3.99699238 66.89759591 5.75 63.9375 C6.17152344 63.23238281 6.59304688 62.52726562 7.02734375 61.80078125 C8.39548976 59.28488965 9.60075462 56.71942662 10.8125 54.125 C12.78460007 50.05715723 14.30655775 48.59454583 18.3125 46.4375 C22.50767839 40.80397474 24.33118014 34.47991149 24.3125 27.4375 C22.51150243 22.068812 19.34703864 18.95476932 14.3125 16.4375 C13.8175 15.4475 13.8175 15.4475 13.3125 14.4375 C12.3225 14.1075 11.3325 13.7775 10.3125 13.4375 C9.9825 12.7775 9.6525 12.1175 9.3125 11.4375 C3.5125304 10.15972892 -1.86702686 10.54963122 -7.6875 11.4375 Z " fill="#101010" transform="translate(317.6875,424.5625)"/>
<path d="M0 0 C1.5625 1.625 1.5625 1.625 2 4 C1.55555556 10.44444444 1.55555556 10.44444444 -1 13 C-3.87759287 13.28569755 -6.67804664 13.46615926 -9.5625 13.5625 C-11.19930552 13.63210308 -12.83602775 13.70369547 -14.47265625 13.77734375 C-15.64852295 13.82930908 -15.64852295 13.82930908 -16.84814453 13.88232422 C-19.41512484 14.0227014 -21.95093902 14.29433363 -24.5 14.625 C-28 15 -28 15 -30 14 C-30 14.66 -30 15.32 -30 16 C-31.32 16 -32.64 16 -34 16 C-34 17.65 -34 19.3 -34 21 C-35.65 21 -37.3 21 -39 21 C-39 21.99 -39 22.98 -39 24 C-38.34 24 -37.68 24 -37 24 C-37 25.65 -37 27.3 -37 29 C-36.2575 29.185625 -35.515 29.37125 -34.75 29.5625 C-30.97672296 31.53489482 -29.44470855 34.12619816 -28 38 C-26.90369332 42.5749721 -26.12277629 46.39811323 -28.4375 50.625 C-32.12978094 52.60622392 -34.84043486 52.27730434 -39 52 C-40.60725635 48.78548731 -40.05748185 45.56387464 -40 42 C-40.99 42 -41.98 42 -43 42 C-44.18229179 38.79721107 -45.34296818 35.5869918 -46.5 32.375 C-46.83386719 31.47136719 -47.16773438 30.56773437 -47.51171875 29.63671875 C-49.17506509 24.98613817 -50.57941748 21.01632672 -50 16 C-48.9375 14.125 -48.9375 14.125 -47 13 C-43.3125 12.8125 -43.3125 12.8125 -40 13 C-40 12.34 -40 11.68 -40 11 C-39.01 11 -38.02 11 -37 11 C-36.67 10.01 -36.34 9.02 -36 8 C-31.06208162 5.65448877 -26.33555495 5.7865778 -21 6 C-21 5.01 -21 4.02 -21 3 C-19.68 3 -18.36 3 -17 3 C-16.67 2.01 -16.34 1.02 -16 0 C-10.35672651 -0.90695467 -5.61163094 -1.25777935 0 0 Z " fill="#171717" transform="translate(602,310)"/>
<path d="M0 0 C0.99 0 1.98 0 3 0 C4.83673281 4.59183203 6.27605094 9.11429811 5 14 C3.28217664 16.59453633 1.35208666 18.85560718 -0.703125 21.19140625 C-4.07783426 25.317964 -6.54492811 29.86344574 -9.140625 34.5078125 C-9.75421875 35.33023438 -10.3678125 36.15265625 -11 37 C-12.32 37 -13.64 37 -15 37 C-15.0928125 37.86625 -15.0928125 37.86625 -15.1875 38.75 C-16 41 -16 41 -18.375 42.6875 C-22.13238257 45.99757512 -22.66343613 49.21650825 -24 54 C-27.63 54 -31.26 54 -35 54 C-35 49.05 -35 44.1 -35 39 C-34.01 39 -33.02 39 -32 39 C-31.67 37.68 -31.34 36.36 -31 35 C-29.68 35 -28.36 35 -27 35 C-26.34 33.35 -25.68 31.7 -25 30 C-24.01 30 -23.02 30 -22 30 C-21.9175 28.96875 -21.835 27.9375 -21.75 26.875 C-20.71237213 21.51392267 -18.43850045 18.40161583 -14.5625 14.625 C-11.86657243 11.8633181 -10.16311886 9.12564416 -8.30859375 5.76953125 C-6.73858163 3.64649994 -5.45806371 2.92000465 -3 2 C-2.01 2 -1.02 2 0 2 C0 1.34 0 0.68 0 0 Z " fill="#121212" transform="translate(622,341)"/>
<path d="M0 0 C1.98 0 3.96 0 6 0 C6.53625 1.093125 7.0725 2.18625 7.625 3.3125 C8.85559286 5.80445054 10.13194622 8.22653011 11.53125 10.62890625 C16.55151629 19.27902194 18.53488788 27.01542616 18 37 C17.67 37.66 17.34 38.32 17 39 C14.01925265 39.84315961 11.09246546 40.12885273 8 40 C6.125 38.4375 6.125 38.4375 5 36 C4.484375 35.195625 3.96875 34.39125 3.4375 33.5625 C1.27668839 28.20744515 0.7604399 22.69638614 0 17 C-0.32588783 14.99877332 -0.65690989 12.99834939 -1 11 C-1.66 11 -2.32 11 -3 11 C-2.53199289 6.94393835 -2.12046792 3.53411321 0 0 Z " fill="#161616" transform="translate(569,366)"/>
<path d="M0 0 C4.87896131 4.73740537 7.46591142 9.54256417 7.625 16.375 C7.50212343 20.60865644 6.82062422 22.81737053 4 26 C0.75 26 0.75 26 -3 25 C-4.33765553 23.10424978 -5.14615856 21.19957959 -6.04296875 19.0625 C-7.9085862 15.04190403 -11.16021553 12.57258032 -14.75 10.125 C-17.78881782 7.25500539 -17.84843531 5.09224656 -18 1 C-17 -1 -17 -1 -15.4375 -1.625 C-9.79495134 -2.49308441 -5.12749355 -2.60405726 0 0 Z " fill="#151515" transform="translate(625,314)"/>
<path d="M0 0 C6.625 0.75 6.625 0.75 10 3 C10.34342449 4.33076989 10.67619874 5.66431979 11 7 C11.495 7.495 11.99 7.99 12.5 8.5 C14.36565049 10.36565049 14.58468084 11.40425526 15 14 C14.50675097 19.51616833 13.80959188 25.76712013 10 30 C7.625 31.0625 7.625 31.0625 5 31 C2.3125 29.75 2.3125 29.75 0 27 C-0.77420127 24.1249931 -1.24978971 21.31408767 -1.640625 18.36328125 C-1.7537178 16.04869374 -1.7537178 16.04869374 -3 15 C-2.87419322 9.77417977 -2.36140321 4.72280643 0 0 Z " fill="#151515" transform="translate(534,348)"/>
<path d="M0 0 C0.99 0.33 1.98 0.66 3 1 C4.1875 4.0625 4.1875 4.0625 5 7 C3.68 7 2.36 7 1 7 C1 7.928125 1 8.85625 1 9.8125 C0.67 10.864375 0.34 11.91625 0 13 C-1.97047001 13.72250567 -3.94797617 14.43341346 -5.9609375 15.02734375 C-8.5320169 16.25377818 -9.09123397 17.43000016 -10.375 19.9375 C-13.2966685 25.27441445 -17.47038232 26.15418703 -23 28 C-29.2980239 30.52932687 -34.52817958 32.71512133 -39 38 C-40.33333333 39.33333333 -41.66666667 40.66666667 -43 42 C-43.99 41.67 -44.98 41.34 -46 41 C-45.6875 38.375 -45.6875 38.375 -44 35 C-39.75614792 32.02796479 -35.27323574 29 -30 29 C-30.09023437 28.25105469 -30.18046875 27.50210937 -30.2734375 26.73046875 C-30 24 -30 24 -28.1640625 22.05078125 C-22.21574031 17.97846837 -17.19577219 15.75019753 -10 15 C-10 14.34 -10 13.68 -10 13 C-9.01 12.67 -8.02 12.34 -7 12 C-6.67 11.01 -6.34 10.02 -6 9 C-5.01 9 -4.02 9 -3 9 C-2.01 6.03 -1.02 3.06 0 0 Z " fill="#F1F1F1" transform="translate(123,424)"/>
<path d="M0 0 C0.598125 0.495 1.19625 0.99 1.8125 1.5 C-0.49914336 3.81164336 -1.28660078 3.86046002 -4.43359375 4.28125 C-5.27083984 4.40113281 -6.10808594 4.52101563 -6.97070312 4.64453125 C-7.84662109 4.76183594 -8.72253906 4.87914062 -9.625 5 C-11.35382464 5.23255439 -13.08175671 5.47186938 -14.80859375 5.71875 C-15.5761499 5.82123047 -16.34370605 5.92371094 -17.13452148 6.02929688 C-19.48114291 6.43957168 -19.48114291 6.43957168 -22.1875 8.5 C-24.30859375 9.1328125 -24.30859375 9.1328125 -26.625 9.625 C-27.38683594 9.79257812 -28.14867187 9.96015625 -28.93359375 10.1328125 C-31.1875 10.5 -31.1875 10.5 -35.1875 10.5 C-34.1875 7.5 -34.1875 7.5 -31.375 5.8125 C-28.1875 4.5 -28.1875 4.5 -24.1875 4.5 C-23.8575 3.51 -23.5275 2.52 -23.1875 1.5 C-16.44962297 -2.307684 -7.00444439 -3.29620912 0 0 Z " fill="#EDEDED" transform="translate(195.1875,390.5)"/>
<path d="M0 0 C1.22589844 0.01353516 1.22589844 0.01353516 2.4765625 0.02734375 C3.41628906 0.04474609 3.41628906 0.04474609 4.375 0.0625 C0.86043981 4.41386023 -2.76832483 8.17696838 -7.10546875 11.7109375 C-8.7838123 13.08345887 -8.7838123 13.08345887 -10.125 15.375 C-12.4943209 18.04048601 -15.21004233 17.80476735 -18.625 18.0625 C-16.50884401 14.18288068 -13.95004963 11.06466022 -11.046875 7.7734375 C-9.30785217 5.68087706 -8.00198891 3.40338115 -6.625 1.0625 C-4.21954362 -0.14022819 -2.67503047 -0.03821472 0 0 Z " fill="#F0F0F0" transform="translate(71.625,465.9375)"/>
<path d="M0 0 C0.33 0.66 0.66 1.32 1 2 C-9.25706297 5.05598707 -19.56799284 7.62564486 -30 10 C-30 9.01 -30 8.02 -30 7 C-27.67731862 5.96769717 -25.34616347 4.97688688 -23 4 C-22.17757813 3.64035156 -21.35515625 3.28070313 -20.5078125 2.91015625 C-13.50971885 0.06020797 -7.51583542 -0.47219908 0 0 Z " fill="#333333" transform="translate(434,388)"/>
<path d="M0 0 C1.0725 0.2475 2.145 0.495 3.25 0.75 C3.8125 2.6875 3.8125 2.6875 4.25 4.75 C3.25 5.75 3.25 5.75 0.1875 5.8125 C-0.781875 5.791875 -1.75125 5.77125 -2.75 5.75 C-2.75 6.41 -2.75 7.07 -2.75 7.75 C-3.74 8.245 -3.74 8.245 -4.75 8.75 C-5.87224855 10.63013106 -5.87224855 10.63013106 -6.875 12.8125 C-7.40480469 13.91271484 -7.40480469 13.91271484 -7.9453125 15.03515625 C-8.34363281 15.88400391 -8.34363281 15.88400391 -8.75 16.75 C-9.74 16.75 -10.73 16.75 -11.75 16.75 C-12.20973219 11.00334765 -11.34526758 8.24408448 -7.75 3.75 C-7.151875 2.945625 -6.55375 2.14125 -5.9375 1.3125 C-3.75 -0.25 -3.75 -0.25 0 0 Z " fill="#F0F0F0" transform="translate(340.75,47.25)"/>
<path d="M0 0 C-2 2 -2 2 -5 3 C-6.70993434 4.6222454 -8.37347684 6.29413425 -10 8 C-11.33333333 9.33333333 -12.66666667 10.66666667 -14 12 C-14.99 11.67 -15.98 11.34 -17 11 C-16.6875 8.375 -16.6875 8.375 -15 5 C-5.21828492 -2.08978709 -5.21828492 -2.08978709 0 0 Z " fill="#E1E1E1" transform="translate(94,454)"/>
<path d="M0 0 C0.94875 0.04125 1.8975 0.0825 2.875 0.125 C3.205 0.785 3.535 1.445 3.875 2.125 C-0.43269231 7.04807692 -0.43269231 7.04807692 -3.9375 7.4375 C-5.0203125 7.2828125 -5.0203125 7.2828125 -6.125 7.125 C-5.03177966 0.20127119 -5.03177966 0.20127119 0 0 Z " fill="#EEEEEE" transform="translate(489.125,77.875)"/>
<path d="M0 0 C0.598125 0.20625 1.19625 0.4125 1.8125 0.625 C1.31418276 4.31254757 0.71182357 6.22990662 -2.1875 8.625 C-3.5075 7.965 -4.8275 7.305 -6.1875 6.625 C-5.875 4.25 -5.875 4.25 -5.1875 1.625 C-2.1875 -0.375 -2.1875 -0.375 0 0 Z " fill="#EBEBEB" transform="translate(129.1875,216.375)"/>
<path d="M0 0 C1.051875 0.61875 2.10375 1.2375 3.1875 1.875 C6.05015677 3.51579108 8.89207246 4.86984453 12 6 C12 6.66 12 7.32 12 8 C11.4225 7.773125 10.845 7.54625 10.25 7.3125 C7.89006205 6.72904407 7.89006205 6.72904407 5.875 8.4375 C4.946875 9.2109375 4.946875 9.2109375 4 10 C3.34 10 2.68 10 2 10 C1.34 6.7 0.68 3.4 0 0 Z " fill="#E4E4E4" transform="translate(247,295)"/>
<path d="M0 0 C0.763125 0.20625 1.52625 0.4125 2.3125 0.625 C1.6525 2.275 0.9925 3.925 0.3125 5.625 C-2.3275 5.625 -4.9675 5.625 -7.6875 5.625 C-6.02612914 1.79106724 -4.59035464 -0.6405146 0 0 Z " fill="#F0F0F0" transform="translate(525.6875,109.375)"/>
<path d="M0 0 C0.89203125 0.00902344 1.7840625 0.01804687 2.703125 0.02734375 C3.37859375 0.03894531 4.0540625 0.05054688 4.75 0.0625 C1.77025837 2.04899442 -0.38663065 2.78427479 -3.8125 3.6875 C-4.78316406 3.94789063 -5.75382812 4.20828125 -6.75390625 4.4765625 C-9.25 5.0625 -9.25 5.0625 -11.25 5.0625 C-11.25 4.4025 -11.25 3.7425 -11.25 3.0625 C-10.59 3.0625 -9.93 3.0625 -9.25 3.0625 C-9.25 2.4025 -9.25 1.7425 -9.25 1.0625 C-6.09493858 0.12630187 -3.28413498 -0.0432123 0 0 Z " fill="#666666" transform="translate(430.25,388.9375)"/>
<path d="M0 0 C2.69082872 0.17635452 5.32851446 0.61835921 8 1 C4.67692308 4.93846154 4.67692308 4.93846154 1.25 5.25 C0.5075 5.1675 -0.235 5.085 -1 5 C-1 1 -1 1 0 0 Z " fill="#D6D6D6" transform="translate(150,401)"/>
<path d="M0 0 C0 0.99 0 1.98 0 3 C-0.66 3.66 -1.32 4.32 -2 5 C-4.625 4.625 -4.625 4.625 -7 4 C-7.33 3.01 -7.66 2.02 -8 1 C-5.29120665 -0.35439668 -2.99066732 -0.06501451 0 0 Z " fill="#D9D9D9" transform="translate(344,312)"/>
<path d="M0 0 C7.75 0.75 7.75 0.75 10 3 C9.67 3.99 9.34 4.98 9 6 C7.35 6 5.7 6 4 6 C3.67 5.01 3.34 4.02 3 3 C1.50014391 1.33289654 1.50014391 1.33289654 0 0 Z " fill="#DDDDDD" transform="translate(307,313)"/>
<path d="M0 0 C2.31 0 4.62 0 7 0 C5.35 1.98 3.7 3.96 2 6 C1.01 5.67 0.02 5.34 -1 5 C-0.67 3.35 -0.34 1.7 0 0 Z " fill="#F5F5F5" transform="translate(314,77)"/>
<path d="M0 0 C1.98 0 3.96 0 6 0 C5.3125 1.9375 5.3125 1.9375 4 4 C1.375 4.75 1.375 4.75 -1 5 C-0.67 3.35 -0.34 1.7 0 0 Z " fill="#E6E6E6" transform="translate(38,493)"/>
<path d="M0 0 C0.99 0.33 1.98 0.66 3 1 C3 1.99 3 2.98 3 4 C0.69 4.66 -1.62 5.32 -4 6 C-4.33 5.01 -4.66 4.02 -5 3 C-3.68 3.33 -2.36 3.66 -1 4 C-0.67 2.68 -0.34 1.36 0 0 Z " fill="#DDDDDD" transform="translate(213,400)"/>
<path d="M0 0 C0.33 0.66 0.66 1.32 1 2 C-0.0725 2.226875 -1.145 2.45375 -2.25 2.6875 C-6.37218701 4.13026545 -7.64414523 5.41910075 -10 9 C-9.45276317 5.62537285 -8.9451 3.91765 -7 1 C-3.375 0.3125 -3.375 0.3125 0 0 Z " fill="#5F5F5F" transform="translate(458,433)"/>
<path d="M0 0 C0.66 0.33 1.32 0.66 2 1 C1.67 1.99 1.34 2.98 1 4 C-0.98 4.33 -2.96 4.66 -5 5 C-4 2 -4 2 -2.0625 0.75 C-1.381875 0.5025 -0.70125 0.255 0 0 Z " fill="#E6E6E6" transform="translate(165,396)"/>
<path d="M0 0 C0.99 0.33 1.98 0.66 3 1 C2.67 2.32 2.34 3.64 2 5 C1.01 5 0.02 5 -1 5 C-0.67 3.35 -0.34 1.7 0 0 Z " fill="#E6E6E6" transform="translate(138,205)"/>
</svg>
