<?xml version="1.0" encoding="UTF-8"?>
<svg version="1.1" xmlns="http://www.w3.org/2000/svg" width="480" height="480">
<path d="M0 0 C0 0.99 0 1.98 0 3 C0.66 3 1.32 3 2 3 C2.33 2.01 2.66 1.02 3 0 C22.68876081 5.68876081 22.68876081 5.68876081 30 13 C30.99 13.33 31.98 13.66 33 14 C33 14.66 33 15.32 33 16 C33.99 16 34.98 16 36 16 C38.6875 18.375 38.6875 18.375 41 21 C41 21.66 41 22.32 41 23 C41.58265625 23.11085938 42.1653125 23.22171875 42.765625 23.3359375 C46.79363815 24.53307428 49.77010789 27.39168784 53 30 C53.75796875 30.60972656 54.5159375 31.21945313 55.296875 31.84765625 C59.52020202 35.3745836 59.52020202 35.3745836 61 37 C61 37.99 61 38.98 61 40 C61.94875 40.20625 62.8975 40.4125 63.875 40.625 C67 42 67 42 68.375 45.125 C68.58125 46.07375 68.7875 47.0225 69 48 C71.31 48.33 73.62 48.66 76 49 C76 49.66 76 50.32 76 51 C76.66 51 77.32 51 78 51 C78 51.99 78 52.98 78 54 C78.721875 54.04125 79.44375 54.0825 80.1875 54.125 C84.18560221 55.36885402 86.05761294 57.42226989 88 61 C91.265109 69.84571362 91.25149731 78.6591762 91.0078125 87.93359375 C90.93502496 91.39723493 91.3835326 94.58650283 92 98 C91.814375 98.804375 91.62875 99.60875 91.4375 100.4375 C90.74219972 103.13400529 90.74219972 103.13400529 92.25 106 C93.90486939 110.95372088 91.30394536 115.2663301 89.359375 119.81640625 C86.76608963 125.73999796 86.76608963 125.73999796 86.125 132.0625 C85.95917769 135.95932428 84.72525643 137.27474357 82 140 C81.113125 140.495 80.22625 140.99 79.3125 141.5 C76.74036199 142.81490782 76.74036199 142.81490782 76.1875 145.6875 C76.125625 146.450625 76.06375 147.21375 76 148 C75.34 148 74.68 148 74 148 C73.34 149.32 72.68 150.64 72 152 C71.01 152 70.02 152 69 152 C68.73058594 152.57234375 68.46117187 153.1446875 68.18359375 153.734375 C63.76577153 162.19093238 57.08452949 168.07956497 49 173 C48.34 173 47.68 173 47 173 C47 173.66 47 174.32 47 175 C44.625 177.625 44.625 177.625 42 180 C41.34 180 40.68 180 40 180 C40 180.66 40 181.32 40 182 C39.43152344 182.09152344 38.86304688 182.18304688 38.27734375 182.27734375 C34.62885046 183.43509891 32.17713742 186.03123948 29.31640625 188.50390625 C26.62924673 190.23945785 25.13692394 190.30428715 22 190 C21.938125 190.598125 21.87625 191.19625 21.8125 191.8125 C21 194 21 194 18.875 195.6875 C15.56639765 197.1979489 12.6049359 197.64657491 9 198 C9 198.66 9 199.32 9 200 C5.535 200.99 5.535 200.99 2 202 C2 202.66 2 203.32 2 204 C-2.7133589 206.80253772 -6.9818694 207.61543787 -12.4140625 208.27734375 C-15.14641012 208.80153124 -15.14641012 208.80153124 -16.94140625 211.0546875 C-19 213 -19 213 -21.98828125 213.35546875 C-23.08527344 213.30003906 -24.18226563 213.24460937 -25.3125 213.1875 C-33.67473944 212.67253924 -33.67473944 212.67253924 -41.3125 215.5 C-46.09091888 218.16702449 -51.34779736 218.64649874 -56.66015625 217.3515625 C-58.35698562 216.79363067 -60.04993593 216.22372699 -61.73828125 215.640625 C-65.85981195 214.47321389 -69.07448409 215.6914947 -73 217 C-73.75152344 216.54367187 -74.50304687 216.08734375 -75.27734375 215.6171875 C-78.50249049 213.70153363 -80.83993445 213.40969215 -84.5625 213.125 C-85.67753906 213.02445313 -86.79257813 212.92390625 -87.94140625 212.8203125 C-91.40218156 213.02362752 -92.46731405 213.74187514 -95 216 C-98.42501184 217.35407445 -101.84367059 218.19184152 -105.4375 218.9375 C-109.5531415 219.81449072 -113.15981864 221.26104995 -117 223 C-117.99 223.309375 -118.98 223.61875 -120 223.9375 C-122.95445886 224.98387085 -125.44957792 226.38430324 -128.1328125 227.98828125 C-130.12785048 229.06927463 -132.11672758 229.85530281 -134.25 230.625 C-138.0103074 231.83761326 -138.0103074 231.83761326 -141 234 C-142.61720226 234.27892513 -144.24452597 234.50122923 -145.875 234.6875 C-153.49748957 235.96637308 -162.26166727 239.30920372 -166.9765625 245.6640625 C-169.66510038 248.76781858 -171.41127367 248.73202362 -175.4375 249.0625 C-180.67555319 249.50557982 -183.06482686 250.52460654 -187 254 C-188.98248715 254.71706982 -190.98415349 255.38290413 -193 256 C-197.31128337 257.78109372 -197.31128337 257.78109372 -200.4375 261.0625 C-202.83448666 264.03476345 -205.32438591 264.31471602 -209 265 C-212.4375 264.625 -212.4375 264.625 -215 264 C-215.75 262.3125 -215.75 262.3125 -216 260 C-214.1875 257.25 -214.1875 257.25 -212 255 C-211.34 255 -210.68 255 -210 255 C-209.67 254.01 -209.34 253.02 -209 252 C-207.328125 250.7890625 -207.328125 250.7890625 -205.25 249.625 C-201.62041534 247.47054065 -198.91661225 245.07426696 -196 242 C-193.52990786 239.90042168 -191.19044884 238.10882791 -188.375 236.5 C-185.89330786 235.14171733 -185.89330786 235.14171733 -184.4375 232.8125 C-183.963125 232.214375 -183.48875 231.61625 -183 231 C-181.68 231 -180.36 231 -179 231 C-178.91363281 230.41605469 -178.82726562 229.83210937 -178.73828125 229.23046875 C-177.79558115 226.38241713 -176.45501188 225.25187472 -174.1875 223.3125 C-173.50042969 222.71050781 -172.81335938 222.10851562 -172.10546875 221.48828125 C-169.97081823 219.97937244 -168.53827816 219.46852599 -166 219 C-165.01 218.67 -164.02 218.34 -163 218 C-163 217.34 -163 216.68 -163 216 C-162.195625 215.731875 -161.39125 215.46375 -160.5625 215.1875 C-159.716875 214.795625 -158.87125 214.40375 -158 214 C-157.67 213.01 -157.34 212.02 -157 211 C-155.68 211 -154.36 211 -153 211 C-153 210.34 -153 209.68 -153 209 C-152.01 209 -151.02 209 -150 209 C-150.33 208.34 -150.66 207.68 -151 207 C-155.55750496 209.38425028 -159.89269814 211.80717072 -163.9375 215 C-167.56331161 217.8200757 -171.34198555 219.73906234 -175.4765625 221.7109375 C-179.54986123 223.79172478 -183.24083838 226.40670163 -187 229 C-190.31153043 231.1825996 -192.97779906 232.78830521 -197 233 C-198.8125 231.5625 -198.8125 231.5625 -200 230 C-198.57696612 224.78220912 -195.0699042 221.37194736 -191 218 C-190.01 217.67 -189.02 217.34 -188 217 C-186.9171875 215.7934375 -186.9171875 215.7934375 -185.8125 214.5625 C-182.211357 211.2814586 -179.73057382 210.88197139 -175 210 C-176.32 210 -177.64 210 -179 210 C-179.33 210.33 -179.66 210.66 -180 211 C-181.66617115 211.04063832 -183.33388095 211.042721 -185 211 C-185 211.66 -185 212.32 -185 213 C-187.7907207 213.83661862 -190.58248012 214.66942737 -193.375 215.5 C-194.1690625 215.73847656 -194.963125 215.97695313 -195.78125 216.22265625 C-196.92207031 216.56103516 -196.92207031 216.56103516 -198.0859375 216.90625 C-198.7876709 217.11572266 -199.4894043 217.32519531 -200.21240234 217.54101562 C-202 218 -202 218 -204 218 C-204.04253906 218.61746094 -204.08507812 219.23492187 -204.12890625 219.87109375 C-205 222 -205 222 -207.58984375 223.16015625 C-208.69457031 223.45792969 -209.79929688 223.75570312 -210.9375 224.0625 C-212.11957031 224.39378906 -213.30164063 224.72507812 -214.51953125 225.06640625 C-215.66808594 225.37449219 -216.81664062 225.68257812 -218 226 C-225.11735416 228.0497156 -232.06127357 230.40968084 -239 233 C-239.74636719 233.26941406 -240.49273437 233.53882813 -241.26171875 233.81640625 C-244.30861322 234.92489548 -247.22338303 236.11169152 -250.125 237.5625 C-253 239 -253 239 -256.0625 240 C-259.01616923 241.00550442 -261.3881304 242.30996673 -264 244 C-264.99 243.34 -265.98 242.68 -267 242 C-266.33183713 238.53843332 -264.94041684 235.9193062 -263.1875 232.875 C-261.06637773 229.12147009 -259.40129671 225.51131197 -258 221.4375 C-257.0703125 218.953125 -257.0703125 218.953125 -256 217 C-252.875 215.6875 -252.875 215.6875 -250 215 C-248.84478498 212.52869082 -248.84478498 212.52869082 -248 210 C-245.9375 208.75 -245.9375 208.75 -244 208 C-242.84949462 207.036444 -242.84949462 207.036444 -242.6875 205.375 C-241.92950936 202.7564869 -240.76237071 200.60159704 -239.359375 198.2734375 C-238.26764289 196.44760967 -237.22678644 194.5914066 -236.203125 192.7265625 C-235.53215707 191.54635885 -234.86027317 190.36667551 -234.1875 189.1875 C-233.56230469 188.06730469 -232.93710938 186.94710937 -232.29296875 185.79296875 C-229.45082649 182.33107485 -227.27442507 181.99836924 -223 181 C-221.48207356 178.50358872 -221.48207356 178.50358872 -221 176 C-219.68 176 -218.36 176 -217 176 C-217 175.34 -217 174.68 -217 174 C-215.6875 172.5625 -215.6875 172.5625 -214 171 C-213.5875 170.505 -213.175 170.01 -212.75 169.5 C-209.80780492 166.9781185 -205.92211025 165 -202 165 C-201.67 163.68 -201.34 162.36 -201 161 C-200.01 161 -199.02 161 -198 161 C-197.896875 160.05125 -197.79375 159.1025 -197.6875 158.125 C-197 155 -197 155 -194 153 C-192.53648123 152.43669351 -191.0551677 151.91827493 -189.5625 151.4375 C-188.80066406 151.18871094 -188.03882813 150.93992188 -187.25390625 150.68359375 C-185.1808082 150.05483784 -183.10652757 149.50383917 -181 149 C-181.50393935 144.92266734 -181.50393935 144.92266734 -183.02734375 141.16015625 C-185.68160201 135.26535779 -184.38996579 126.13901559 -183 120 C-182.07013423 117.81609507 -181.0615806 115.67902163 -180.04296875 113.53515625 C-178.47913128 109.73391835 -177.66294567 105.80861446 -176.80859375 101.796875 C-175.9427546 98.80199175 -174.69067259 96.60608857 -173 94 C-170.90821368 90.06744172 -169.38028325 86.22711747 -168 82 C-166.28043776 77.46660863 -164.82140757 74.0817803 -161 71 C-160.34 71 -159.68 71 -159 71 C-159 70.34 -159 69.68 -159 69 C-158.05125 68.938125 -157.1025 68.87625 -156.125 68.8125 C-154.578125 68.4103125 -154.578125 68.4103125 -153 68 C-151.73854232 65.63813861 -151.73854232 65.63813861 -151 63 C-149.5 61.1875 -149.5 61.1875 -148 60 C-147.34 60 -146.68 60 -146 60 C-145.938125 59.278125 -145.87625 58.55625 -145.8125 57.8125 C-144.74833944 54.1288673 -142.75159161 52.62056344 -140 50 C-139.1646875 48.6078125 -139.1646875 48.6078125 -138.3125 47.1875 C-137.879375 46.465625 -137.44625 45.74375 -137 45 C-136.34 45 -135.68 45 -135 45 C-135 44.34 -135 43.68 -135 43 C-131.35251692 39.5735765 -127.5710957 37.92467187 -123 36 C-122.071875 35.360625 -121.14375 34.72125 -120.1875 34.0625 C-116.67016548 31.78657767 -113.18186872 30.38404336 -109.26953125 28.9296875 C-106.7840323 27.99894914 -106.7840323 27.99894914 -104 26 C-103.01 26 -102.02 26 -101 26 C-101 25.34 -101 24.68 -101 24 C-96.40387668 21.21813589 -92.61358383 20.57826833 -87.3671875 20.30859375 C-84.82014627 19.97655372 -83.27144129 19.1596077 -81 18 C-79.15850891 17.56702241 -77.30200947 17.19463019 -75.4375 16.875 C-74.48746094 16.70742187 -73.53742188 16.53984375 -72.55859375 16.3671875 C-70 16 -70 16 -67 16 C-66.77699219 15.38382813 -66.55398437 14.76765625 -66.32421875 14.1328125 C-64.54981194 11.27491834 -62.97576311 10.91342292 -59.8125 9.875 C-58.81734375 9.545 -57.8221875 9.215 -56.796875 8.875 C-55.87390625 8.58625 -54.9509375 8.2975 -54 8 C-52.2984375 7.443125 -52.2984375 7.443125 -50.5625 6.875 C-44.18466339 5.30851381 -37.69560894 4.35352248 -31.1875 3.5 C-26.59072787 2.7789377 -22.27289782 1.49357262 -17.9375 -0.1875 C-12.20093513 -1.89260799 -5.84807992 -0.60021902 0 0 Z M7 9 C6.67 9.99 6.34 10.98 6 12 C8.31 12.33 10.62 12.66 13 13 C11.60804085 10.2160817 9.84424221 10.02101003 7 9 Z M70 54 C70.66 55.65 71.32 57.3 72 59 C72.99 58.67 73.98 58.34 75 58 C73.63676257 55.9600281 73.63676257 55.9600281 72 54 C71.34 54 70.68 54 70 54 Z M-137 56 C-137.99 56.495 -137.99 56.495 -139 57 C-138.67 57.66 -138.34 58.32 -138 59 C-137.34 58.67 -136.68 58.34 -136 58 C-136.33 57.34 -136.66 56.68 -137 56 Z M-132.5625 101 C-133.696875 101.66 -134.83125 102.32 -136 103 C-134.6446674 105.53673288 -134.6446674 105.53673288 -133 108 C-132.34 108 -131.68 108 -131 108 C-131 108.66 -131 109.32 -131 110 C-127.60085025 108.86695008 -126.94745549 107.87481525 -125 105 C-126.485 102.03 -126.485 102.03 -128 99 C-129.74206308 99 -131.08595092 100.1409169 -132.5625 101 Z M-65 136 C-65.33 136.99 -65.66 137.98 -66 139 C-65.34 139 -64.68 139 -64 139 C-64.33 138.01 -64.66 137.02 -65 136 Z M-70 138 C-70 138.66 -70 139.32 -70 140 C-69.34 140 -68.68 140 -68 140 C-68 139.34 -68 138.68 -68 138 C-68.66 138 -69.32 138 -70 138 Z M-32 147 C-32.66 147.66 -33.32 148.32 -34 149 C-36.31765729 149.71927295 -38.65095874 150.3909893 -41 151 C-41 151.66 -41 152.32 -41 153 C-43.475 152.505 -43.475 152.505 -46 152 C-46 152.66 -46 153.32 -46 154 C-47.65 154 -49.3 154 -51 154 C-51 154.66 -51 155.32 -51 156 C-51.86625 155.773125 -52.7325 155.54625 -53.625 155.3125 C-57.68338409 154.9367237 -59.55166676 155.94742069 -63 158 C-62.67 158.66 -62.34 159.32 -62 160 C-61.113125 159.649375 -60.22625 159.29875 -59.3125 158.9375 C-55.93796874 157.98244398 -54.30313848 158.02848868 -51 159 C-50.67 158.34 -50.34 157.68 -50 157 C-47.6875 156.25 -47.6875 156.25 -45 156 C-44.38125 156.37125 -43.7625 156.7425 -43.125 157.125 C-40.77429733 158.37333562 -40.77429733 158.37333562 -37.4375 156.6875 C-36.303125 156.130625 -35.16875 155.57375 -34 155 C-33.01 154.67 -32.02 154.34 -31 154 C-29.98812105 152.34051852 -28.9873454 150.67419438 -28 149 C-27.34 149 -26.68 149 -26 149 C-26 148.34 -26 147.68 -26 147 C-25.34 147 -24.68 147 -24 147 C-24 146.34 -24 145.68 -24 145 C-27.24792684 145 -29.07658794 145.6507329 -32 147 Z M-14 150 C-16.0399719 151.36323743 -16.0399719 151.36323743 -18 153 C-18 153.66 -18 154.32 -18 155 C-17.01 154.67 -16.02 154.34 -15 154 C-15 153.34 -15 152.68 -15 152 C-14.34 152 -13.68 152 -13 152 C-13.33 151.34 -13.66 150.68 -14 150 Z M-22 155 C-22.639375 155.639375 -23.27875 156.27875 -23.9375 156.9375 C-27.52968334 159.35672551 -29.78328492 159.47439711 -34.01171875 159.53125 C-34.99591797 159.76328125 -34.99591797 159.76328125 -36 160 C-36.70219394 161.31496992 -37.36861216 162.64960316 -38 164 C-41.625 165.25 -41.625 165.25 -45 166 C-44.01 166.33 -43.02 166.66 -42 167 C-42 167.66 -42 168.32 -42 169 C-37.61537866 168.49890042 -35.1999003 167.01704885 -32 164 C-32 163.34 -32 162.68 -32 162 C-31.01 162.33 -30.02 162.66 -29 163 C-26.63943595 161.56989721 -26.63943595 161.56989721 -24.3125 159.5625 C-23.50425781 158.90378906 -22.69601562 158.24507812 -21.86328125 157.56640625 C-21.24839844 157.04949219 -20.63351562 156.53257812 -20 156 C-20.66 155.67 -21.32 155.34 -22 155 Z M-56 163 C-56.66 164.32 -57.32 165.64 -58 167 C-59.32 167 -60.64 167 -62 167 C-61.67 167.99 -61.34 168.98 -61 170 C-58.14221967 170.68493373 -58.14221967 170.68493373 -55 171 C-54.01 170.34 -53.02 169.68 -52 169 C-52 168.34 -52 167.68 -52 167 C-50.68 166.67 -49.36 166.34 -48 166 C-48.94875 165.690625 -49.8975 165.38125 -50.875 165.0625 C-54 164 -54 164 -56 163 Z M-72.5625 166.5 C-73.036875 166.995 -73.51125 167.49 -74 168 C-73.34 168.66 -72.68 169.32 -72 170 C-68.90073181 169.67801034 -68.90073181 169.67801034 -66 169 C-66 168.01 -66 167.02 -66 166 C-69.62733265 164.7300104 -69.62733265 164.7300104 -72.5625 166.5 Z M-65 166 C-64.67 166.99 -64.34 167.98 -64 169 C-64 168.01 -64 167.02 -64 166 C-64.33 166 -64.66 166 -65 166 Z M-141 179 C-143.60931266 179.89363605 -143.60931266 179.89363605 -146 181 C-146 181.66 -146 182.32 -146 183 C-142.06924356 182.42547254 -142.06924356 182.42547254 -139 180 C-139.66 179.67 -140.32 179.34 -141 179 Z M-122 180 C-123.63676257 181.9600281 -123.63676257 181.9600281 -125 184 C-123.02 184 -121.04 184 -119 184 C-119.33 182.68 -119.66 181.36 -120 180 C-120.66 180 -121.32 180 -122 180 Z M-158 230 C-157 232 -157 232 -157 232 Z " fill="#0A0706" transform="translate(299,81)"/>
<path d="M0 0 C2.375 0.5625 2.375 0.5625 5 2 C6.125 5.1875 6.125 5.1875 7 9 C7.474375 10.051875 7.94875 11.10375 8.4375 12.1875 C11.64326268 19.43317789 13.31011097 27.09217033 13 35 C13.2784375 36.918125 13.2784375 36.918125 13.5625 38.875 C13.7790625 40.421875 13.7790625 40.421875 14 42 C13.67 42.33 13.34 42.66 13 43 C13.99 44.98 13.99 44.98 15 47 C16.98 46.67 18.96 46.34 21 46 C21.06058594 45.39671875 21.12117188 44.7934375 21.18359375 44.171875 C21.30927734 42.97304688 21.30927734 42.97304688 21.4375 41.75 C21.51871094 40.96109375 21.59992188 40.1721875 21.68359375 39.359375 C21.97634993 37.17635361 22.42064419 35.1226818 23 33 C21.515 32.01 21.515 32.01 20 31 C20 29 20 27 20 25 C19.04346365 22.6485148 18.04718798 20.31254012 17 18 C17 17.01 17 16.02 17 15 C15.68 14.34 14.36 13.68 13 13 C13.33 11.68 13.66 10.36 14 9 C19.75 8 19.75 8 22 8 C23.70886677 7.83889472 25.41712139 7.67126359 27.125 7.5 C30.5180622 7.18106987 33.84250724 6.94654913 37.25 7 C41.00088226 7.11645853 41.00088226 7.11645853 44.625 6.3125 C48.79925159 5.92599522 50.53673976 6.69115984 54 9 C56.82206737 11.74780244 57.88889971 13.2064265 58.4375 17.125 C58 20 58 20 56.625 21.875 C55 23 55 23 53 23 C52.5978125 24.7015625 52.5978125 24.7015625 52.1875 26.4375 C51.795625 27.613125 51.40375 28.78875 51 30 C50.01 30.33 49.02 30.66 48 31 C46.91807467 32.60447356 46.91807467 32.60447356 46.0625 34.5 C44.24713046 37.89515677 44.24713046 37.89515677 41.9375 38.875 C41.298125 38.91625 40.65875 38.9575 40 39 C39.01 39.33 38.02 39.66 37 40 C36.814375 40.928125 36.814375 40.928125 36.625 41.875 C35.71828822 44.95782004 33.70162323 45.41856201 31 47 C30.30251417 48.31747324 29.63040043 49.64914193 29 51 C28.01 51.33 27.02 51.66 26 52 C24.77030122 55.51190809 24.77030122 55.51190809 24 59 C23.34 59 22.68 59 22 59 C22.2165625 59.78503906 22.433125 60.57007813 22.65625 61.37890625 C24.18057826 67.1304226 25 72.03845811 25 78 C25.49113281 78.61359375 25.98226562 79.2271875 26.48828125 79.859375 C28.37325176 82.5285322 28.31483653 84.02414114 28.1875 87.25 C28.14689453 88.58804688 28.14689453 88.58804688 28.10546875 89.953125 C28.07066406 90.62859375 28.03585938 91.3040625 28 92 C25.04581561 92.91963949 24.29185314 93.12217108 21.3125 91.875 C19 90 19 90 18.125 87.6875 C18 85 18 85 18.5625 82.0625 C19.08264234 78.42150364 18.44631694 76.34936554 17 73 C16.34 72.34 15.68 71.68 15 71 C12.13995331 66.35242412 11.30848664 61.89770918 10.52734375 56.5859375 C10.11906199 54.00028502 10.11906199 54.00028502 8.9140625 51.859375 C7.55777006 49.10042116 8.42449861 46.94145153 9 44 C8.67 43.34 8.34 42.68 8 42 C8 40.68 8 39.36 8 38 C6.741875 38.12375 5.48375 38.2475 4.1875 38.375 C3.47980469 38.44460938 2.77210938 38.51421875 2.04296875 38.5859375 C-0.29988142 38.92665391 -0.29988142 38.92665391 -3 41 C-3.66 40.67 -4.32 40.34 -5 40 C-5 40.66 -5 41.32 -5 42 C-5.99 42 -6.98 42 -8 42 C-8.33 43.65 -8.66 45.3 -9 47 C-10.485 47.495 -10.485 47.495 -12 48 C-12.01417969 48.60328125 -12.02835937 49.2065625 -12.04296875 49.828125 C-12.4373928 56.4373928 -12.4373928 56.4373928 -15.5625 59.5625 C-16.366875 60.036875 -17.17125 60.51125 -18 61 C-18.61875 60.505 -19.2375 60.01 -19.875 59.5 C-21.83880904 57.80777227 -21.83880904 57.80777227 -24 58 C-24 58.66 -24 59.32 -24 60 C-25.485 59.505 -25.485 59.505 -27 59 C-28.94497001 59.94670397 -28.94497001 59.94670397 -30.875 61.375 C-33.97141857 63.41107851 -36.23633799 64.71048754 -40 65 C-41.175625 65.103125 -42.35125 65.20625 -43.5625 65.3125 C-47 65 -47 65 -49.23046875 63.37109375 C-51.58010127 60.22268991 -51.25072611 58.5889002 -50.75 54.75 C-50.62109375 53.67234375 -50.4921875 52.5946875 -50.359375 51.484375 C-50.24078125 50.66453125 -50.1221875 49.8446875 -50 49 C-51.12873116 51.17683866 -52.0776413 53.23542846 -52.84765625 55.5703125 C-54.2614313 58.55122124 -55.5843376 59.29147144 -58.4375 60.875 C-62.95416255 63.67547439 -64.04794471 66.03113199 -66 71 C-67.73054577 72.7145222 -69.52986153 74.17854579 -71.4765625 75.640625 C-73.28564107 77.02807113 -73.28564107 77.02807113 -74 80 C-74.66 80 -75.32 80 -76 80 C-76.28101562 80.57492187 -76.56203125 81.14984375 -76.8515625 81.7421875 C-77.95915412 83.91969755 -79.12287001 86.02748288 -80.375 88.125 C-80.77460937 88.80820312 -81.17421875 89.49140625 -81.5859375 90.1953125 C-83.20314532 92.25926281 -84.65247284 92.90768124 -87 94 C-88.26804566 96.0335948 -88.26804566 96.0335948 -89 98 C-89.66 98 -90.32 98 -91 98 C-91.66 99.65 -92.32 101.3 -93 103 C-95.64 103.33 -98.28 103.66 -101 104 C-101.82638376 101.10765685 -102 99.11257569 -102 96 C-101.34 96 -100.68 96 -100 96 C-99.67 95.01 -99.34 94.02 -99 93 C-98.01 93 -97.02 93 -96 93 C-96 92.01 -96 91.02 -96 90 C-95.525625 89.5875 -95.05125 89.175 -94.5625 88.75 C-91.64340987 85.48061905 -91.96695805 81.4414552 -92.0625 77.2734375 C-92.40277744 72.01331535 -92.90256995 68.3880259 -96 64 C-96.34153937 62.33499557 -96.67449498 60.66821323 -97 59 C-98.64627072 54.73106435 -98.64627072 54.73106435 -102 52 C-100.73285059 48.19855178 -98.9750783 47.67498975 -95.51757812 45.94140625 C-94.78990234 45.58949219 -94.06222656 45.23757813 -93.3125 44.875 C-92.24999023 44.33552734 -92.24999023 44.33552734 -91.16601562 43.78515625 C-87.11142009 41.7859374 -83.55459685 40.47339117 -79 40 C-78.67 40.99 -78.34 41.98 -78 43 C-75.03 42.505 -75.03 42.505 -72 42 C-72 41.34 -72 40.68 -72 40 C-65.72694046 38.99631047 -60.21215041 38.56642683 -54 40 C-52.6078125 40.2784375 -52.6078125 40.2784375 -51.1875 40.5625 C-50.465625 40.706875 -49.74375 40.85125 -49 41 C-49.78208351 38.20866129 -50.61706907 35.55518097 -52 33 C-54.57080135 31.86559222 -54.57080135 31.86559222 -57 32 C-57.495 30.515 -57.495 30.515 -58 29 C-57.34 28.01 -56.68 27.02 -56 26 C-55.01 26 -54.02 26 -53 26 C-53 25.34 -53 24.68 -53 24 C-48.51404681 21.50656696 -45.2377334 19.70901481 -40 20 C-37.74867483 19.08431094 -37.74867483 19.08431094 -36 18 C-35.67 18.33 -35.34 18.66 -35 19 C-34.01 17.515 -34.01 17.515 -33 16 C-30.37643538 15.01484622 -27.75475877 14.57761071 -25 14 C-24 17 -24 17 -25 20 C-28.96 20.495 -28.96 20.495 -33 21 C-33 21.66 -33 22.32 -33 23 C-36.87036007 26.08284263 -41.00786149 28.53198701 -46 29 C-46 29.99 -46 30.98 -46 32 C-46 32.99 -46 33.98 -46 35 C-45.01 35.495 -45.01 35.495 -44 36 C-44 36.33 -44 36.66 -44 37 C-43.21689453 36.60167969 -43.21689453 36.60167969 -42.41796875 36.1953125 C-36.38799013 33.30176759 -30.60493534 31.93827119 -24 31 C-23.01 32.98 -23.01 32.98 -22 35 C-25.80732332 37.57915451 -29.53875339 38.90189517 -33.9140625 40.15625 C-36.22265026 41.09006078 -37.29263615 42.2266055 -39 44 C-39.99 44.33 -40.98 44.66 -42 45 C-42 48.63 -42 52.26 -42 56 C-41.34 56 -40.68 56 -40 56 C-40 55.34 -40 54.68 -40 54 C-39.38511719 53.93941406 -38.77023438 53.87882812 -38.13671875 53.81640625 C-37.32847656 53.73261719 -36.52023438 53.64882813 -35.6875 53.5625 C-34.88699219 53.48128906 -34.08648437 53.40007812 -33.26171875 53.31640625 C-30.83912821 53.04734307 -30.83912821 53.04734307 -28 52 C-27.34 51.01 -26.68 50.02 -26 49 C-22.875 47.8125 -22.875 47.8125 -20 47 C-20 46.34 -20 45.68 -20 45 C-19.34 45 -18.68 45 -18 45 C-17.80664062 44.22914063 -17.61328125 43.45828125 -17.4140625 42.6640625 C-17.15367187 41.66117187 -16.89328125 40.65828125 -16.625 39.625 C-16.36976563 38.62726563 -16.11453125 37.62953125 -15.8515625 36.6015625 C-15 34 -15 34 -13 32 C-12.59952556 29.67724823 -12.2602896 27.34260643 -12 25 C-11.34 25 -10.68 25 -10 25 C-9.81824219 23.95199219 -9.81824219 23.95199219 -9.6328125 22.8828125 C-9.46523437 21.97273438 -9.29765625 21.06265625 -9.125 20.125 C-8.96257812 19.22007812 -8.80015625 18.31515625 -8.6328125 17.3828125 C-8 15 -8 15 -6 13 C-5.896875 11.741875 -5.79375 10.48375 -5.6875 9.1875 C-5.34332984 5.55385739 -4.99453485 4.99360178 -2.4375 2 C-1.633125 1.34 -0.82875 0.68 0 0 Z M35.0625 14 C32.61562118 15.18636549 30.95083603 15.20443635 28.25 15.125 C27.45078125 15.10695313 26.6515625 15.08890625 25.828125 15.0703125 C25.22484375 15.04710937 24.6215625 15.02390625 24 15 C24.56739868 19.12973628 24.56739868 19.12973628 26 23 C26.66 23 27.32 23 28 23 C28 26.66666667 28 30.33333333 28 34 C29.43750191 35.68798827 29.43750191 35.68798827 31 37 C31.4125 36.21625 31.825 35.4325 32.25 34.625 C34.15708232 31.76437652 35.04866575 31.47566713 38 30 C39.2802521 28.52771009 40.55795087 27.05108125 41.76171875 25.515625 C43 24 43 24 45.3125 21.875 C47.44597649 19.92489632 47.44597649 19.92489632 47 16 C46.34 16 45.68 16 45 16 C44.67 15.01 44.34 14.02 44 13 C39.37906436 12.68118552 39.37906436 12.68118552 35.0625 14 Z M0 20 C0 20.99 0 21.98 0 23 C-0.66 23 -1.32 23 -2 23 C-2.99 26.3 -3.98 29.6 -5 33 C-0.28941438 32.16537965 -0.28941438 32.16537965 3 31 C4.07239297 27.78282108 3.93609485 26.94716388 3.0625 23.8125 C2.711875 22.554375 2.36125 21.29625 2 20 C1.34 20 0.68 20 0 20 Z M-73 46 C-73 46.99 -73 47.98 -73 49 C-78.61 49.66 -84.22 50.32 -90 51 C-91.32342458 54.97027374 -90.36639254 57.11656858 -89 61 C-88.34 61.33 -87.68 61.66 -87 62 C-87.061875 63.155 -87.12375 64.31 -87.1875 65.5 C-87.19595513 70.24332897 -85.96280104 73.69693617 -84 78 C-83.34 78.33 -82.68 78.66 -82 79 C-81.67 78.01 -81.34 77.02 -81 76 C-80.34 75.67 -79.68 75.34 -79 75 C-79 74.01 -79 73.02 -79 72 C-78.38125 71.79375 -77.7625 71.5875 -77.125 71.375 C-74.15346355 69.45224112 -73.86975341 67.33405473 -73 64 C-72.34 64 -71.68 64 -71 64 C-70.7525 63.05125 -70.505 62.1025 -70.25 61.125 C-68.82678531 57.56696327 -68.30893663 57.44765978 -65 56 C-63.73195434 53.9664052 -63.73195434 53.9664052 -63 52 C-62.34 52 -61.68 52 -61 52 C-61.64175517 48.93846204 -61.64175517 48.93846204 -63.7421875 48.05078125 C-64.44601563 47.80714844 -65.14984375 47.56351562 -65.875 47.3125 C-66.57367188 47.06113281 -67.27234375 46.80976563 -67.9921875 46.55078125 C-70.13518866 45.86772704 -70.13518866 45.86772704 -73 46 Z " fill="#0C0907" transform="translate(201,299)"/>
<path d="M0 0 C0.93779297 0.00322266 1.87558594 0.00644531 2.84179688 0.00976562 C4.30649414 0.02233398 4.30649414 0.02233398 5.80078125 0.03515625 C6.78884766 0.03966797 7.77691406 0.04417969 8.79492188 0.04882812 C11.23443599 0.06061322 13.67382814 0.07706614 16.11328125 0.09765625 C19.55754979 5.6912026 20.57397161 8.53281856 20.11328125 15.09765625 C19.45328125 15.09765625 18.79328125 15.09765625 18.11328125 15.09765625 C18.60828125 16.58265625 18.60828125 16.58265625 19.11328125 18.09765625 C17.79328125 18.09765625 16.47328125 18.09765625 15.11328125 18.09765625 C15.60828125 19.58265625 15.60828125 19.58265625 16.11328125 21.09765625 C15.37078125 21.77828125 14.62828125 22.45890625 13.86328125 23.16015625 C10.86946172 26.12838757 9.0789084 29.38480497 7.11328125 33.09765625 C6.45328125 33.09765625 5.79328125 33.09765625 5.11328125 33.09765625 C5.09265625 33.84015625 5.07203125 34.58265625 5.05078125 35.34765625 C3.8419929 38.89343541 2.05713721 39.37437975 -1.171875 40.9921875 C-3.87163313 42.73257828 -4.6916393 45.204306 -5.88671875 48.09765625 C-6.54671875 48.75765625 -7.20671875 49.41765625 -7.88671875 50.09765625 C-8.21671875 51.08765625 -8.54671875 52.07765625 -8.88671875 53.09765625 C-7.89671875 53.59265625 -7.89671875 53.59265625 -6.88671875 54.09765625 C-6.88671875 54.75765625 -6.88671875 55.41765625 -6.88671875 56.09765625 C-8.50998745 56.76852745 -10.13539453 57.43422654 -11.76171875 58.09765625 C-12.66664063 58.46890625 -13.5715625 58.84015625 -14.50390625 59.22265625 C-16.88671875 60.09765625 -16.88671875 60.09765625 -18.88671875 60.09765625 C-18.88671875 61.08765625 -18.88671875 62.07765625 -18.88671875 63.09765625 C-20.86671875 63.09765625 -22.84671875 63.09765625 -24.88671875 63.09765625 C-23.93499184 59.68730149 -23.06103578 57.31423195 -20.82421875 54.53515625 C-18.67311462 51.82892848 -18.05004926 50.52759703 -17.88671875 47.09765625 C-18.38171875 45.45796875 -18.38171875 45.45796875 -18.88671875 43.78515625 C-20.09338447 39.3355764 -19.67566383 36.59464322 -18.88671875 32.09765625 C-19.54671875 32.09765625 -20.20671875 32.09765625 -20.88671875 32.09765625 C-22.01734328 26.94703337 -22.30489269 21.93400413 -19.88671875 17.09765625 C-21.86671875 17.09765625 -23.84671875 17.09765625 -25.88671875 17.09765625 C-25.88671875 19.07765625 -25.88671875 21.05765625 -25.88671875 23.09765625 C-26.87671875 23.59265625 -26.87671875 23.59265625 -27.88671875 24.09765625 C-27.72751953 24.82218994 -27.56832031 25.54672363 -27.40429688 26.29321289 C-26.92398143 28.8957523 -26.70356918 31.32812637 -26.60546875 33.96875 C-26.54939453 35.32516602 -26.54939453 35.32516602 -26.4921875 36.70898438 C-26.43998047 38.10793945 -26.43998047 38.10793945 -26.38671875 39.53515625 C-26.154424 46.59940913 -26.154424 46.59940913 -25.25390625 53.59765625 C-24.88671875 56.09765625 -24.88671875 56.09765625 -26.51171875 58.66015625 C-31.45428632 63.73279139 -31.45428632 63.73279139 -33.88671875 66.09765625 C-37.18671875 64.77765625 -40.48671875 63.45765625 -43.88671875 62.09765625 C-43.88671875 61.43765625 -43.88671875 60.77765625 -43.88671875 60.09765625 C-45.86671875 59.43765625 -47.84671875 58.77765625 -49.88671875 58.09765625 C-49.96100103 61.73748813 -49.88341967 65.11891698 -49.32421875 68.72265625 C-48.90435228 71.96162614 -48.75281136 74.04482865 -49.88671875 77.09765625 C-52.44982703 78.89183205 -53.71791181 79.09765625 -56.88671875 79.09765625 C-57.21671875 80.08765625 -57.54671875 81.07765625 -57.88671875 82.09765625 C-58.54671875 82.09765625 -59.20671875 82.09765625 -59.88671875 82.09765625 C-60.38171875 83.08765625 -60.38171875 83.08765625 -60.88671875 84.09765625 C-62.88671875 82.09765625 -62.88671875 82.09765625 -63.13671875 78.72265625 C-62.78785943 73.66419617 -62.78785943 73.66419617 -60.88671875 71.09765625 C-59.57063212 70.39755754 -58.23820773 69.72670295 -56.88671875 69.09765625 C-56.67759339 63.74172333 -56.84429322 58.84358763 -58.01171875 53.59765625 C-59.26133593 47.34957037 -58.91208739 41.35634993 -55.48828125 35.84765625 C-53.88671875 34.09765625 -53.88671875 34.09765625 -50.94921875 33.53515625 C-47.88671875 34.09765625 -47.88671875 34.09765625 -45.63671875 36.34765625 C-43.88671875 39.09765625 -43.88671875 39.09765625 -42.82421875 41.28515625 C-41.89362072 43.44275477 -41.89362072 43.44275477 -38.88671875 45.09765625 C-38.88671875 46.41765625 -38.88671875 47.73765625 -38.88671875 49.09765625 C-38.22671875 49.09765625 -37.56671875 49.09765625 -36.88671875 49.09765625 C-36.55671875 47.11765625 -36.22671875 45.13765625 -35.88671875 43.09765625 C-35.22671875 43.09765625 -34.56671875 43.09765625 -33.88671875 43.09765625 C-33.98210937 42.51757812 -34.0775 41.9375 -34.17578125 41.33984375 C-34.88578812 36.33677206 -34.96149046 32.85742663 -32.88671875 28.09765625 C-33.54671875 28.09765625 -34.20671875 28.09765625 -34.88671875 28.09765625 C-36.49548047 24.07575194 -35.38606427 21.02451356 -33.88671875 17.09765625 C-31.94921875 15.09765625 -31.94921875 15.09765625 -29.88671875 14.09765625 C-28.89671875 14.42765625 -27.90671875 14.75765625 -26.88671875 15.09765625 C-26.88671875 14.43765625 -26.88671875 13.77765625 -26.88671875 13.09765625 C-23.00387304 8.76678988 -19.70515774 6.73009527 -13.88671875 6.09765625 C-10.19152611 4.30241248 -10.19152611 4.30241248 -7.88671875 1.09765625 C-4.94539984 0.11721661 -3.0617021 -0.01855577 0 0 Z M6.11328125 9.09765625 C5.12328125 9.59265625 5.12328125 9.59265625 4.11328125 10.09765625 C4.11328125 10.75765625 4.11328125 11.41765625 4.11328125 12.09765625 C3.30890625 11.91203125 2.50453125 11.72640625 1.67578125 11.53515625 C-2.60508961 11.00943527 -6.67099224 11.12803915 -10.88671875 12.09765625 C-13.27502544 14.05678852 -13.27502544 14.05678852 -13.19921875 17.72265625 C-13.12118853 21.63835481 -12.06016757 24.6228201 -10.5546875 28.19921875 C-9.6171611 30.86376747 -9.67739695 33.30669897 -9.88671875 36.09765625 C-5.97068571 33.30345133 -5.97068571 33.30345133 -3.88671875 29.09765625 C-2.79348305 28.22306769 -1.66298306 27.39431172 -0.51171875 26.59765625 C3.66299102 23.21690968 4.46284919 19.62192653 5.5078125 14.48828125 C6.11328125 12.09765625 6.11328125 12.09765625 8.11328125 10.09765625 C7.45328125 9.76765625 6.79328125 9.43765625 6.11328125 9.09765625 Z " fill="#0C0907" transform="translate(383.88671875,245.90234375)"/>
<path d="M0 0 C1.5625 1.25 1.5625 1.25 3 3 C2.6875 5.1875 2.6875 5.1875 2 7 C1.360625 7.103125 0.72125 7.20625 0.0625 7.3125 C-0.9584375 7.6528125 -0.9584375 7.6528125 -2 8 C-2.33 8.99 -2.66 9.98 -3 11 C-6.70710174 14.43250161 -10.96813075 16 -16 16 C-16.99 16.33 -17.98 16.66 -19 17 C-19.33 18.98 -19.66 20.96 -20 23 C-18.68 23 -17.36 23 -16 23 C-15.67 22.34 -15.34 21.68 -15 21 C-14.01 21 -13.02 21 -12 21 C-12 20.34 -12 19.68 -12 19 C-9.03 17.68 -6.06 16.36 -3 15 C-1.68 16.65 -0.36 18.3 1 20 C-1.38717402 22.80844002 -4.18124576 24.28268598 -7.3671875 26.015625 C-9.12464398 26.97264317 -9.12464398 26.97264317 -10.625 28.75 C-12 30 -12 30 -14.6875 30.1875 C-15.8321875 30.0946875 -15.8321875 30.0946875 -17 30 C-17 30.66 -17 31.32 -17 32 C-17.66 32 -18.32 32 -19 32 C-18.814375 33.11375 -18.62875 34.2275 -18.4375 35.375 C-18 39 -18 39 -19 41 C-17.515 41.495 -17.515 41.495 -16 42 C-16 42.99 -16 43.98 -16 45 C-10.555 44.505 -10.555 44.505 -5 44 C-4.34 45.65 -3.68 47.3 -3 49 C-3.66 49 -4.32 49 -5 49 C-5.23074219 49.76570313 -5.46148437 50.53140625 -5.69921875 51.3203125 C-7.28682468 54.59087606 -8.57637324 55.31273191 -11.8125 56.875 C-12.66457031 57.30554688 -13.51664062 57.73609375 -14.39453125 58.1796875 C-18.21608096 59.38287407 -20.75258329 58.57313741 -24.3125 56.9375 C-24.869375 56.628125 -25.42625 56.31875 -26 56 C-26 55.34 -26 54.68 -26 54 C-26.66 53.67 -27.32 53.34 -28 53 C-27.814375 51.72125 -27.62875 50.4425 -27.4375 49.125 C-26.74782523 42.98592319 -27.0397165 36.88085051 -29 31 C-28.625 29.125 -28.625 29.125 -28 27 C-27.65939189 25.33480481 -27.32441604 23.66842534 -27 22 C-27.94875 22.020625 -28.8975 22.04125 -29.875 22.0625 C-33 22 -33 22 -35 21 C-33.70486236 17.00665894 -32.5171837 15.26018334 -29 13 C-27.14742072 12.25419086 -25.26984043 11.56826224 -23.375 10.9375 C-19.29024277 9.62627693 -19.29024277 9.62627693 -16 7 C-14.68 7 -13.36 7 -12 7 C-12 6.34 -12 5.68 -12 5 C-11.30132812 4.72285156 -10.60265625 4.44570313 -9.8828125 4.16015625 C-8.97273438 3.79792969 -8.06265625 3.43570312 -7.125 3.0625 C-6.22007812 2.70285156 -5.31515625 2.34320313 -4.3828125 1.97265625 C-2.03862333 1.05098738 -2.03862333 1.05098738 0 0 Z " fill="#0C0807" transform="translate(318,285)"/>
<path d="M0 0 C2 2 2 2 2.22705078 4.79736328 C2.21657715 5.95993652 2.20610352 7.12250977 2.1953125 8.3203125 C2.18886719 9.57714844 2.18242187 10.83398438 2.17578125 12.12890625 C2.15902344 13.44761719 2.14226562 14.76632813 2.125 16.125 C2.11496983 17.46483721 2.10584404 18.80468152 2.09765625 20.14453125 C2.07402075 23.42986573 2.04107234 26.71484465 2 30 C1.01 30 0.02 30 -1 30 C-1.02465746 25.8882744 -1.04283959 21.77657722 -1.05493164 17.66479492 C-1.0599708 16.26504772 -1.06680216 14.8653058 -1.07543945 13.46557617 C-1.0875232 11.45754223 -1.09269807 9.44947043 -1.09765625 7.44140625 C-1.10289307 6.23170166 -1.10812988 5.02199707 -1.11352539 3.77563477 C-1 1 -1 1 0 0 Z " fill="#030302" transform="translate(181,179)"/>
<path d="M0 0 C0.66 0.33 1.32 0.66 2 1 C2 10.24 2 19.48 2 29 C1.01 29 0.02 29 -1 29 C-1.02891546 24.54168018 -1.04676981 20.08338431 -1.0625 15.625 C-1.07087891 14.35398438 -1.07925781 13.08296875 -1.08789062 11.7734375 C-1.09111328 10.56171875 -1.09433594 9.35 -1.09765625 8.1015625 C-1.10289307 6.98088379 -1.10812988 5.86020508 -1.11352539 4.70556641 C-1 2 -1 2 0 0 Z " fill="#030302" transform="translate(349,192)"/>
<path d="M0 0 C2 2 2 2 2.22705078 4.61376953 C2.21657715 5.69255371 2.20610352 6.77133789 2.1953125 7.8828125 C2.18886719 9.04941406 2.18242187 10.21601563 2.17578125 11.41796875 C2.15902344 12.64128906 2.14226562 13.86460937 2.125 15.125 C2.11597656 16.35605469 2.10695313 17.58710938 2.09765625 18.85546875 C2.07402548 21.90383815 2.04108054 24.95182382 2 28 C1.01 28 0.02 28 -1 28 C-1.02886338 23.52084672 -1.04675187 19.04171709 -1.0625 14.5625 C-1.07087891 13.28310547 -1.07925781 12.00371094 -1.08789062 10.68554688 C-1.09111328 9.47060547 -1.09433594 8.25566406 -1.09765625 7.00390625 C-1.10289307 5.87799072 -1.10812988 4.7520752 -1.11352539 3.59204102 C-1 1 -1 1 0 0 Z " fill="#030302" transform="translate(305,137)"/>
<path d="M0 0 C2 2 2 2 2.22705078 4.43017578 C2.21657715 5.4251709 2.20610352 6.42016602 2.1953125 7.4453125 C2.18886719 8.52167969 2.18242187 9.59804687 2.17578125 10.70703125 C2.15902344 11.83496094 2.14226562 12.96289062 2.125 14.125 C2.11597656 15.26066406 2.10695313 16.39632812 2.09765625 17.56640625 C2.07403098 20.37781299 2.04109013 23.18880298 2 26 C1.01 26 0.02 26 -1 26 C-1.02886751 21.85418113 -1.04675327 17.70838784 -1.0625 13.5625 C-1.07087891 12.37849609 -1.07925781 11.19449219 -1.08789062 9.97460938 C-1.09111328 8.84990234 -1.09433594 7.72519531 -1.09765625 6.56640625 C-1.10289307 5.52427979 -1.10812988 4.48215332 -1.11352539 3.40844727 C-1 1 -1 1 0 0 Z " fill="#030302" transform="translate(309,137)"/>
<path d="M0 0 C0.99 0.33 1.98 0.66 3 1 C3 8.92 3 16.84 3 25 C2.01 25 1.02 25 0 25 C0 16.75 0 8.5 0 0 Z " fill="#030302" transform="translate(280,112)"/>
<path d="M0 0 C2 2 2 2 2.22705078 4.24658203 C2.21657715 5.15778809 2.20610352 6.06899414 2.1953125 7.0078125 C2.18886719 7.99394531 2.18242187 8.98007813 2.17578125 9.99609375 C2.15902344 11.02863281 2.14226562 12.06117188 2.125 13.125 C2.11597656 14.16527344 2.10695313 15.20554688 2.09765625 16.27734375 C2.07403747 18.85179092 2.04110149 21.42578212 2 24 C1.01 24 0.02 24 -1 24 C-1.02887236 20.18751574 -1.04675492 16.3750593 -1.0625 12.5625 C-1.07087891 11.47388672 -1.07925781 10.38527344 -1.08789062 9.26367188 C-1.09111328 8.22919922 -1.09433594 7.19472656 -1.09765625 6.12890625 C-1.10289307 5.17056885 -1.10812988 4.21223145 -1.11352539 3.22485352 C-1 1 -1 1 0 0 Z " fill="#030302" transform="translate(345,183)"/>
<path d="M0 0 C0.99 0.33 1.98 0.66 3 1 C3 7.6 3 14.2 3 21 C2.01 21 1.02 21 0 21 C0 14.07 0 7.14 0 0 Z " fill="#030302" transform="translate(340,184)"/>
<path d="M0 0 C2 2 2 2 2.22705078 3.87939453 C2.21657715 4.62302246 2.20610352 5.36665039 2.1953125 6.1328125 C2.18886719 6.93847656 2.18242187 7.74414062 2.17578125 8.57421875 C2.15902344 9.41597656 2.14226562 10.25773437 2.125 11.125 C2.11597656 11.97449219 2.10695312 12.82398437 2.09765625 13.69921875 C2.07405647 15.79959884 2.03818483 17.89983444 2 20 C1.01 20 0.02 20 -1 20 C-1.02888514 16.85418577 -1.04675923 13.70840531 -1.0625 10.5625 C-1.07087891 9.66466797 -1.07925781 8.76683594 -1.08789062 7.84179688 C-1.09111328 6.98779297 -1.09433594 6.13378906 -1.09765625 5.25390625 C-1.10551147 4.06776733 -1.10551147 4.06776733 -1.11352539 2.85766602 C-1 1 -1 1 0 0 Z " fill="#030302" transform="translate(241,93)"/>
<path d="M0 0 C0.99 0.33 1.98 0.66 3 1 C3 6.94 3 12.88 3 19 C2.01 19 1.02 19 0 19 C0 12.73 0 6.46 0 0 Z " fill="#030302" transform="translate(256,250)"/>
<path d="M0 0 C0.99 0.33 1.98 0.66 3 1 C3 6.94 3 12.88 3 19 C2.01 19 1.02 19 0 19 C0 12.73 0 6.46 0 0 Z " fill="#030302" transform="translate(244,92)"/>
<path d="M0 0 C2 2 2 2 2.1953125 5.6953125 C2.182009 7.17200108 2.15814835 8.64862358 2.125 10.125 C2.11597656 10.87910156 2.10695313 11.63320312 2.09765625 12.41015625 C2.0740687 14.27357254 2.03819719 16.13682593 2 18 C1.01 18 0.02 18 -1 18 C-1.02684312 15.18743719 -1.04676188 12.37512759 -1.0625 9.5625 C-1.07087891 8.76005859 -1.07925781 7.95761719 -1.08789062 7.13085938 C-1.0965143 5.08704779 -1.0522815 3.04316098 -1 1 C-0.67 0.67 -0.34 0.34 0 0 Z " fill="#030302" transform="translate(277,111)"/>
<path d="M0 0 C0.99 0.33 1.98 0.66 3 1 C3 6.28 3 11.56 3 17 C2.01 17 1.02 17 0 17 C0 11.39 0 5.78 0 0 Z " fill="#030302" transform="translate(248,256)"/>
<path d="M0 0 C2 2 2 2 2.1953125 5.6953125 C2.182009 7.17200108 2.15814835 8.64862358 2.125 10.125 C2.11597656 10.87910156 2.10695312 11.63320313 2.09765625 12.41015625 C2.0740687 14.27357254 2.03819719 16.13682593 2 18 C1.01 17.67 0.02 17.34 -1 17 C-1.02684679 14.35409986 -1.04676357 11.70846904 -1.0625 9.0625 C-1.07087891 8.30775391 -1.07925781 7.55300781 -1.08789062 6.77539062 C-1.09652441 4.85005687 -1.05224333 2.92464419 -1 1 C-0.67 0.67 -0.34 0.34 0 0 Z " fill="#030302" transform="translate(245,259)"/>
<path d="M0 0 C0.99 0.33 1.98 0.66 3 1 C3 6.28 3 11.56 3 17 C2.01 17 1.02 17 0 17 C0 11.39 0 5.78 0 0 Z " fill="#030302" transform="translate(272,88)"/>
<path d="M0 0 C0.66 0.33 1.32 0.66 2 1 C2 6.28 2 11.56 2 17 C1.01 17 0.02 17 -1 17 C-1.02691685 14.54159395 -1.04679802 12.08348118 -1.0625 9.625 C-1.07087891 8.92632812 -1.07925781 8.22765625 -1.08789062 7.5078125 C-1.11328125 2.2265625 -1.11328125 2.2265625 0 0 Z " fill="#030302" transform="translate(253,252)"/>
<path d="M0 0 C0.99 0.33 1.98 0.66 3 1 C3 6.28 3 11.56 3 17 C2.01 16.67 1.02 16.34 0 16 C0 10.72 0 5.44 0 0 Z " fill="#030302" transform="translate(248,92)"/>
<path d="M0 0 C2 2 2 2 2.1953125 5.2578125 C2.17210937 6.53398437 2.14890625 7.81015625 2.125 9.125 C2.10695313 10.40632812 2.08890625 11.68765625 2.0703125 13.0078125 C2.04710937 13.99523437 2.02390625 14.98265625 2 16 C1.01 16 0.02 16 -1 16 C-1.02685095 13.52076199 -1.04676547 11.0418116 -1.0625 8.5625 C-1.07506836 7.50192383 -1.07506836 7.50192383 -1.08789062 6.41992188 C-1.09653588 4.61306441 -1.05220011 2.80612397 -1 1 C-0.67 0.67 -0.34 0.34 0 0 Z " fill="#030302" transform="translate(269,165)"/>
<path d="M0 0 C2 2 2 2 2.1953125 5.2578125 C2.17210937 6.53398438 2.14890625 7.81015625 2.125 9.125 C2.10695313 10.40632813 2.08890625 11.68765625 2.0703125 13.0078125 C2.04710937 13.99523437 2.02390625 14.98265625 2 16 C1.01 16 0.02 16 -1 16 C-1.02685095 13.52076199 -1.04676547 11.0418116 -1.0625 8.5625 C-1.07506836 7.50192383 -1.07506836 7.50192383 -1.08789062 6.41992188 C-1.09653588 4.61306441 -1.05220011 2.80612397 -1 1 C-0.67 0.67 -0.34 0.34 0 0 Z " fill="#030302" transform="translate(269,89)"/>
<path d="M0 0 C0.99 0.33 1.98 0.66 3 1 C3 5.62 3 10.24 3 15 C2.01 15 1.02 15 0 15 C0 10.05 0 5.1 0 0 Z " fill="#030302" transform="translate(296,228)"/>
<path d="M0 0 C2 2 2 2 2.1953125 4.8203125 C2.16050781 6.45613281 2.16050781 6.45613281 2.125 8.125 C2.10695312 9.22070312 2.08890625 10.31640625 2.0703125 11.4453125 C2.04710937 12.28835937 2.02390625 13.13140625 2 14 C1.01 14 0.02 14 -1 14 C-1.02685938 11.85423363 -1.04633088 9.70837355 -1.0625 7.5625 C-1.07410156 6.36753906 -1.08570313 5.17257813 -1.09765625 3.94140625 C-1 1 -1 1 0 0 Z " fill="#030302" transform="translate(153,175)"/>
<path d="M0 0 C2 2 2 2 2.1953125 4.8203125 C2.16050781 6.45613281 2.16050781 6.45613281 2.125 8.125 C2.10695313 9.22070312 2.08890625 10.31640625 2.0703125 11.4453125 C2.04710937 12.28835937 2.02390625 13.13140625 2 14 C1.01 14 0.02 14 -1 14 C-1.02685938 11.85423363 -1.04633088 9.70837355 -1.0625 7.5625 C-1.07410156 6.36753906 -1.08570313 5.17257813 -1.09765625 3.94140625 C-1 1 -1 1 0 0 Z " fill="#030302" transform="translate(313,95)"/>
<path d="M0 0 C2 2 2 2 2.1953125 4.3828125 C2.17210937 5.28773437 2.14890625 6.19265625 2.125 7.125 C2.10695313 8.03507812 2.08890625 8.94515625 2.0703125 9.8828125 C2.03550781 10.93082031 2.03550781 10.93082031 2 12 C1.01 12 0.02 12 -1 12 C-1.02687279 10.18757948 -1.04633715 8.37504767 -1.0625 6.5625 C-1.07410156 5.55316406 -1.08570313 4.54382813 -1.09765625 3.50390625 C-1 1 -1 1 0 0 Z " fill="#030302" transform="translate(301,93)"/>
<path d="M0 0 C2 2 2 2 2.1953125 4.3828125 C2.17210937 5.28773437 2.14890625 6.19265625 2.125 7.125 C2.10695313 8.03507812 2.08890625 8.94515625 2.0703125 9.8828125 C2.03550781 10.93082031 2.03550781 10.93082031 2 12 C1.01 12 0.02 12 -1 12 C-1.02687279 10.18757948 -1.04633715 8.37504767 -1.0625 6.5625 C-1.07410156 5.55316406 -1.08570313 4.54382813 -1.09765625 3.50390625 C-1 1 -1 1 0 0 Z " fill="#030302" transform="translate(277,89)"/>
<path d="M0 0 C0.99 0.33 1.98 0.66 3 1 C3 4.3 3 7.6 3 11 C2.01 11 1.02 11 0 11 C0 7.37 0 3.74 0 0 Z " fill="#030302" transform="translate(316,148)"/>
<path d="M0 0 C0.99 0.33 1.98 0.66 3 1 C3 4.3 3 7.6 3 11 C2.01 11 1.02 11 0 11 C0 7.37 0 3.74 0 0 Z " fill="#030302" transform="translate(216,104)"/>
<path d="M0 0 C2 2 2 2 2.1953125 3.9453125 C2.13020833 5.96354167 2.06510417 7.98177083 2 10 C1.34 10 0.68 10 0 10 C-0.33 10.66 -0.66 11.32 -1 12 C-1.02687279 10.18757948 -1.04633715 8.37504767 -1.0625 6.5625 C-1.07410156 5.55316406 -1.08570313 4.54382813 -1.09765625 3.50390625 C-1 1 -1 1 0 0 Z " fill="#040303" transform="translate(373,285)"/>
<path d="M0 0 C2 2 2 2 2.1953125 3.9453125 C2.13020833 5.96354167 2.06510417 7.98177083 2 10 C1.01 10 0.02 10 -1 10 C-1.02689216 8.52093108 -1.04634621 7.04172517 -1.0625 5.5625 C-1.07410156 4.73878906 -1.08570313 3.91507812 -1.09765625 3.06640625 C-1 1 -1 1 0 0 Z " fill="#030302" transform="translate(341,107)"/>
<path d="M0 0 C0.99 0.33 1.98 0.66 3 1 C3 3.64 3 6.28 3 9 C2.01 9 1.02 9 0 9 C0 6.03 0 3.06 0 0 Z " fill="#030302" transform="translate(248,280)"/>
<path d="M0 0 C0.99 0.33 1.98 0.66 3 1 C3 3.64 3 6.28 3 9 C2.01 9 1.02 9 0 9 C0 6.03 0 3.06 0 0 Z " fill="#030302" transform="translate(260,276)"/>
<path d="M0 0 C0.99 0.33 1.98 0.66 3 1 C3 3.64 3 6.28 3 9 C2.01 9 1.02 9 0 9 C0 6.03 0 3.06 0 0 Z " fill="#030302" transform="translate(160,276)"/>
<path d="M0 0 C0.99 0.33 1.98 0.66 3 1 C3 3.64 3 6.28 3 9 C2.01 9 1.02 9 0 9 C0 6.03 0 3.06 0 0 Z " fill="#030302" transform="translate(204,228)"/>
<path d="M0 0 C0.99 0.33 1.98 0.66 3 1 C3 3.64 3 6.28 3 9 C2.01 9 1.02 9 0 9 C0 6.03 0 3.06 0 0 Z " fill="#030302" transform="translate(300,188)"/>
<path d="M0 0 C0.99 0.33 1.98 0.66 3 1 C3 3.64 3 6.28 3 9 C2.01 9 1.02 9 0 9 C0 6.03 0 3.06 0 0 Z " fill="#030302" transform="translate(296,92)"/>
<path d="M0 0 C0.66 0.33 1.32 0.66 2 1 C2 3.64 2 6.28 2 9 C1.01 9 0.02 9 -1 9 C-1.125 2.25 -1.125 2.25 0 0 Z " fill="#030302" transform="translate(285,208)"/>
<path d="M0 0 C0.66 0.33 1.32 0.66 2 1 C2 3.64 2 6.28 2 9 C1.01 9 0.02 9 -1 9 C-1.125 2.25 -1.125 2.25 0 0 Z " fill="#030302" transform="translate(313,152)"/>
<path d="M0 0 C2 2 2 2 2.125 5.125 C2.08375 6.07375 2.0425 7.0225 2 8 C1.01 8 0.02 8 -1 8 C-1.04241723 5.66705225 -1.04092937 3.33297433 -1 1 C-0.67 0.67 -0.34 0.34 0 0 Z " fill="#030302" transform="translate(165,211)"/>
<path d="M0 0 C0.99 0.33 1.98 0.66 3 1 C3 3.31 3 5.62 3 8 C2.01 7.67 1.02 7.34 0 7 C0 4.69 0 2.38 0 0 Z " fill="#040303" transform="translate(228,340)"/>
<path d="M0 0 C2 2 2 2 2.125 5.125 C2.08375 6.07375 2.0425 7.0225 2 8 C1.01 8 0.02 8 -1 8 C-1.04241723 5.66705225 -1.04092937 3.33297433 -1 1 C-0.67 0.67 -0.34 0.34 0 0 Z " fill="#030302" transform="translate(145,273)"/>
<path d="M0 0 C2 2 2 2 2.125 5.125 C2.08375 6.07375 2.0425 7.0225 2 8 C1.01 8 0.02 8 -1 8 C-1.04241723 5.66705225 -1.04092937 3.33297433 -1 1 C-0.67 0.67 -0.34 0.34 0 0 Z " fill="#030302" transform="translate(141,273)"/>
<path d="M0 0 C2 2 2 2 2.125 5.125 C2.08375 6.07375 2.0425 7.0225 2 8 C1.01 8 0.02 8 -1 8 C-1.04241723 5.66705225 -1.04092937 3.33297433 -1 1 C-0.67 0.67 -0.34 0.34 0 0 Z " fill="#030302" transform="translate(289,269)"/>
<path d="M0 0 C2 2 2 2 2.125 5.125 C2.08375 6.07375 2.0425 7.0225 2 8 C1.01 8 0.02 8 -1 8 C-1.04241723 5.66705225 -1.04092937 3.33297433 -1 1 C-0.67 0.67 -0.34 0.34 0 0 Z " fill="#030302" transform="translate(157,269)"/>
<path d="M0 0 C2 2 2 2 2.125 5.125 C2.08375 6.07375 2.0425 7.0225 2 8 C1.01 8 0.02 8 -1 8 C-1.04241723 5.66705225 -1.04092937 3.33297433 -1 1 C-0.67 0.67 -0.34 0.34 0 0 Z " fill="#030302" transform="translate(273,253)"/>
<path d="M0 0 C0.99 0.33 1.98 0.66 3 1 C3 2.98 3 4.96 3 7 C2.01 7 1.02 7 0 7 C0 4.69 0 2.38 0 0 Z " fill="#030302" transform="translate(236,228)"/>
<path d="M0 0 C2 2 2 2 2.125 5.125 C2.08375 6.07375 2.0425 7.0225 2 8 C1.01 8 0.02 8 -1 8 C-1.04241723 5.66705225 -1.04092937 3.33297433 -1 1 C-0.67 0.67 -0.34 0.34 0 0 Z " fill="#030302" transform="translate(241,225)"/>
<path d="M0 0 C2 2 2 2 2.125 5.125 C2.08375 6.07375 2.0425 7.0225 2 8 C1.01 8 0.02 8 -1 8 C-1.04241723 5.66705225 -1.04092937 3.33297433 -1 1 C-0.67 0.67 -0.34 0.34 0 0 Z " fill="#030302" transform="translate(297,165)"/>
<path d="M0 0 C2 2 2 2 2.125 5.125 C2.08375 6.07375 2.0425 7.0225 2 8 C1.01 8 0.02 8 -1 8 C-1.04241723 5.66705225 -1.04092937 3.33297433 -1 1 C-0.67 0.67 -0.34 0.34 0 0 Z " fill="#030302" transform="translate(273,121)"/>
<path d="M0 0 C2 2 2 2 2.125 5.125 C2.08375 6.07375 2.0425 7.0225 2 8 C1.01 8 0.02 8 -1 8 C-1.04241723 5.66705225 -1.04092937 3.33297433 -1 1 C-0.67 0.67 -0.34 0.34 0 0 Z " fill="#030302" transform="translate(345,109)"/>
<path d="" fill="#0D0A08" transform="translate(0,0)"/>
<path d="" fill="#090706" transform="translate(0,0)"/>
</svg>
