<?xml version="1.0" encoding="UTF-8"?>
<svg version="1.1" xmlns="http://www.w3.org/2000/svg" width="480" height="480">
<path d="M0 0 C3.05134593 0.51323558 6.10549188 1.00693942 9.16015625 1.5 C12 2 12 2 14.07421875 2.55859375 C16.34960864 3.08013342 18.41849119 3.09678689 20.75 3.0625 C21.94882812 3.04896484 21.94882812 3.04896484 23.171875 3.03515625 C24.07679688 3.01775391 24.07679688 3.01775391 25 3 C25 3.99 25 4.98 25 6 C25.73605469 5.94070312 26.47210938 5.88140625 27.23046875 5.8203125 C30.51301002 6.03328415 31.75540281 6.8620685 34.3125 8.875 C35.35857422 9.67550781 35.35857422 9.67550781 36.42578125 10.4921875 C36.94527344 10.98976563 37.46476563 11.48734375 38 12 C38 12.66 38 13.32 38 14 C38.53625 13.67 39.0725 13.34 39.625 13 C43.67201723 11.29599275 47.04000216 11.77846204 51.25 12.75 C54 14 54 14 54.86328125 15.95703125 C56.41822094 18.75164795 57.93815801 18.98176254 60.9375 19.9375 C65.77551181 21.70309626 65.77551181 21.70309626 67.9375 24.5625 C68.288125 25.366875 68.63875 26.17125 69 27 C69.556875 27.495 70.11375 27.99 70.6875 28.5 C72 30 72 30 72.1875 32.6875 C72.125625 33.450625 72.06375 34.21375 72 35 C72.54398437 34.60425781 73.08796875 34.20851562 73.6484375 33.80078125 C76 33 76 33 78.7265625 34.23046875 C79.68304688 34.87628906 80.63953125 35.52210937 81.625 36.1875 C82.58664062 36.82042969 83.54828125 37.45335937 84.5390625 38.10546875 C88.68074378 41.29390592 89.31635855 44.01918372 90 49 C90.185625 50.11375 90.37125 51.2275 90.5625 52.375 C90.706875 53.24125 90.85125 54.1075 91 55 C92.32 55.33 93.64 55.66 95 56 C95.33 57.32 95.66 58.64 96 60 C96.78375 60.144375 97.5675 60.28875 98.375 60.4375 C101 61 101 61 103 62 C103 62.66 103 63.32 103 64 C103.59296875 64.09667969 104.1859375 64.19335938 104.796875 64.29296875 C107.45682645 65.14660565 108.45580071 66.19661346 110.25 68.3125 C110.77078125 68.90675781 111.2915625 69.50101562 111.828125 70.11328125 C113 72 113 72 113 76 C114.32 76.66 115.64 77.32 117 78 C116 81 116 81 114 82 C114 82.66 114 83.32 114 84 C114.99 84.33 115.98 84.66 117 85 C117.19002452 91.52417512 117.11158132 96.79722989 115 103 C115.05585622 104.75109238 115.14268827 106.50130659 115.25 108.25 C115.40032323 114.72274138 112.86552107 118.95883384 109 124 C108.45859375 124.53882813 107.9171875 125.07765625 107.359375 125.6328125 C105.81793131 127.00288808 105.81793131 127.00288808 105.0625 129.375 C103.81842896 132.44858727 102.09300203 134.4285975 100 137 C98.7476821 139.05936721 97.5309172 141.13287264 96.34375 143.23046875 C94.77101595 145.30154004 93.32477422 145.90763621 91 147 C89.33700035 149.41055254 89.33700035 149.41055254 88 152 C86 155 86 155 83 156 C82.2575 157.7325 82.2575 157.7325 81.5 159.5 C80.7575 161.2325 80.7575 161.2325 80 163 C79.01 163.33 78.02 163.66 77 164 C77 164.66 77 165.32 77 166 C75.02 166 73.04 166 71 166 C70.814375 166.886875 70.62875 167.77375 70.4375 168.6875 C68.61479992 172.88763496 66.11995922 175.03563126 62 177 C60.68 177 59.36 177 58 177 C57.90976562 177.76183594 57.81953125 178.52367187 57.7265625 179.30859375 C56.62631398 183.38424552 54.39285496 184.42613773 50.92578125 186.59375 C46.94314949 188.50796553 42.86381631 189.51692323 38.57495117 190.53369141 C34.79991168 191.44791097 31.57724052 192.54909784 28.1875 194.4375 C18.35122266 199.72511487 6.99784341 202.52842712 -4.125 201.984375 C-7.36613072 202.00198984 -10.103453 202.60349088 -13.25 203.375 C-27.00996238 206.58312383 -41.46964283 207.14475612 -55.5625 207.25 C-56.31684326 207.25926514 -57.07118652 207.26853027 -57.84838867 207.27807617 C-62.58214612 207.25073201 -66.50355176 206.48896841 -71 205 C-71 205.99 -71 206.98 -71 208 C-71.83144531 208.20496094 -72.66289062 208.40992188 -73.51953125 208.62109375 C-74.60621094 208.89050781 -75.69289063 209.15992188 -76.8125 209.4375 C-77.89144531 209.70433594 -78.97039062 209.97117187 -80.08203125 210.24609375 C-82.0740843 210.76077412 -84.04811524 211.34937175 -86 212 C-88.33333333 212.33333333 -90.66666667 212.66666667 -93 213 C-93.99 213.33 -94.98 213.66 -96 214 C-97.33078499 214.14971331 -98.66479361 214.27191421 -100 214.375 C-105.51451516 214.92917698 -110.70102598 216.42516473 -116 218 C-116.33 217.01 -116.66 216.02 -117 215 C-117.66 215 -118.32 215 -119 215 C-119 216.65 -119 218.3 -119 220 C-120.65 220.33 -122.3 220.66 -124 221 C-124.33 221.99 -124.66 222.98 -125 224 C-127.30824842 224.71023028 -129.58303983 225.01261364 -131.96875 225.375 C-132.6390625 225.58125 -133.309375 225.7875 -134 226 C-134.33 226.99 -134.66 227.98 -135 229 C-136.11375 228.8453125 -136.11375 228.8453125 -137.25 228.6875 C-140.24315526 228.70516807 -140.24315526 228.70516807 -142.0625 231.5 C-142.701875 232.325 -143.34125 233.15 -144 234 C-145.32 234 -146.64 234 -148 234 C-148 234.66 -148 235.32 -148 236 C-148.60585937 236.20753906 -149.21171875 236.41507813 -149.8359375 236.62890625 C-155.89800951 238.8578835 -160.74006116 241.68903549 -165.87109375 245.609375 C-168 247 -168 247 -171 247 C-171 247.99 -171 248.98 -171 250 C-172.65 249.67 -174.3 249.34 -176 249 C-176.33 249.99 -176.66 250.98 -177 252 C-177.99 252.33 -178.98 252.66 -180 253 C-181.20882096 255.00016466 -181.20882096 255.00016466 -182 257 C-183.32 256.67 -184.64 256.34 -186 256 C-186.268125 256.763125 -186.53625 257.52625 -186.8125 258.3125 C-188.53147977 262.20282263 -190.48285348 263.65523565 -194 266 C-196.6875 265.625 -196.6875 265.625 -199 265 C-199.19651158 260.08721049 -198.59537107 256.60884976 -197 252 C-196.71515703 250.25222565 -196.44585395 248.50188582 -196.1875 246.75 C-195.33969507 241.796683 -193.67525445 238.05919294 -191.29296875 233.671875 C-189.82218736 230.63255636 -188.88195335 227.61525891 -187.9375 224.375 C-186.65893246 220.00953234 -185.27423835 216.06292536 -183.11328125 212.06640625 C-182.27642602 210.51308549 -181.49040776 208.93220827 -180.73046875 207.33984375 C-175.03854391 195.43854635 -167.59156908 184.71728627 -160.04296875 173.9375 C-158.60206716 171.86568739 -157.21319147 169.75721651 -155.86328125 167.625 C-155.24839844 166.75875 -154.63351563 165.8925 -154 165 C-153.34 165 -152.68 165 -152 165 C-151.67 164.34 -151.34 163.68 -151 163 C-150.34 162.01 -149.68 161.02 -149 160 C-149.66 160 -150.32 160 -151 160 C-150.49396008 157.83125748 -150.00016187 156.00032373 -149 154 C-149.16265348 150.64199257 -149.70939353 147.32595805 -150.1875 144 C-150.30158203 143.071875 -150.41566406 142.14375 -150.53320312 141.1875 C-150.66017578 140.300625 -150.78714844 139.41375 -150.91796875 138.5 C-151.02906982 137.6853125 -151.1401709 136.870625 -151.25463867 136.03125 C-151.81455783 133.81531416 -151.81455783 133.81531416 -154.00512695 132.90625 C-154.66343506 132.6071875 -155.32174316 132.308125 -156 132 C-156.9948683 129.01539511 -157 127.10055735 -157 124 C-157.185625 123.24589844 -157.37125 122.49179688 -157.5625 121.71484375 C-159.03722764 112.56363208 -154.18632629 104.15633741 -149.5 96.70703125 C-148.09963159 94.17980389 -147.5563216 92.70248363 -147.375 89.875 C-146.33818897 79.16128607 -137.82969327 68.00551503 -130 61 C-129.13375 60.34 -128.2675 59.68 -127.375 59 C-124.8924912 57.1596419 -124.8924912 57.1596419 -123.6953125 54.56640625 C-121.64297881 51.45953243 -119.82803994 50.54336873 -116.5 48.9375 C-112.59535203 47.04290603 -110.45534385 45.56803744 -108 42 C-105.8125 41 -105.8125 41 -103 40 C-101.65967296 39.34750813 -100.32677358 38.6796279 -99 38 C-96.77508245 36.86458241 -94.65857515 35.8729582 -92.3125 35 C-89.84621213 34.0650813 -89.84621213 34.0650813 -87.625 32 C-82.95189536 28.43953932 -78.08380088 27.96150221 -72.375 27.5625 C-68.0696671 27.21690185 -65.50598672 26.65317914 -62 24 C-55.69456551 19.66688151 -49.09338179 16.81803905 -42 14 C-39.91460731 13.15087352 -37.83122405 12.29679326 -35.75 11.4375 C-34.76 11.03015625 -33.77 10.6228125 -32.75 10.203125 C-30.32715262 9.14312927 -28.05991627 7.96878168 -25.75 6.6875 C-21.73182245 4.58555418 -18.47920229 4.68005698 -14 5 C-14 4.34 -14 3.68 -14 3 C-13.01 3 -12.02 3 -11 3 C-11 2.34 -11 1.68 -11 1 C-6.730361 -0.68799681 -4.41489498 -1.02626945 0 0 Z M-25 23 C-27.2013866 26.80427492 -27.2013866 26.80427492 -28 31 C-27.34 31 -26.68 31 -26 31 C-25.54625 30.21625 -25.0925 29.4325 -24.625 28.625 C-22.92348887 25.8764051 -21.95480916 25.12078968 -19 24 C-20.06645115 22.70366379 -20.06645115 22.70366379 -22.5625 22.9375 C-23.366875 22.958125 -24.17125 22.97875 -25 23 Z M-36 38 C-36 38.66 -36 39.32 -36 40 C-34.68 39.67 -33.36 39.34 -32 39 C-32 38.34 -32 37.68 -32 37 C-34.0745356 36.8509288 -34.0745356 36.8509288 -36 38 Z M51 40 C50.67 40.99 50.34 41.98 50 43 C51.65 42.67 53.3 42.34 55 42 C55 41.34 55 40.68 55 40 C53.68 40 52.36 40 51 40 Z M70 56 C69.67 56.99 69.34 57.98 69 59 C69.66 59 70.32 59 71 59 C71 58.34 71 57.68 71 57 C71.66 56.67 72.32 56.34 73 56 C72.01 56 71.02 56 70 56 Z M102 100 C103 102 103 102 103 102 Z M-127 101 C-127 101.66 -127 102.32 -127 103 C-126.34 103 -125.68 103 -125 103 C-125 102.34 -125 101.68 -125 101 C-125.66 101 -126.32 101 -127 101 Z M-131 106 C-131.99 106.33 -132.98 106.66 -134 107 C-134 107.99 -134 108.98 -134 110 C-132.68 109.67 -131.36 109.34 -130 109 C-130.33 108.01 -130.66 107.02 -131 106 Z M-17 110 C-17.27585937 110.64453125 -17.55171875 111.2890625 -17.8359375 111.953125 C-19 114 -19 114 -21.625 114.75 C-22.40875 114.8325 -23.1925 114.915 -24 115 C-23.71125 115.70125 -23.4225 116.4025 -23.125 117.125 C-20.91835612 122.76420102 -19.6673479 127.45048433 -19.5625 133.5625 C-19.50255859 135.48255859 -19.50255859 135.48255859 -19.44140625 137.44140625 C-20.13429646 141.85555295 -21.61566971 143.19846979 -25 146 C-26.75149165 147.58245275 -26.75149165 147.58245275 -28 149 C-28 149.66 -28 150.32 -28 151 C-29.32 150.67 -30.64 150.34 -32 150 C-32 149.34 -32 148.68 -32 148 C-32.99 147.505 -32.99 147.505 -34 147 C-39.48826251 138.28334777 -38.36357508 128.92761943 -38 119 C-40.31 118.01 -42.62 117.02 -45 116 C-45.391875 117.093125 -45.78375 118.18625 -46.1875 119.3125 C-48.13023168 123.77988761 -50.75378545 124.970312 -55.11328125 126.96875 C-61.34555655 130.06917603 -64.86708281 133.74645156 -68 140 C-68.20891036 142.05189165 -68.20891036 142.05189165 -66.828125 143.45703125 C-62.28816605 147.28883421 -55.81553237 150.33705228 -49.8125 150.3125 C-48.884375 150.209375 -47.95625 150.10625 -47 150 C-46.67 150.99 -46.34 151.98 -46 153 C-41.83030222 154.30303056 -39.05951607 153.62712124 -35.00390625 152.48046875 C-32.31118652 151.83484589 -29.75370493 151.86231475 -27 152 C-27 151.34 -27 150.68 -27 150 C-19.57142857 149.71428571 -19.57142857 149.71428571 -16 152 C-15.21625 151.195625 -14.4325 150.39125 -13.625 149.5625 C-10.71307405 147.06557537 -8.73539824 146.72150863 -4.9375 146.625 C-1.27585697 146.49094661 -1.27585697 146.49094661 1.6484375 144.5 C2.95096175 142.66699825 2.95096175 142.66699825 3.96484375 140.7890625 C6.01152381 137.25178149 8.41819982 135.78042699 12 134 C17.86670642 129.07999926 19.39624368 123.24574799 21 116 C21.33 115.01 21.66 114.02 22 113 C19.11424181 113.39803561 18.17810487 113.79009069 16.25 116.0625 C15.8375 116.701875 15.425 117.34125 15 118 C9.48168701 117.37291898 9.48168701 117.37291898 7.0625 115.5 C4.19092172 113.41157943 1.47897642 113.38655294 -2 113 C-2.99 112.505 -2.99 112.505 -4 112 C-4.60328125 112.17402344 -5.2065625 112.34804687 -5.828125 112.52734375 C-8.59826642 113.13019827 -10.11048697 112.5329092 -12.75 111.5625 C-13.54921875 111.27503906 -14.3484375 110.98757812 -15.171875 110.69140625 C-15.77515625 110.46324219 -16.3784375 110.23507813 -17 110 Z M25 124 C26 126 26 126 26 126 Z M-71 149 C-70.67 149.99 -70.34 150.98 -70 152 C-70 151.01 -70 150.02 -70 149 C-70.33 149 -70.66 149 -71 149 Z M-68 150 C-67.34 150.66 -66.68 151.32 -66 152 C-66 151.34 -66 150.68 -66 150 C-66.66 150 -67.32 150 -68 150 Z M-50 155 C-49.67 155.66 -49.34 156.32 -49 157 C-48.67 156.34 -48.34 155.68 -48 155 C-48.66 155 -49.32 155 -50 155 Z M-27 157 C-27 157.66 -27 158.32 -27 159 C-25.68 159 -24.36 159 -23 159 C-23 158.34 -23 157.68 -23 157 C-24.32 157 -25.64 157 -27 157 Z M-40 158 C-40 158.66 -40 159.32 -40 160 C-39.01 160 -38.02 160 -37 160 C-37 159.34 -37 158.68 -37 158 C-37.99 158 -38.98 158 -40 158 Z M-112.9375 197.625 C-113.288125 198.07875 -113.63875 198.5325 -114 199 C-108.47301 199.157914 -104.0750812 198.1750348 -99 196 C-104.01119686 193.41357581 -108.30869539 193.74277678 -112.9375 197.625 Z M-129 198 C-128 200 -128 200 -128 200 Z M-122 200 C-122.33 200.99 -122.66 201.98 -123 203 C-121.68 202.34 -120.36 201.68 -119 201 C-119.99 200.67 -120.98 200.34 -122 200 Z M-90 200 C-90 200.66 -90 201.32 -90 202 C-90.99 202.33 -91.98 202.66 -93 203 C-91.68 203 -90.36 203 -89 203 C-89.33 202.01 -89.66 201.02 -90 200 Z M-137 212 C-137.42023438 212.76054687 -137.84046875 213.52109375 -138.2734375 214.3046875 C-140.3569577 217.55724165 -142.1774532 218.46035339 -145.625 220.125 C-148.54648301 221.49121031 -148.54648301 221.49121031 -151 223 C-151.33 223.99 -151.66 224.98 -152 226 C-145.97632589 225.26242444 -145.97632589 225.26242444 -141.1875 222 C-140.795625 221.34 -140.40375 220.68 -140 220 C-137.8125 218.75 -137.8125 218.75 -136 218 C-136 217.01 -136 216.02 -136 215 C-135.34 214.67 -134.68 214.34 -134 214 C-134.33 213.34 -134.66 212.68 -135 212 C-135.66 212 -136.32 212 -137 212 Z M-159 229 C-158.67 229.99 -158.34 230.98 -158 232 C-156.35 230.35 -154.7 228.7 -153 227 C-156.18490007 226.7226499 -156.18490007 226.7226499 -159 229 Z M-162 232 C-163.65 232.66 -165.3 233.32 -167 234 C-167 234.99 -167 235.98 -167 237 C-167.66 237 -168.32 237 -169 237 C-169 237.66 -169 238.32 -169 239 C-169.66 239 -170.32 239 -171 239 C-170.67 239.66 -170.34 240.32 -170 241 C-167.03 238.69 -164.06 236.38 -161 234 C-161.33 233.34 -161.66 232.68 -162 232 Z M-180 246 C-180 246.66 -180 247.32 -180 248 C-179.01 247.67 -178.02 247.34 -177 247 C-177.99 246.67 -178.98 246.34 -180 246 Z " fill="#070504" transform="translate(274,91)"/>
<path d="M0 0 C3.0100491 3.15091346 3.5871129 6.00110671 4.1875 10.25 C4.34605469 11.32765625 4.50460938 12.4053125 4.66796875 13.515625 C4.83232422 14.74539063 4.83232422 14.74539063 5 16 C6.32 16 7.64 16 9 16 C9 16.99 9 17.98 9 19 C8.01 19.66 7.02 20.32 6 21 C6.474375 22.03125 6.94875 23.0625 7.4375 24.125 C8.84873134 27.40908042 9.48282752 30.4536744 10 34 C11.0167816 37.93155553 12.14754508 41.40405809 14 45 C19.97475044 59.37169701 19.97475044 59.37169701 19 66 C16 68 16 68 13.9375 67.75 C12 67 12 67 10 65 C9.8046875 61.9609375 9.8046875 61.9609375 9.875 58.375 C9.89304687 57.18648438 9.91109375 55.99796875 9.9296875 54.7734375 C9.95289063 53.85820312 9.97609375 52.94296875 10 52 C8.515 51.505 8.515 51.505 7 51 C4.51936219 39.47835991 4.51936219 39.47835991 6 34 C5.34 33.67 4.68 33.34 4 33 C3.26919734 31.02253397 2.60578253 29.01927511 2 27 C1.505 25.515 1.505 25.515 1 24 C0.34 24 -0.32 24 -1 24 C-1 24.66 -1 25.32 -1 26 C-4.37097383 27.49821059 -6.20442119 28 -10 28 C-11.32 31.63 -12.64 35.26 -14 39 C-14.66 39 -15.32 39 -16 39 C-16.17015625 39.7734375 -16.3403125 40.546875 -16.515625 41.34375 C-18.00978603 47.76546336 -19.7878103 53.24021157 -23 59 C-23.99 59 -24.98 59 -26 59 C-25.67 56.03 -25.34 53.06 -25 50 C-26.64767247 50.28109113 -28.29313145 50.57518526 -29.9375 50.875 C-30.85402344 51.03742188 -31.77054687 51.19984375 -32.71484375 51.3671875 C-33.46894531 51.57601562 -34.22304687 51.78484375 -35 52 C-35.495 52.99 -35.495 52.99 -36 54 C-37.39538254 54.05472088 -38.79140897 54.09311538 -40.1875 54.125 C-40.96480469 54.14820313 -41.74210937 54.17140625 -42.54296875 54.1953125 C-45.49700964 53.96049208 -47.43504322 53.51086495 -50 52 C-50.92578125 49.3984375 -50.92578125 49.3984375 -51.3125 46.375 C-51.45300781 45.37210937 -51.59351563 44.36921875 -51.73828125 43.3359375 C-51.82464844 42.56507813 -51.91101563 41.79421875 -52 41 C-52.495 41.99 -52.495 41.99 -53 43 C-53.66 43 -54.32 43 -55 43 C-55 43.99 -55 44.98 -55 46 C-55.99 46.66 -56.98 47.32 -58 48 C-58.495 48.845625 -58.99 49.69125 -59.5 50.5625 C-61 53 -61 53 -64 54 C-64.33 54.99 -64.66 55.98 -65 57 C-67.475 57.495 -67.475 57.495 -70 58 C-70.020625 58.5775 -70.04125 59.155 -70.0625 59.75 C-71.32625589 62.78301413 -73.37221554 63.60867268 -76.2109375 65.0703125 C-78.2536305 66.09069407 -78.2536305 66.09069407 -81 68 C-81.99 68 -82.98 68 -84 68 C-84 68.66 -84 69.32 -84 70 C-87.3 71.32 -90.6 72.64 -94 74 C-96.57566756 71.42433244 -96.39941969 69.41888344 -96.71875 65.90625 C-97.06162907 62.36316628 -97.52502564 58.83970466 -98 55.3125 C-98.165 54.07113281 -98.33 52.82976562 -98.5 51.55078125 C-98.94977904 48.35664725 -99.45311537 45.17876693 -100 42 C-101.32 41.67 -102.64 41.34 -104 41 C-103.67 40.34 -103.34 39.68 -103 39 C-102.01 39 -101.02 39 -100 39 C-99.89816406 38.38253906 -99.79632813 37.76507813 -99.69140625 37.12890625 C-99 35 -99 35 -95.9375 32.9375 C-85.76295881 28.33256454 -71.98171762 26.46170493 -61 28 C-56.51351752 29.8749479 -53.99464521 32.59672661 -52 37 C-52.08378906 36.02417969 -52.16757813 35.04835938 -52.25390625 34.04296875 C-52.40666016 32.13451172 -52.40666016 32.13451172 -52.5625 30.1875 C-52.71912109 28.29064453 -52.71912109 28.29064453 -52.87890625 26.35546875 C-53 23 -53 23 -52 20 C-48.68261595 16.68261595 -45.51093778 16.63311407 -41 16 C-40.2575 15.505 -39.515 15.01 -38.75 14.5 C-34.4391654 12.14863567 -29.84065649 12.2458477 -25 12 C-24.505 13.485 -24.505 13.485 -24 15 C-26.49419711 17.67235405 -28.57094107 19.68160731 -32 21 C-34.3671875 20.87109375 -34.3671875 20.87109375 -36.875 20.4375 C-41.46433667 19.84007156 -44.04137978 20.3956446 -48 23 C-46.20142332 25.5609294 -46.20142332 25.5609294 -44 28 C-43.01 28 -42.02 28 -41 28 C-41 27.34 -41 26.68 -41 26 C-37.30581799 24.768606 -34.7943739 25.35567236 -31 26 C-30.505 27.98 -30.505 27.98 -30 30 C-34.46726453 33.31442207 -38.62007164 33.66009167 -44 34 C-45.08616863 38.73009384 -45.08616863 38.73009384 -44 43.3125 C-41.03472098 45.81445417 -38.85037655 46.44107437 -35 47 C-32.56317261 46.42924807 -30.33651973 45.6597894 -28.015625 44.7265625 C-26 44 -26 44 -23 44 C-23 43.01 -23 42.02 -23 41 C-22.34 41 -21.68 41 -21 41 C-20.896875 40.360625 -20.79375 39.72125 -20.6875 39.0625 C-19.95600644 35.80402869 -18.96059684 32.73436229 -17.87890625 29.578125 C-17.26640835 27.7814645 -16.67135498 25.97880259 -16.08984375 24.171875 C-14.03202702 17.80680625 -11.68797446 11.64410145 -9.05078125 5.49609375 C-7.93824737 2.94245333 -7.93824737 2.94245333 -7 0 C-4.24438552 -1.37780724 -2.90228766 -0.92023755 0 0 Z M-4 11 C-7.69152137 14.7969934 -8.94453233 17.55942252 -9.0625 22.75 C-9.041875 23.4925 -9.02125 24.235 -9 25 C-4.68679932 23.24277009 -1.0968916 20.1937832 1 16 C0.72057545 14.32345271 0.39171753 12.65391846 0 11 C-1.32 11 -2.64 11 -4 11 Z M-99 41 C-99 41.99 -99 42.98 -99 44 C-98.34 44 -97.68 44 -97 44 C-96.690625 44.94875 -96.38125 45.8975 -96.0625 46.875 C-95.12605258 49.86080408 -95.12605258 49.86080408 -94 52 C-93.34 52 -92.68 52 -92 52 C-91.34 55.96 -90.68 59.92 -90 64 C-84.61268124 60.00118565 -84.61268124 60.00118565 -79.375 55.8125 C-77 54 -77 54 -73.8125 52.4375 C-70.75692522 51.1645271 -70.75692522 51.1645271 -69 48 C-68.01 47.67 -67.02 47.34 -66 47 C-66 46.34 -66 45.68 -66 45 C-65.01 44.67 -64.02 44.34 -63 44 C-62.20046862 40.71303767 -61.90341064 39.28976808 -63 36 C-73.13847448 29.02248177 -89.43861452 36.02693959 -99 41 Z " fill="#070504" transform="translate(210,305)"/>
<path d="M0 0 C6.40828402 2.02366864 6.40828402 2.02366864 8.25 5.0625 C8.4975 5.701875 8.745 6.34125 9 7 C9.99 7.66 10.98 8.32 12 9 C12 9.66 12 10.32 12 11 C15.26460973 9.19587357 16.88929795 8.16605307 19 5 C22.875 6.875 22.875 6.875 24 8 C23.98831553 9.79356554 23.89079285 11.58693086 23.75 13.375 C23.68296875 14.35210937 23.6159375 15.32921875 23.546875 16.3359375 C22.9424442 19.28037898 22.43202784 20.28159535 20 22 C16.02851488 22.51482214 13.80011425 22.4651827 10.3125 20.4375 C7.51231669 17.48595543 5.87250286 14.6063018 4 11 C3.34 11 2.68 11 2 11 C1.32431853 15.27931599 0.92649439 18.50179533 1.5625 22.8125 C2 26 2 26 0 29 C-0.43738696 30.71444889 -0.80848688 32.44667784 -1.125 34.1875 C-1.29257812 35.08855469 -1.46015625 35.98960937 -1.6328125 36.91796875 C-1.75398438 37.60503906 -1.87515625 38.29210937 -2 39 C-1.01 39.33 -0.02 39.66 1 40 C1 41.65 1 43.3 1 45 C-0.2065625 45.3403125 -0.2065625 45.3403125 -1.4375 45.6875 C-2.283125 46.120625 -3.12875 46.55375 -4 47 C-4.89386164 49.54775306 -4.89386164 49.54775306 -5 52 C-5.59167969 52.14695312 -6.18335938 52.29390625 -6.79296875 52.4453125 C-10.97615348 53.63270914 -14.05645432 54.5201843 -16.75 58.0625 C-19.16418137 61.2143479 -20.28517143 61.9127331 -24 63 C-25.4540625 63.5878125 -25.4540625 63.5878125 -26.9375 64.1875 C-30.3642239 65.09663083 -32.58246986 64.81369765 -36 64 C-36.91065333 61.02028875 -36.99113316 58.8765012 -36.5 55.8125 C-35.94954885 51.6565938 -36.20263151 47.97849924 -36.84375 43.84765625 C-37 42 -37 42 -36 40 C-36.226875 38.88625 -36.45375 37.7725 -36.6875 36.625 C-37 33 -37 33 -35.0625 30.5625 C-34.381875 30.046875 -33.70125 29.53125 -33 29 C-32.34 30.65 -31.68 32.3 -31 34 C-29.68 34 -28.36 34 -27 34 C-26.34 32.68 -25.68 31.36 -25 30 C-24.01 30 -23.02 30 -22 30 C-21.67 29.34 -21.34 28.68 -21 28 C-17.28098293 26.03718543 -15.02784093 25.84918831 -11 27 C-12.28540939 30.85622818 -13.76941277 31.3965617 -17.1875 33.5 C-18.18007813 34.11617188 -19.17265625 34.73234375 -20.1953125 35.3671875 C-23 37 -23 37 -26.5625 38.625 C-29.6947583 40.39191494 -29.98952507 41.5950347 -31 45 C-31.03030396 47.9053865 -31.03030396 47.9053865 -30.625 50.8125 C-30.51414062 51.78832031 -30.40328125 52.76414062 -30.2890625 53.76953125 C-30.19367188 54.50558594 -30.09828125 55.24164063 -30 56 C-29.0925 55.505 -28.185 55.01 -27.25 54.5 C-24 53 -24 53 -20 53 C-19.67 52.01 -19.34 51.02 -19 50 C-18.01 50 -17.02 50 -16 50 C-15.75507813 49.38640625 -15.51015625 48.7728125 -15.2578125 48.140625 C-13.74947715 45.57364433 -12.55743212 44.96142096 -9.875 43.75 C-9.15054687 43.41484375 -8.42609375 43.0796875 -7.6796875 42.734375 C-7.12539063 42.49203125 -6.57109375 42.2496875 -6 42 C-6 37.09752056 -6.50704472 32.28792427 -6.9765625 27.41015625 C-7.00043093 23.93730024 -6.32950851 22.13680914 -5 19 C-4.96677027 16.55109734 -4.96677027 16.55109734 -5.375 14.1875 C-5.48585938 13.39730469 -5.59671875 12.60710937 -5.7109375 11.79296875 C-5.80632812 11.20128906 -5.90171875 10.60960937 -6 10 C-12.80128267 12.04719526 -12.80128267 12.04719526 -17.875 16.625 C-18.24625 17.40875 -18.6175 18.1925 -19 19 C-21.87932004 20.80116055 -24.39412674 21.32889354 -27.75 21.625 C-28.54921875 21.69976562 -29.3484375 21.77453125 -30.171875 21.8515625 C-30.77515625 21.90054687 -31.3784375 21.94953125 -32 22 C-32.99 24.475 -32.99 24.475 -34 27 C-35.65 26.67 -37.3 26.34 -39 26 C-39 25.01 -39 24.02 -39 23 C-35.66696609 20.50022457 -34.26696398 20 -30 20 C-29.67 18.68 -29.34 17.36 -29 16 C-28.34 16 -27.68 16 -27 16 C-27 15.01 -27 14.02 -27 13 C-26.38125 12.938125 -25.7625 12.87625 -25.125 12.8125 C-24.073125 12.4103125 -24.073125 12.4103125 -23 12 C-22.71125 11.236875 -22.4225 10.47375 -22.125 9.6875 C-20.58310341 6.00408038 -18.43912749 4.89502943 -15 3 C-14.01 3 -13.02 3 -12 3 C-12 2.34 -12 1.68 -12 1 C-8.65747276 0.92572162 -6.1964086 0.93453047 -3 2 C-2.01 1.34 -1.02 0.68 0 0 Z " fill="#070504" transform="translate(330,281)"/>
<path d="M0 0 C0 0.66 0 1.32 0 2 C0.61875 2.268125 1.2375 2.53625 1.875 2.8125 C4 4 4 4 6 7 C6.484375 9.9609375 6.484375 9.9609375 6.75 13.375 C6.89695312 15.05722656 6.89695312 15.05722656 7.046875 16.7734375 C6.99896968 20.07092066 6.55960812 22.11045209 5 25 C4.34 25.144375 3.68 25.28875 3 25.4375 C2.34 25.623125 1.68 25.80875 1 26 C-0.3045656 28.99615946 -0.3045656 28.99615946 -1 32 C-1.66 32 -2.32 32 -3 32 C-3.33 32.99 -3.66 33.98 -4 35 C-6.9375 36.625 -6.9375 36.625 -10 38 C-12.51083114 39.25541557 -12.87125446 40.50063488 -14 43 C-14.99 43 -15.98 43 -17 43 C-25.29159527 27.00672534 -25.29159527 27.00672534 -24.98046875 17.40625 C-25.0087844 13.91776184 -25.75439632 11.2524096 -27 8 C-27.66 7.67 -28.32 7.34 -29 7 C-28.45276317 3.62537285 -27.9451 1.91765 -26 -1 C-17.70509506 -4.13015281 -8.0740235 -3.65503105 0 0 Z M-19.6875 2.5 C-20.89986328 2.63921875 -20.89986328 2.63921875 -22.13671875 2.78125 C-23.05904297 2.88953125 -23.05904297 2.88953125 -24 3 C-23.41946806 9.10829931 -23.41946806 9.10829931 -20 14 C-19.34 14 -18.68 14 -18 14 C-17.87882813 14.71285156 -17.75765625 15.42570312 -17.6328125 16.16015625 C-16.68936031 21.55234841 -15.62637791 26.77235672 -14 32 C-10.48493268 29.86585199 -8.91971025 27.35899917 -7.01171875 23.76171875 C-6 22 -6 22 -3.8125 19.4375 C-1.62240911 16.49220535 -1.07628779 14.66181402 -1 11 C-2.68857985 6.27197643 -5.76098866 4.7603596 -10.0625 2.69921875 C-13.27500313 1.53986782 -16.36238551 2.11447948 -19.6875 2.5 Z " fill="#060504" transform="translate(250,308)"/>
<path d="M0 0 C0.515625 0.37125 1.03125 0.7425 1.5625 1.125 C1.2325 2.775 0.9025 4.425 0.5625 6.125 C-7.8525 6.62 -7.8525 6.62 -16.4375 7.125 C-16.7675 8.115 -17.0975 9.105 -17.4375 10.125 C-17.7675 10.455 -18.0975 10.785 -18.4375 11.125 C-17.756875 12.2078125 -17.756875 12.2078125 -17.0625 13.3125 C-13.24269481 19.9237013 -13.24269481 19.9237013 -13.8125 23.4375 C-14.121875 24.2728125 -14.121875 24.2728125 -14.4375 25.125 C-16.0875 25.125 -17.7375 25.125 -19.4375 25.125 C-20.30250888 22.52398714 -21.15476928 19.91993589 -22 17.3125 C-22.24685547 16.57451172 -22.49371094 15.83652344 -22.74804688 15.07617188 C-24.55078125 9.46484375 -24.55078125 9.46484375 -23.4375 6.125 C-21.4575 5.795 -19.4775 5.465 -17.4375 5.125 C-17.4375 4.465 -17.4375 3.805 -17.4375 3.125 C-14.7975 3.125 -12.1575 3.125 -9.4375 3.125 C-9.4375 2.465 -9.4375 1.805 -9.4375 1.125 C-3.0375 -1.09038462 -3.0375 -1.09038462 0 0 Z " fill="#070504" transform="translate(381.4375,249.875)"/>
<path d="M0 0 C0.66 0.33 1.32 0.66 2 1 C2.46419479 4.09463191 2.42769094 6.2612611 0.83984375 9.00390625 C-2.58924184 13.62571727 -6.4673921 17.65499269 -10.6875 21.5625 C-12.2141682 23.23456517 -13.07757479 24.94228223 -14 27 C-15.32 26.67 -16.64 26.34 -18 26 C-18.125 22.625 -18.125 22.625 -18 19 C-17.34 18.34 -16.68 17.68 -16 17 C-15.01 17 -14.02 17 -13 17 C-12.731875 16.443125 -12.46375 15.88625 -12.1875 15.3125 C-10.20766878 11.4570392 -7.93799964 7.8301256 -5.5 4.25 C-4.89671875 3.36054688 -4.89671875 3.36054688 -4.28125 2.453125 C-3 1 -3 1 0 0 Z " fill="#070504" transform="translate(392,266)"/>
<path d="M0 0 C0.99 0 1.98 0 3 0 C6.37081613 6.5490142 8.70048208 11.57488991 8 19 C6.68 19.33 5.36 19.66 4 20 C0.12907455 14.54551414 -1 8.58744089 -1 2 C-0.67 1.34 -0.34 0.68 0 0 Z " fill="#070504" transform="translate(365,278)"/>
<path d="M0 0 C7.28153153 0.47747748 7.28153153 0.47747748 10.0625 2.5 C11.51992641 6.38647042 10.71250714 9.98248987 10 14 C8.09375 13.6796875 8.09375 13.6796875 6 13 C4.96567096 11.01753602 3.96761608 9.01586684 3 7 C0.95053601 5.14684743 0.95053601 5.14684743 -1 4 C-0.67 2.68 -0.34 1.36 0 0 Z " fill="#070504" transform="translate(386,251)"/>
<path d="M0 0 C3.16115776 1.36983503 3.9927092 1.9890638 6 5 C5.9765625 7.26171875 5.9765625 7.26171875 5.625 9.6875 C5.51414062 10.49574219 5.40328125 11.30398438 5.2890625 12.13671875 C5.19367188 12.75160156 5.09828125 13.36648438 5 14 C3.35 14.33 1.7 14.66 0 15 C-1.62741292 10.21349143 -2.26108571 6.9296987 -1 2 C-0.67 1.34 -0.34 0.68 0 0 Z " fill="#070504" transform="translate(348,268)"/>
</svg>
