<?xml version="1.0" encoding="UTF-8"?>
<svg version="1.1" xmlns="http://www.w3.org/2000/svg" width="480" height="480">
<path d="M0 0 C2.6303875 0.6376697 4.41213752 0.0300725 7.0625 -0.5 C8.89340744 -0.61311641 10.72814687 -0.67461831 12.5625 -0.6875 C13.93921875 -0.70876953 13.93921875 -0.70876953 15.34375 -0.73046875 C18.25833806 -0.48339879 20.37477945 0.39757903 23.0625 1.5 C24.238125 1.1596875 24.238125 1.1596875 25.4375 0.8125 C28.60654634 0.43523258 28.94793586 0.9192799 31.375 2.8125 C31.96667969 3.27914062 32.55835938 3.74578125 33.16796875 4.2265625 C36.26878076 6.31081965 39.42186705 6.73664148 43.0625 7.5 C44.74326231 8.13028587 46.41794725 8.78050817 48.0625 9.5 C48.0625 10.16 48.0625 10.82 48.0625 11.5 C48.866875 11.8403125 48.866875 11.8403125 49.6875 12.1875 C52.88710161 13.95570089 55.35287223 16.03670203 58.0625 18.5 C58.0625 19.16 58.0625 19.82 58.0625 20.5 C59.0525 20.83 60.0425 21.16 61.0625 21.5 C61.75 23.5625 61.75 23.5625 62.0625 25.5 C62.701875 25.644375 63.34125 25.78875 64 25.9375 C66.0625 26.5 66.0625 26.5 67.0625 27.5 C68.17625 27.37625 68.17625 27.37625 69.3125 27.25 C72.0625 27.5 72.0625 27.5 74.875 29.875 C77.0625 32.5 77.0625 32.5 77.0625 34.5 C77.67738281 34.67015625 78.29226563 34.8403125 78.92578125 35.015625 C83.72695423 36.45521116 86.16298069 37.295697 89.0625 41.5 C91.68875139 41.83425735 91.68875139 41.83425735 94.0625 41.5 C94.7225 42.82 95.3825 44.14 96.0625 45.5 C96.7225 45.5 97.3825 45.5 98.0625 45.5 C98.0625 46.16 98.0625 46.82 98.0625 47.5 C98.7225 47.5 99.3825 47.5 100.0625 47.5 C103.0625 50.96153846 103.0625 50.96153846 103.0625 53.5 C104.3 53.726875 105.5375 53.95375 106.8125 54.1875 C110.99934756 55.2175386 112.74207898 56.78732637 115.0625 60.5 C116.60672728 63.58845456 116.08017465 66.68743204 116 70.08984375 C115.94909364 72.64566188 115.94909364 72.64566188 117.0625 75.5 C117.0911444 77.52966033 116.9983315 79.53523864 116.90234375 81.5625 C116.93227156 83.82928336 116.93227156 83.82928336 119.0625 86.5 C119.7928117 89.56452627 120.08339861 92.68460438 120.4375 95.8125 C120.55738281 96.65490234 120.67726563 97.49730469 120.80078125 98.36523438 C121.30135325 102.75038222 121.41208258 104.86009884 119.2421875 108.83203125 C118.52289063 109.71246094 117.80359375 110.59289062 117.0625 111.5 C116.28129313 112.94185712 115.52544023 114.39819523 114.8125 115.875 C114.30976562 116.90753906 114.30976562 116.90753906 113.796875 117.9609375 C113.55453125 118.46882813 113.3121875 118.97671875 113.0625 119.5 C112.4025 119.5 111.7425 119.5 111.0625 119.5 C111.0625 120.16 111.0625 120.82 111.0625 121.5 C110.4025 121.5 109.7425 121.5 109.0625 121.5 C108.93875 122.428125 108.815 123.35625 108.6875 124.3125 C108.0625 127.5 108.0625 127.5 106.0625 130.5 C105.4025 130.5 104.7425 130.5 104.0625 130.5 C103.85625 131.44875 103.65 132.3975 103.4375 133.375 C102.756875 134.921875 102.756875 134.921875 102.0625 136.5 C101.11375 136.78875 100.165 137.0775 99.1875 137.375 C95.57617764 138.67507605 95.38815899 139.19467023 93.8125 142.5 C93.51859375 143.20125 93.2246875 143.9025 92.921875 144.625 C92.0625 146.5 92.0625 146.5 90.0625 148.5 C89.66485737 150.48821313 89.32474651 152.48944339 89.0625 154.5 C88.0725 154.5 87.0825 154.5 86.0625 154.5 C86.000625 155.26183594 85.93875 156.02367187 85.875 156.80859375 C85.0625 159.5 85.0625 159.5 82.8125 161.16015625 C81.905 161.62292969 80.9975 162.08570313 80.0625 162.5625 C76.32813306 164.25050495 76.32813306 164.25050495 74.38671875 167.5546875 C74.22623047 168.51761719 74.22623047 168.51761719 74.0625 169.5 C70.72276509 172.64889291 67.13710727 174.46269636 63.0625 176.5 C62.52625 177.03625 61.99 177.5725 61.4375 178.125 C59.7290452 179.8334548 58.37259987 179.92247503 56.0625 180.5 C55.04053008 181.47753644 54.04270375 182.4805881 53.0625 183.5 C51.43066893 184.55589069 49.75457001 185.5436126 48.0625 186.5 C47.35351562 186.90605469 46.64453125 187.31210937 45.9140625 187.73046875 C43.64480187 189.0158805 41.3594185 190.26482467 39.0625 191.5 C38.258125 191.933125 37.45375 192.36625 36.625 192.8125 C32.48770296 193.92250652 28.31939628 193.64878472 24.0625 193.5 C24.0625 194.16 24.0625 194.82 24.0625 195.5 C18.70059899 198.11407872 14.02814796 199.99228528 8.0625 200.5 C7.7325 201.49 7.4025 202.48 7.0625 203.5 C6.299375 203.479375 5.53625 203.45875 4.75 203.4375 C1.96064214 203.37057159 1.96064214 203.37057159 -0.9375 204.5 C-2.60371616 204.53874921 -4.27144172 204.5450286 -5.9375 204.5 C-5.9375 205.16 -5.9375 205.82 -5.9375 206.5 C-9.37441122 206.98345066 -12.81212694 207.46094119 -16.25 207.9375 C-17.20712891 208.07220703 -18.16425781 208.20691406 -19.15039062 208.34570312 C-24.94681955 209.14588355 -30.73167401 209.7963843 -36.5637207 210.27514648 C-38.65645498 210.47337833 -40.73721851 210.79027718 -42.8125 211.125 C-45.9375 211.5 -45.9375 211.5 -48.6875 210.9375 C-51.2095148 210.17339318 -51.2095148 210.17339318 -53.9375 212.5 C-54.948125 212.438125 -55.95875 212.37625 -57 212.3125 C-62.4412081 212.57160515 -66.24908368 214.88580077 -70.9375 217.5 C-73.932415 218.9974575 -76.51259315 218.0753146 -79.74609375 217.55859375 C-82.23420854 217.28127024 -82.23420854 217.28127024 -84.9375 219.5 C-87.27734375 219.84375 -87.27734375 219.84375 -89.875 220 C-93.47849166 220.21740523 -95.75083518 220.85857909 -98.9375 222.5 C-100.9453125 222.84375 -100.9453125 222.84375 -103.0625 223 C-108.10631202 223.46158014 -112.9901753 224.43617026 -117.9375 225.5 C-117.9375 226.16 -117.9375 226.82 -117.9375 227.5 C-129.71324048 233.59732017 -129.71324048 233.59732017 -136.27734375 235 C-141.42627707 236.2388411 -144.22586567 237.3610111 -147.5 241.625 C-150.37046102 245.35524533 -150.37046102 245.35524533 -153.15625 246.06640625 C-154.70328376 246.14633633 -156.25190722 246.20026583 -157.80078125 246.2265625 C-160.37292533 246.55572171 -161.31034284 247.31563395 -163.1875 249.0625 C-165.9375 251.5 -165.9375 251.5 -168.8125 251.8125 C-169.864375 251.6578125 -169.864375 251.6578125 -170.9375 251.5 C-170.9375 252.49 -170.9375 253.48 -170.9375 254.5 C-171.5975 254.5 -172.2575 254.5 -172.9375 254.5 C-172.9375 255.16 -172.9375 255.82 -172.9375 256.5 C-173.9128197 257.52408568 -174.91948643 258.51834406 -175.9375 259.5 C-176.47375 260.36625 -177.01 261.2325 -177.5625 262.125 C-180.64502432 265.20752432 -182.78569421 265.16571103 -187.01171875 265.359375 C-188.94501656 265.28960603 -188.94501656 265.28960603 -189.9375 266.5 C-192.375 266.6875 -192.375 266.6875 -194.9375 266.5 C-196.9375 264.5 -196.9375 264.5 -197 261.75 C-194.86865732 255.23059885 -188.41302289 252.15034859 -182.9375 248.5 C-178.30693865 245.03981104 -178.30693865 245.03981104 -174.9375 240.5 C-173.25171502 239.50836178 -171.56274617 238.52135539 -169.8515625 237.57421875 C-165.77925855 235.28874204 -162.54592078 233.41263116 -159.9375 229.5 C-158.9475 229.5 -157.9575 229.5 -156.9375 229.5 C-156.9375 228.84 -156.9375 228.18 -156.9375 227.5 C-155.6175 226.84 -154.2975 226.18 -152.9375 225.5 C-152.9375 224.84 -152.9375 224.18 -152.9375 223.5 C-154.030625 223.995 -155.12375 224.49 -156.25 225 C-159.9375 226.5 -159.9375 226.5 -162.9375 226.5 C-161.46931332 223.39257577 -159.73725 220.59528261 -157.8125 217.75 C-157.27367187 216.95078125 -156.73484375 216.1515625 -156.1796875 215.328125 C-155.76976562 214.72484375 -155.35984375 214.1215625 -154.9375 213.5 C-155.52917969 213.63277344 -156.12085938 213.76554688 -156.73046875 213.90234375 C-160.79196525 214.81005178 -164.85124171 215.7091113 -168.9375 216.5 C-169.040625 217.11875 -169.14375 217.7375 -169.25 218.375 C-169.9375 220.5 -169.9375 220.5 -172.9375 222.5 C-176.125 222.625 -176.125 222.625 -178.9375 222.5 C-179.2675 223.49 -179.5975 224.48 -179.9375 225.5 C-182.70770959 228.01837236 -185.27422053 230.11173884 -188.5 232 C-191.0876772 233.45562234 -191.0876772 233.45562234 -193.3125 235.9375 C-196.3696733 238.92188346 -199.17424563 240.48397087 -202.9375 242.5 C-205.51846123 244.03628645 -208.08124018 245.59025546 -210.625 247.1875 C-212.9375 248.5 -212.9375 248.5 -214.9375 248.5 C-215.17210937 249.10328125 -215.40671875 249.7065625 -215.6484375 250.328125 C-217.2528573 253.03132927 -218.78808687 253.82315896 -221.5625 255.25 C-222.78839844 255.89195312 -222.78839844 255.89195312 -224.0390625 256.546875 C-224.66554687 256.86140625 -225.29203125 257.1759375 -225.9375 257.5 C-226.4322025 247.53266083 -225.38403495 241.23584194 -218.9375 233.5 C-218.15916466 231.31785432 -218.15916466 231.31785432 -217.9375 229.5 C-217.2775 229.5 -216.6175 229.5 -215.9375 229.5 C-215.9375 228.18 -215.9375 226.86 -215.9375 225.5 C-215.2775 225.5 -214.6175 225.5 -213.9375 225.5 C-213.370884 223.24957232 -212.81953931 220.99760114 -212.2890625 218.73828125 C-211.92941406 217.29001953 -211.92941406 217.29001953 -211.5625 215.8125 C-211.32789063 214.83925781 -211.09328125 213.86601562 -210.8515625 212.86328125 C-210.54992187 212.08339844 -210.24828125 211.30351562 -209.9375 210.5 C-208.9475 210.17 -207.9575 209.84 -206.9375 209.5 C-206.6075 208.51 -206.2775 207.52 -205.9375 206.5 C-205.2775 206.17 -204.6175 205.84 -203.9375 205.5 C-203.628125 204.71625 -203.31875 203.9325 -203 203.125 C-201.93425017 200.49197101 -200.89259727 199.45509727 -198.9375 197.5 C-198.9375 196.51 -198.9375 195.52 -198.9375 194.5 C-196.30490403 192.08085776 -194.34321201 190.63523734 -190.9375 189.5 C-190.23812468 188.18352881 -189.57020867 186.84977849 -188.9375 185.5 C-188.2775 185.17 -187.6175 184.84 -186.9375 184.5 C-186.669375 183.9225 -186.40125 183.345 -186.125 182.75 C-184.54006789 179.74697074 -182.44882464 177.76019217 -179.9375 175.5 C-179.2775 175.5 -178.6175 175.5 -177.9375 175.5 C-177.6075 174.84 -177.2775 174.18 -176.9375 173.5 C-175.48250864 172.27648454 -174.02524329 171.0554486 -172.55078125 169.85546875 C-170.19827516 167.87890795 -168.08136113 165.69883193 -165.9375 163.5 C-164.27083333 161.83333333 -162.60416667 160.16666667 -160.9375 158.5 C-160.133125 157.654375 -159.32875 156.80875 -158.5 155.9375 C-155.78170774 153.35180736 -153.10529821 151.4890826 -149.9375 149.5 C-150.246875 148.88125 -150.55625 148.2625 -150.875 147.625 C-158.19047327 126.10890214 -152.39284177 97.46472163 -142.9375 77.5 C-141.05855909 73.94271686 -139.91792515 71.82680838 -135.9375 70.5 C-135.9375 69.84 -135.9375 69.18 -135.9375 68.5 C-134.9475 68.5 -133.9575 68.5 -132.9375 68.5 C-132.9375 67.51 -132.9375 66.52 -132.9375 65.5 C-132.2775 65.5 -131.6175 65.5 -130.9375 65.5 C-130.4425 64.015 -130.4425 64.015 -129.9375 62.5 C-129.2775 62.5 -128.6175 62.5 -127.9375 62.5 C-127.9375 61.84 -127.9375 61.18 -127.9375 60.5 C-127.2775 60.5 -126.6175 60.5 -125.9375 60.5 C-124.20087666 57.27484237 -123.0469072 53.98670834 -121.9375 50.5 C-119.2975 50.17 -116.6575 49.84 -113.9375 49.5 C-113.8446875 48.63375 -113.8446875 48.63375 -113.75 47.75 C-112.6150227 44.60698594 -110.56378394 43.50097824 -107.9375 41.5 C-107.463125 40.79875 -106.98875 40.0975 -106.5 39.375 C-103.65906162 35.96587394 -99.12186613 35.46562295 -94.9375 34.5 C-94.9375 33.84 -94.9375 33.18 -94.9375 32.5 C-93.968125 32.04625 -92.99875 31.5925 -92 31.125 C-88.86670418 29.84213779 -88.86670418 29.84213779 -87.9375 27.5 C-85.8984375 26.7890625 -85.8984375 26.7890625 -83.3125 26.125 C-80.00808761 25.19901246 -77.17723897 24.23118401 -74.25 22.4375 C-70.81580203 20.42881817 -67.76437287 19.52505523 -63.9375 18.5 C-62.82375 18.005 -61.71 17.51 -60.5625 17 C-57.00241892 15.526863 -53.72181262 14.7191483 -49.953125 14.02734375 C-47.64506713 13.54051719 -47.64506713 13.54051719 -44.9375 11.5 C-43.6175 11.5 -42.2975 11.5 -40.9375 11.5 C-40.6075 10.51 -40.2775 9.52 -39.9375 8.5 C-38.046875 7.83984375 -38.046875 7.83984375 -35.6875 7.4375 C-33.05574431 6.94016034 -30.85823619 6.46713452 -28.375 5.4375 C-25.5151754 4.33756746 -22.87858537 4.09850613 -19.84765625 3.78125 C-17.36208542 3.41527638 -15.25554723 2.45099374 -12.9375 1.5 C-10.60932036 1.13239269 -8.2756615 0.79758419 -5.9375 0.5 C-5.215625 0.29375 -4.49375 0.0875 -3.75 -0.125 C-1.9375 -0.5 -1.9375 -0.5 0 0 Z M-18.9375 21.5 C-18.9375 22.49 -18.9375 23.48 -18.9375 24.5 C-17.9475 24.17 -16.9575 23.84 -15.9375 23.5 C-16.5975 23.5 -17.2575 23.5 -17.9375 23.5 C-18.2675 22.84 -18.5975 22.18 -18.9375 21.5 Z M50.0625 34.5 C50.0625 35.16 50.0625 35.82 50.0625 36.5 C52.0425 36.5 54.0225 36.5 56.0625 36.5 C55.4025 35.84 54.7425 35.18 54.0625 34.5 C52.7425 34.5 51.4225 34.5 50.0625 34.5 Z M56.0625 37.5 C56.7225 38.16 57.3825 38.82 58.0625 39.5 C58.0625 38.84 58.0625 38.18 58.0625 37.5 C57.4025 37.5 56.7425 37.5 56.0625 37.5 Z M60.0625 43.5 C60.0625 45.15 60.0625 46.8 60.0625 48.5 C61.3825 47.84 62.7025 47.18 64.0625 46.5 C62.7425 45.51 61.4225 44.52 60.0625 43.5 Z M6.0625 48.5 C5.0725 48.995 5.0725 48.995 4.0625 49.5 C4.0625 50.16 4.0625 50.82 4.0625 51.5 C5.0525 51.17 6.0425 50.84 7.0625 50.5 C6.7325 49.84 6.4025 49.18 6.0625 48.5 Z M-114.9375 57.5 C-116.31312854 58.78965176 -117.64516393 60.12689293 -118.9375 61.5 C-118.9375 62.16 -118.9375 62.82 -118.9375 63.5 C-117.2875 62.84 -115.6375 62.18 -113.9375 61.5 C-114.2675 60.18 -114.5975 58.86 -114.9375 57.5 Z M-44.9375 57.5 C-46.9175 58.49 -46.9175 58.49 -48.9375 59.5 C-48.6075 60.49 -48.2775 61.48 -47.9375 62.5 C-46.6175 61.84 -45.2975 61.18 -43.9375 60.5 C-44.2675 59.51 -44.5975 58.52 -44.9375 57.5 Z M-132.9375 111.5 C-133.73373822 113.59415804 -133.73373822 113.59415804 -133.9375 115.5 C-132.10049211 116.27242269 -132.10049211 116.27242269 -129.9375 116.5 C-128.00095052 115.48029682 -128.00095052 115.48029682 -126.9375 113.5 C-127.16793864 110.84533951 -127.16793864 110.84533951 -127.9375 108.5 C-130.0395815 108.5 -131.44653794 110.1954082 -132.9375 111.5 Z M-104.9375 124.5 C-103.9375 126.5 -103.9375 126.5 -103.9375 126.5 Z M18.0625 123.5 C17.38445312 124.11746094 16.70640625 124.73492187 16.0078125 125.37109375 C12.6624581 127.78915496 9.9306096 128.58329796 5.9375 129.5625 C0.3298356 130.9080734 0.3298356 130.9080734 -3.9375 134.5 C-5.60416667 134.5 -7.27083333 134.5 -8.9375 134.5 C-10.3962688 135.79078411 -10.3962688 135.79078411 -11.9375 137.5 C-13.1342742 138.16700948 -14.34405926 138.81094409 -15.5625 139.4375 C-19.03059979 141.10332878 -19.03059979 141.10332878 -19.875 143.75 C-19.895625 144.3275 -19.91625 144.905 -19.9375 145.5 C-20.5975 145.5 -21.2575 145.5 -21.9375 145.5 C-22.2675 147.48 -22.5975 149.46 -22.9375 151.5 C-24.89893041 151.29905835 -26.85681791 151.06328747 -28.8125 150.8125 C-29.90304688 150.68488281 -30.99359375 150.55726563 -32.1171875 150.42578125 C-34.9375 149.5 -34.9375 149.5 -36.3203125 146.91796875 C-36.52398437 146.12003906 -36.72765625 145.32210937 -36.9375 144.5 C-47.08036558 145.58811632 -47.08036558 145.58811632 -54.9375 151.5 C-48.4563395 154.96666725 -42.19508326 155.19308727 -34.9375 155.5 C-34.18984375 155.56445312 -33.4421875 155.62890625 -32.671875 155.6953125 C-27.64653241 156.00173583 -23.92177562 154.53191656 -19.421875 152.5546875 C-17.20112338 151.61191559 -15.07073748 150.94939412 -12.75 150.3125 C-8.10245954 148.81924693 -4.05186661 146.41762145 0.125 143.9375 C0.80522217 143.53700439 1.48544434 143.13650879 2.1862793 142.72387695 C3.8500002 141.70957885 5.46195392 140.6113146 7.0625 139.5 C7.0625 138.84 7.0625 138.18 7.0625 137.5 C7.64 137.2525 8.2175 137.005 8.8125 136.75 C13.1018157 134.36704684 16.29193463 130.50192775 19.0625 126.5 C18.5675 125.015 18.5675 125.015 18.0625 123.5 Z M92.0625 136.5 C89.38573453 137.87249963 89.38573453 137.87249963 87.0625 139.5 C87.3925 140.16 87.7225 140.82 88.0625 141.5 C90.3725 140.18 92.6825 138.86 95.0625 137.5 C94.0725 137.17 93.0825 136.84 92.0625 136.5 Z M-61.9375 155.5 C-62.5975 156.82 -63.2575 158.14 -63.9375 159.5 C-61.9575 159.5 -59.9775 159.5 -57.9375 159.5 C-58.5975 158.18 -59.2575 156.86 -59.9375 155.5 C-60.5975 155.5 -61.2575 155.5 -61.9375 155.5 Z M-53.9375 160.5 C-52.9375 162.5 -52.9375 162.5 -52.9375 162.5 Z M-46.9375 161.5 C-46.9375 162.49 -46.9375 163.48 -46.9375 164.5 C-46.2775 165.16 -45.6175 165.82 -44.9375 166.5 C-42.33469432 166.17958603 -42.33469432 166.17958603 -39.9375 165.5 C-43.03077895 162.52324541 -43.03077895 162.52324541 -46.9375 161.5 Z M4.0625 177.5 C3.7325 178.82 3.4025 180.14 3.0625 181.5 C6.67242379 180.84414811 6.67242379 180.84414811 10.0625 179.5 C10.0625 178.84 10.0625 178.18 10.0625 177.5 C8.0825 177.5 6.1025 177.5 4.0625 177.5 Z M-76.9375 179.5 C-76.6075 180.16 -76.2775 180.82 -75.9375 181.5 C-75.6075 180.84 -75.2775 180.18 -74.9375 179.5 C-75.5975 179.5 -76.2575 179.5 -76.9375 179.5 Z M-80.9375 180.5 C-83.43302484 181.28130071 -83.43302484 181.28130071 -85.9375 182.5 C-86.2675 183.49 -86.5975 184.48 -86.9375 185.5 C-83.39231116 184.10240095 -83.39231116 184.10240095 -79.9375 182.5 C-80.2675 181.84 -80.5975 181.18 -80.9375 180.5 Z M-103.9375 187.5 C-101.07572943 188.93088528 -99.00374227 188.09991697 -95.9375 187.5 C-95.9375 186.84 -95.9375 186.18 -95.9375 185.5 C-98.82145737 185.5 -101.23227815 186.55905327 -103.9375 187.5 Z M-133.9375 192.5 C-133.9375 193.16 -133.9375 193.82 -133.9375 194.5 C-132.9475 194.17 -131.9575 193.84 -130.9375 193.5 C-131.9275 193.17 -132.9175 192.84 -133.9375 192.5 Z M-54 196.9375 C-59.18535758 199.69566893 -65.13557579 199.68715885 -70.9375 199.5 C-71.2675 200.82 -71.5975 202.14 -71.9375 203.5 C-71.34582031 203.48839844 -70.75414062 203.47679687 -70.14453125 203.46484375 C-65.89632148 203.41633238 -62.10593985 203.61578549 -57.9375 204.5 C-57.2775 204.17 -56.6175 203.84 -55.9375 203.5 C-55.9375 202.84 -55.9375 202.18 -55.9375 201.5 C-55.339375 201.685625 -54.74125 201.87125 -54.125 202.0625 C-51.77341238 202.72093687 -51.77341238 202.72093687 -48.9375 201.5 C-49.2675 199.52 -49.5975 197.54 -49.9375 195.5 C-52.08303781 195.30940245 -52.08303781 195.30940245 -54 196.9375 Z M-69.9375 207.5 C-69.9375 208.16 -69.9375 208.82 -69.9375 209.5 C-70.5975 209.5 -71.2575 209.5 -71.9375 209.5 C-70.6285428 212.62197478 -70.6285428 212.62197478 -67.9375 214.5 C-66.89300089 211.36650268 -67.00326355 210.51031744 -67.9375 207.5 C-68.5975 207.5 -69.2575 207.5 -69.9375 207.5 Z M-73.9375 209.5 C-74.2675 210.16 -74.5975 210.82 -74.9375 211.5 C-74.2775 211.5 -73.6175 211.5 -72.9375 211.5 C-73.2675 210.84 -73.5975 210.18 -73.9375 209.5 Z " fill="#0A0706" transform="translate(273.9375,85.5)"/>
<path d="M0 0 C3.32618858 1.15398379 3.72936788 1.56224558 5.4375 4.4375 C7.0625 8.0625 7.0625 8.0625 7.0625 11.0625 C8.0525 11.7225 9.0425 12.3825 10.0625 13.0625 C10.5575 14.5475 10.5575 14.5475 11.0625 16.0625 C10.588125 16.475 10.11375 16.8875 9.625 17.3125 C7.83792925 19.31401924 7.46168738 20.43418705 7.0625 23.0625 C7.76303467 24.94662458 8.47147765 26.82839696 9.22998047 28.68994141 C10.82375345 33.2319607 11.3876974 38.00759688 12.125 42.75 C12.44401699 44.77556568 12.76806557 46.80034668 13.09765625 48.82421875 C13.2356665 49.71069092 13.37367676 50.59716309 13.51586914 51.51049805 C14.08919586 54.18713237 15.04706833 56.52696737 16.0625 59.0625 C16.041875 59.92875 16.02125 60.795 16 61.6875 C15.82035733 64.14942618 15.82035733 64.14942618 17.5625 65.875 C18.0575 66.266875 18.5525 66.65875 19.0625 67.0625 C17.71455171 73.55715992 17.71455171 73.55715992 14.5625 76 C12.0625 77.0625 12.0625 77.0625 10.0625 77.0625 C8.93152238 72.07124342 8.71555509 67.12143929 8.44140625 62.0234375 C8.26219364 58.88039205 8.26219364 58.88039205 6.0625 56.0625 C6.0625 54.7425 6.0625 53.4225 6.0625 52.0625 C5.4025 52.0625 4.7425 52.0625 4.0625 52.0625 C3.86140625 51.0415625 3.86140625 51.0415625 3.65625 50 C2.98546274 46.6813683 2.27580799 43.37224907 1.5625 40.0625 C1.05975363 37.72975686 0.55954788 35.39646398 0.0625 33.0625 C-0.16308594 32.15113281 -0.38867188 31.23976563 -0.62109375 30.30078125 C-1.07128623 27.11608627 0.24694549 25.60427631 2.0625 23.0625 C0.0825 23.7225 -1.8975 24.3825 -3.9375 25.0625 C-3.9375 25.7225 -3.9375 26.3825 -3.9375 27.0625 C-4.9275 27.0625 -5.9175 27.0625 -6.9375 27.0625 C-7.040625 27.743125 -7.14375 28.42375 -7.25 29.125 C-7.91949416 31.98556597 -8.97660175 34.42867476 -10.1796875 37.09765625 C-11.29038333 39.97745009 -11.84546597 42.92140327 -12.41015625 45.94921875 C-12.98582091 48.25614157 -13.65454714 50.05650842 -14.9375 52.0625 C-18.0625 52.8125 -18.0625 52.8125 -20.9375 53.0625 C-22.0625 47.3125 -22.0625 47.3125 -20.9375 45.0625 C-21.9275 45.0625 -22.9175 45.0625 -23.9375 45.0625 C-24.4325 46.0525 -24.4325 46.0525 -24.9375 47.0625 C-26.2575 47.0625 -27.5775 47.0625 -28.9375 47.0625 C-28.9375 47.7225 -28.9375 48.3825 -28.9375 49.0625 C-30.0821875 49.495625 -30.0821875 49.495625 -31.25 49.9375 C-34.08779308 51.02519013 -34.08779308 51.02519013 -36.9375 53.0625 C-37.5975 52.7325 -38.2575 52.4025 -38.9375 52.0625 C-38.9375 52.7225 -38.9375 53.3825 -38.9375 54.0625 C-39.5975 54.0625 -40.2575 54.0625 -40.9375 54.0625 C-40.9375 54.7225 -40.9375 55.3825 -40.9375 56.0625 C-44.82478549 57.86392498 -46.45288873 58.21034751 -50.625 56.9375 C-53.81004394 55.13464494 -55.29088181 54.26425759 -56.9375 51.0625 C-58.27733624 46.14976711 -57.70557532 42.01231871 -56.9375 37.0625 C-57.4634375 38.795 -57.4634375 38.795 -58 40.5625 C-59.62820186 44.99089443 -62.17244346 47.9292239 -65.4140625 51.30078125 C-67.15948883 53.09290551 -67.15948883 53.09290551 -67.9375 56.0625 C-69.27083333 56.39583333 -70.60416667 56.72916667 -71.9375 57.0625 C-72.2675 58.0525 -72.5975 59.0425 -72.9375 60.0625 C-74.5834651 61.74961423 -76.24987149 63.4170622 -77.9375 65.0625 C-78.2675 65.7225 -78.5975 66.3825 -78.9375 67.0625 C-80.2575 67.0625 -81.5775 67.0625 -82.9375 67.0625 C-83.040625 67.59875 -83.14375 68.135 -83.25 68.6875 C-85.16559118 75.30499682 -88.5225431 78.78390687 -93.68359375 83.1328125 C-95.97791901 85.04388401 -95.97791901 85.04388401 -98.09765625 87.2421875 C-100.61803634 89.73581196 -101.45967179 90.05294344 -105.0625 90.125 C-106.01125 90.104375 -106.96 90.08375 -107.9375 90.0625 C-109.0625 87.25 -109.0625 87.25 -109.9375 84.0625 C-107.9375 81.0625 -107.9375 81.0625 -105.0625 80.375 C-101.50653026 78.88149271 -101.2881381 78.33758152 -99.75 75 C-99.46769531 74.28714844 -99.18539062 73.57429688 -98.89453125 72.83984375 C-97.9375 71.0625 -97.9375 71.0625 -94.9375 70.0625 C-95.07027344 69.34964844 -95.20304687 68.63679688 -95.33984375 67.90234375 C-95.51644531 66.94457031 -95.69304687 65.98679687 -95.875 65 C-96.06191406 63.99710937 -96.24882813 62.99421875 -96.44140625 61.9609375 C-96.82893538 59.69679095 -97.09471672 57.41172448 -97.3125 55.125 C-97.7529385 52.04423108 -97.7529385 52.04423108 -99.4375 49.6875 C-103.07558764 47.32274303 -106.67217611 47.2447788 -110.9375 47.0625 C-110.9375 46.0725 -110.9375 45.0825 -110.9375 44.0625 C-104.10519076 38.18353624 -94.87031187 33.45721412 -85.9375 32.0625 C-85.6075 31.0725 -85.2775 30.0825 -84.9375 29.0625 C-81.89363276 28.98023332 -79.86574652 29.08641783 -76.9375 30.0625 C-76.339375 29.19625 -75.74125 28.33 -75.125 27.4375 C-71.9375 25.0625 -71.9375 25.0625 -69.296875 25.0703125 C-61.90921118 26.31475854 -61.90921118 26.31475854 -58.78515625 28.71875 C-58.17542969 29.1621875 -57.56570312 29.605625 -56.9375 30.0625 C-55.9475 29.7325 -54.9575 29.4025 -53.9375 29.0625 C-53.9375 27.0825 -53.9375 25.1025 -53.9375 23.0625 C-56.4125 22.0725 -56.4125 22.0725 -58.9375 21.0625 C-57.69118556 17.21969715 -56.57701308 14.98930104 -52.9375 13.0625 C-50.6875 13.375 -50.6875 13.375 -48.9375 14.0625 C-48.6075 13.0725 -48.2775 12.0825 -47.9375 11.0625 C-45.98739061 10.56670948 -44.0335156 10.08054338 -42.0625 9.67578125 C-39.61388014 9.09476677 -39.61388014 9.09476677 -36.75 6.8125 C-33.9375 5.0625 -33.9375 5.0625 -31.1875 5.5625 C-28.68846117 7.22852589 -27.80435063 8.20189291 -26.9375 11.0625 C-27.99193621 14.22580864 -28.32375708 15.12327138 -30.9375 17.0625 C-35.9033299 18.55224897 -40.80082043 19.42041505 -45.9375 20.0625 C-47.01275194 22.71478812 -48.03206151 25.34618454 -48.9375 28.0625 C-48.2775 28.0625 -47.6175 28.0625 -46.9375 28.0625 C-47.06318359 29.05830078 -47.06318359 29.05830078 -47.19140625 30.07421875 C-47.97421119 36.60772361 -47.97421119 36.60772361 -46.9375 43.0625 C-46.9375 43.3925 -46.9375 43.7225 -46.9375 44.0625 C-46.380625 43.7325 -45.82375 43.4025 -45.25 43.0625 C-42.9375 42.0625 -42.9375 42.0625 -40.5 42.1875 C-37.74318352 42.30812448 -37.74318352 42.30812448 -35.5 40.0625 C-32.35702565 37.60944685 -30.82396471 37.80903491 -26.9375 38.0625 C-25.9475 37.7325 -24.9575 37.4025 -23.9375 37.0625 C-22.9475 39.5375 -22.9475 39.5375 -21.9375 42.0625 C-20.9475 41.0725 -20.9475 41.0725 -19.9375 40.0625 C-20.2560177 37.95429203 -20.2560177 37.95429203 -20.9375 36.0625 C-20.2775 36.0625 -19.6175 36.0625 -18.9375 36.0625 C-18.9375 34.7425 -18.9375 33.4225 -18.9375 32.0625 C-18.2775 32.0625 -17.6175 32.0625 -16.9375 32.0625 C-16.98390625 31.44761719 -17.0303125 30.83273437 -17.078125 30.19921875 C-17.11421875 29.39097656 -17.1503125 28.58273437 -17.1875 27.75 C-17.23390625 26.94949219 -17.2803125 26.14898437 -17.328125 25.32421875 C-16.79836943 22.256934 -15.37752027 21.87534808 -12.9375 20.0625 C-11.92242084 17.48740452 -11.92242084 17.48740452 -11.375 14.625 C-10.50170504 10.63821867 -9.48071071 8.23982691 -6.9375 5.0625 C-6.6075 4.0725 -6.2775 3.0825 -5.9375 2.0625 C-2.9375 0.0625 -2.9375 0.0625 0 0 Z M-78.0703125 35.58984375 C-79.9375 36.0625 -79.9375 36.0625 -82.9375 36.0625 C-82.9375 36.7225 -82.9375 37.3825 -82.9375 38.0625 C-83.68 38.18625 -84.4225 38.31 -85.1875 38.4375 C-88.74683584 39.24643996 -91.06597728 39.91367459 -93.3125 42.875 C-94.18284321 45.92120123 -93.22140894 47.17370489 -91.9375 50.0625 C-91.47600872 52.39424541 -91.06623272 54.72637267 -90.6953125 57.07421875 C-90.09566567 59.25533471 -90.09566567 59.25533471 -87.8671875 60.33203125 C-86.91199219 60.69361328 -86.91199219 60.69361328 -85.9375 61.0625 C-81.65679002 57.28656041 -81.65679002 57.28656041 -79.9375 52.0625 C-79.2775 52.0625 -78.6175 52.0625 -77.9375 52.0625 C-77.5971875 51.134375 -77.5971875 51.134375 -77.25 50.1875 C-75.9375 48.0625 -75.9375 48.0625 -73.625 47.3125 C-69.63918297 45.45863161 -67.60882069 42.08162832 -65.9375 38.0625 C-66.2675 37.0725 -66.5975 36.0825 -66.9375 35.0625 C-71.11361458 33.75746419 -74.00287615 34.39493541 -78.0703125 35.58984375 Z " fill="#0C0807" transform="translate(206.9375,307.9375)"/>
<path d="M0 0 C1.65 0.33 3.3 0.66 5 1 C6.34070898 5.02212693 6.02286669 8.68488632 5.9375 12.89453125 C5.92031851 15.96917677 5.92031851 15.96917677 6.49609375 18.83203125 C7.13895923 22.87361188 7.10748895 26.7913876 7.0625 30.875 C7.05798828 31.65875 7.05347656 32.4425 7.04882812 33.25 C7.03714093 35.16670014 7.01920908 37.08336048 7 39 C7.66 39.33 8.32 39.66 9 40 C7.09343519 42.07235306 5.6693647 42.96375281 2.8359375 43.1171875 C-3.30009705 42.65748459 -3.30009705 42.65748459 -6.0625 40.0625 C-7 38 -7 38 -7 36 C-7.598125 35.71125 -8.19625 35.4225 -8.8125 35.125 C-11 34 -11 34 -14 32 C-13.89171875 33.45019531 -13.89171875 33.45019531 -13.78125 34.9296875 C-12.24640135 56.46020322 -12.24640135 56.46020322 -15 63 C-17.64 63 -20.28 63 -23 63 C-22.505 64.485 -22.505 64.485 -22 66 C-29.28571429 69.42857143 -29.28571429 69.42857143 -34 69 C-34.33 70.98 -34.66 72.96 -35 75 C-37.475 75.495 -37.475 75.495 -40 76 C-40 76.66 -40 77.32 -40 78 C-40.969375 78.28875 -41.93875 78.5775 -42.9375 78.875 C-46.10664203 79.64214682 -46.10664203 79.64214682 -47 82 C-49.06640625 82.8515625 -49.06640625 82.8515625 -51.5625 83.625 C-52.80193359 84.01558594 -52.80193359 84.01558594 -54.06640625 84.4140625 C-54.70449219 84.60742188 -55.34257812 84.80078125 -56 85 C-56 84.34 -56 83.68 -56 83 C-56.99 82.67 -57.98 82.34 -59 82 C-60.5991853 75.1235032 -59.22968995 68.86436512 -58 62 C-57.66480531 60.00031112 -57.33089406 58.00040502 -57 56 C-56.34 56 -55.68 56 -55 56 C-55.66 55.01 -56.32 54.02 -57 53 C-57.37125 51.7315625 -57.37125 51.7315625 -57.75 50.4375 C-58.83684116 47.67412933 -58.83684116 47.67412933 -62.125 46.6875 C-63.548125 46.3471875 -63.548125 46.3471875 -65 46 C-65 44.02 -65 42.04 -65 40 C-64.38125 39.7525 -63.7625 39.505 -63.125 39.25 C-60.85708859 38.18539778 -60.85708859 38.18539778 -60.0625 36 C-58.57975276 33.20894638 -56.93260038 33.10787125 -54 32 C-52.83740149 31.16879639 -51.69250269 30.31250208 -50.5625 29.4375 C-48.01909998 27.52442085 -47.08594563 27.01179646 -43.8125 26.5625 C-40.66196745 26.26102523 -40.66196745 26.26102523 -38.75 22.9375 C-37.88375 21.4834375 -37.88375 21.4834375 -37 20 C-36.34 20 -35.68 20 -35 20 C-34.67 19.01 -34.34 18.02 -34 17 C-24.03744364 15.39482454 -24.03744364 15.39482454 -20 17.75 C-18.88023481 19.00973583 -17.76317508 20.27193559 -16.65625 21.54296875 C-14.67665745 23.28444994 -13.02102774 23.82720024 -10.5 24.5625 C-7.4741534 25.45512475 -5.6873471 26.20843526 -3 28 C-2.80341192 26.58456585 -2.61812454 25.16755969 -2.4375 23.75 C-2.33308594 22.96109375 -2.22867188 22.1721875 -2.12109375 21.359375 C-1.99835425 18.96793449 -2.30223174 17.2749157 -3 15 C-4.22648084 10.54006969 -4.22648084 10.54006969 -3.1875 8.0625 C-2.795625 7.381875 -2.40375 6.70125 -2 6 C-1.31039038 4.00779443 -0.63920943 2.00894394 0 0 Z M-28 25 C-28.33 26.32 -28.66 27.64 -29 29 C-30.11375 29 -31.2275 29 -32.375 29 C-37.62474914 29.61542352 -40.73402179 32.60232603 -44.60546875 35.9921875 C-47 38 -47 38 -49.75 39.55859375 C-52.35163027 40.86418241 -52.35163027 40.86418241 -52.8125 44.1875 C-52.874375 45.115625 -52.93625 46.04375 -53 47 C-51.515 47.99 -51.515 47.99 -50 49 C-49.54625 48.278125 -49.0925 47.55625 -48.625 46.8125 C-45.04017047 42.97161121 -40.86740394 40.90958251 -36 39 C-35.01 39 -34.02 39 -33 39 C-32.34 38.67 -31.68 38.34 -31 38 C-31.27012353 42.59210009 -33.1747131 44.65498287 -36.38671875 47.65234375 C-38.4638703 49.38749456 -40.61883652 50.71783505 -43 52 C-43.845625 52.53625 -44.69125 53.0725 -45.5625 53.625 C-47.79379093 54.88367693 -49.53272916 55.44708095 -52 56 C-51.9278125 56.89203125 -51.855625 57.7840625 -51.78125 58.703125 C-51.6884375 59.87359375 -51.595625 61.0440625 -51.5 62.25 C-51.4071875 63.41015625 -51.314375 64.5703125 -51.21875 65.765625 C-51.05595356 68.17268658 -51 70.58743951 -51 73 C-49.02 72.505 -49.02 72.505 -47 72 C-47 71.34 -47 70.68 -47 70 C-46.195625 69.87625 -45.39125 69.7525 -44.5625 69.625 C-43.716875 69.41875 -42.87125 69.2125 -42 69 C-41.67 68.34 -41.34 67.68 -41 67 C-40.38125 66.71125 -39.7625 66.4225 -39.125 66.125 C-36.60172687 64.78914952 -35.50246625 63.403946 -34 61 C-34 60.34 -34 59.68 -34 59 C-33.34 59 -32.68 59 -32 59 C-32 58.34 -32 57.68 -32 57 C-30.515 57.495 -30.515 57.495 -29 58 C-29 57.34 -29 56.68 -29 56 C-26.36 56.33 -23.72 56.66 -21 57 C-20.12964977 52.01526687 -19.57400669 48.44202031 -21.4375 43.6875 C-23.30337364 38.90883719 -23.20244074 34.58370338 -23.0078125 29.50390625 C-22.81220614 27.00058594 -22.81220614 27.00058594 -24 25 C-25.32 25 -26.64 25 -28 25 Z M-49 36 C-48.67 36.66 -48.34 37.32 -48 38 C-47.67 37.34 -47.34 36.68 -47 36 C-47.66 36 -48.32 36 -49 36 Z " fill="#0C0907" transform="translate(352,260)"/>
<path d="M0 0 C0.495 0.99 0.495 0.99 1 2 C3.11846285 2.68729254 3.11846285 2.68729254 5.5625 3.125 C6.38878906 3.29257813 7.21507812 3.46015625 8.06640625 3.6328125 C8.70449219 3.75398437 9.34257812 3.87515625 10 4 C10.23113755 8.7383197 9.36512542 12.47802204 8 17 C8 17.99 8 18.98 8 20 C7.34 20 6.68 20 6 20 C6 21.98 6 23.96 6 26 C5.34 26 4.68 26 4 26 C3.855625 26.61875 3.71125 27.2375 3.5625 27.875 C3 30 3 30 2 32 C1.195625 32.12375 0.39125 32.2475 -0.4375 32.375 C-1.283125 32.58125 -2.12875 32.7875 -3 33 C-4.58344295 35.67465458 -5.67400378 38.57396768 -6.875 41.4375 C-8.48881512 45.08664912 -10.19550342 48.1020202 -13 51 C-13.66 51 -14.32 51 -15 51 C-15.0928125 52.3921875 -15.0928125 52.3921875 -15.1875 53.8125 C-16 57 -16 57 -18.3125 58.9375 C-21 60 -21 60 -23.25 59.875 C-25 59 -25 59 -26 56 C-26.20329268 54.17036589 -26.36472196 52.33591632 -26.5 50.5 C-26.58636719 49.43265625 -26.67273438 48.3653125 -26.76171875 47.265625 C-26.91285674 45.19429122 -27.04300846 43.1212326 -27.14453125 41.046875 C-27.48185968 35.42996438 -28.42342328 31.60123456 -31.21484375 26.71875 C-32.34358611 24.24787121 -31.81459327 22.51783375 -31 20 C-31.33 19.34 -31.66 18.68 -32 18 C-34.52733235 17.34444881 -34.52733235 17.34444881 -37 17 C-37 16.01 -37 15.02 -37 14 C-36.01 13.67 -35.02 13.34 -34 13 C-33.38125 12.195625 -32.7625 11.39125 -32.125 10.5625 C-29.79539966 7.75327606 -28.48192511 6.93417503 -25 6 C-22.1875 5.875 -22.1875 5.875 -20 6 C-18.64560332 8.70879335 -18.93498549 11.00933268 -19 14 C-20.65 14.66 -22.3 15.32 -24 16 C-22.17571042 22.42597118 -22.17571042 22.42597118 -19.875 28.6875 C-18.71919387 31.7421305 -18.38026654 34.7677344 -18 38 C-15.03348661 38.33093697 -15.03348661 38.33093697 -13.46484375 36.64453125 C-9.9419808 32.41889769 -7.50625885 28.96523038 -6.5625 23.4375 C-5.90386934 20.58343379 -5.06950214 19.06950214 -3 17 C-1.68 17 -0.36 17 1 17 C1 15.35 1 13.7 1 12 C0.4225 11.855625 -0.155 11.71125 -0.75 11.5625 C-2.21598135 11.19600466 -3.67530377 10.80138125 -5.125 10.375 C-7.08039699 9.7843899 -7.08039699 9.7843899 -9 11 C-12.0625 11.125 -12.0625 11.125 -15 11 C-16 10 -16 10 -16.0625 7.4375 C-16.041875 6.633125 -16.02125 5.82875 -16 5 C-15.195625 4.87625 -14.39125 4.7525 -13.5625 4.625 C-12.716875 4.41875 -11.87125 4.2125 -11 4 C-10.67 3.34 -10.34 2.68 -10 2 C-7.71484375 1.3671875 -7.71484375 1.3671875 -4.9375 0.875 C-4.01839844 0.70742187 -3.09929687 0.53984375 -2.15234375 0.3671875 C-1.44207031 0.24601563 -0.73179687 0.12484375 0 0 Z " fill="#0C0907" transform="translate(394,239)"/>
<path d="M0 0 C0.99 0.99 1.98 1.98 3 3 C1.875 5.5 1.875 5.5 0 8 C-3.1875 8.3125 -3.1875 8.3125 -6 8 C-6.33 8.99 -6.66 9.98 -7 11 C-8.98 11 -10.96 11 -13 11 C-13 11.99 -13 12.98 -13 14 C-13.061875 14.825 -13.12375 15.65 -13.1875 16.5 C-13.28264578 19.05584958 -13.28264578 19.05584958 -11.5 20.375 C-9.13609712 22.93589479 -9.94349334 25.6096005 -10 29 C-9.48134882 31.40635458 -8.76577395 33.65481728 -8 36 C-6.515 35.505 -6.515 35.505 -5 35 C-5 34.01 -5 33.02 -5 32 C-3.8143738 30.88212387 -2.62798634 29.76504263 -1.4375 28.65234375 C3.3416634 23.15890321 7.41670126 14.29227206 7 7 C6.34 6.67 5.68 6.34 5 6 C4.375 3.4375 4.375 3.4375 4 1 C6.61330172 -0.00511605 8.14442643 0.02458322 10.9375 0.5 C14.9856076 2.48274658 17.13165099 4.90334484 19 9 C19.10014956 14.00747781 17.15625077 16.30267767 14 20 C13.2885738 21.17332232 12.60170781 22.36181666 11.9375 23.5625 C10 27 10 27 8.3125 29.1875 C6.87202971 30.93163368 6.87202971 30.93163368 6.5 33.125 C6 35 6 35 3 37 C1.68 37 0.36 37 -1 37 C-1.33 37.99 -1.66 38.98 -2 40 C-2.66 40 -3.32 40 -4 40 C-4.0928125 40.86625 -4.0928125 40.86625 -4.1875 41.75 C-5.4024873 45.1145802 -6.91431692 46.22737355 -10 48 C-12.83199322 48.03671102 -15.19618506 47.57026744 -18 47 C-17.95875 46.13375 -17.9175 45.2675 -17.875 44.375 C-17.81282072 41.063724 -17.81282072 41.063724 -19.00390625 38.421875 C-20.33777907 33.83962954 -20.17636516 29.61593119 -20.0625 24.875 C-20.02795414 23.10164611 -19.99784064 21.32819904 -19.97265625 19.5546875 C-19.94570679 18.38655518 -19.94570679 18.38655518 -19.91821289 17.19482422 C-20.00157805 14.95765178 -20.2591354 13.11319077 -21 11 C-21.66 10.67 -22.32 10.34 -23 10 C-23 8.68 -23 7.36 -23 6 C-20.525 6.495 -20.525 6.495 -18 7 C-17.814375 6.0409375 -17.814375 6.0409375 -17.625 5.0625 C-17.41875 4.381875 -17.2125 3.70125 -17 3 C-14.29120665 1.64560332 -11.99066732 1.93498549 -9 2 C-9 2.66 -9 3.32 -9 4 C-6.13275314 3.42655063 -5.1385485 3.1385485 -3 1 C-2.01 0.67 -1.02 0.34 0 0 Z " fill="#0C0907" transform="translate(246,301)"/>
<path d="M0 0 C2 2 2 2 2.22705078 4.79736328 C2.21657715 5.95993652 2.20610352 7.12250977 2.1953125 8.3203125 C2.18886719 9.57714844 2.18242187 10.83398438 2.17578125 12.12890625 C2.15902344 13.44761719 2.14226562 14.76632813 2.125 16.125 C2.11496983 17.46483721 2.10584404 18.80468152 2.09765625 20.14453125 C2.07402075 23.42986573 2.04107234 26.71484465 2 30 C1.01 30 0.02 30 -1 30 C-1.02465746 25.8882744 -1.04283959 21.77657722 -1.05493164 17.66479492 C-1.0599708 16.26504772 -1.06680216 14.8653058 -1.07543945 13.46557617 C-1.0875232 11.45754223 -1.09269807 9.44947043 -1.09765625 7.44140625 C-1.10289307 6.23170166 -1.10812988 5.02199707 -1.11352539 3.77563477 C-1 1 -1 1 0 0 Z " fill="#030302" transform="translate(249,195)"/>
<path d="M0 0 C2 2 2 2 2.22705078 4.06298828 C2.21657715 4.89040527 2.20610352 5.71782227 2.1953125 6.5703125 C2.18886719 7.46621094 2.18242187 8.36210937 2.17578125 9.28515625 C2.15902344 10.22230469 2.14226562 11.15945312 2.125 12.125 C2.11597656 13.06988281 2.10695313 14.01476562 2.09765625 14.98828125 C2.07404522 17.32577292 2.04111516 19.66276123 2 22 C1.01 22 0.02 22 -1 22 C-1.02887814 18.52085059 -1.04675687 15.04173169 -1.0625 11.5625 C-1.07087891 10.56927734 -1.07925781 9.57605469 -1.08789062 8.55273438 C-1.09111328 7.60849609 -1.09433594 6.66425781 -1.09765625 5.69140625 C-1.10289307 4.81685791 -1.10812988 3.94230957 -1.11352539 3.04125977 C-1 1 -1 1 0 0 Z " fill="#030302" transform="translate(333,227)"/>
<path d="M0 0 C2 2 2 2 2.22705078 4.06298828 C2.21657715 4.89040527 2.20610352 5.71782227 2.1953125 6.5703125 C2.18886719 7.46621094 2.18242187 8.36210937 2.17578125 9.28515625 C2.15902344 10.22230469 2.14226562 11.15945312 2.125 12.125 C2.11597656 13.06988281 2.10695313 14.01476562 2.09765625 14.98828125 C2.07404522 17.32577292 2.04111516 19.66276123 2 22 C1.01 22 0.02 22 -1 22 C-1.02887814 18.52085059 -1.04675687 15.04173169 -1.0625 11.5625 C-1.07087891 10.56927734 -1.07925781 9.57605469 -1.08789062 8.55273438 C-1.09111328 7.60849609 -1.09433594 6.66425781 -1.09765625 5.69140625 C-1.10289307 4.81685791 -1.10812988 3.94230957 -1.11352539 3.04125977 C-1 1 -1 1 0 0 Z " fill="#030302" transform="translate(321,139)"/>
<path d="M0 0 C2 2 2 2 2.22705078 4.06298828 C2.21657715 4.89040527 2.20610352 5.71782227 2.1953125 6.5703125 C2.18886719 7.46621094 2.18242187 8.36210938 2.17578125 9.28515625 C2.15902344 10.22230469 2.14226562 11.15945312 2.125 12.125 C2.11597656 13.06988281 2.10695313 14.01476562 2.09765625 14.98828125 C2.07404522 17.32577292 2.04111516 19.66276123 2 22 C1.01 22 0.02 22 -1 22 C-1.02887814 18.52085059 -1.04675687 15.04173169 -1.0625 11.5625 C-1.07087891 10.56927734 -1.07925781 9.57605469 -1.08789062 8.55273438 C-1.09111328 7.60849609 -1.09433594 6.66425781 -1.09765625 5.69140625 C-1.10289307 4.81685791 -1.10812988 3.94230957 -1.11352539 3.04125977 C-1 1 -1 1 0 0 Z " fill="#030302" transform="translate(281,107)"/>
<path d="M0 0 C0.99 0.33 1.98 0.66 3 1 C3 7.6 3 14.2 3 21 C2.01 21 1.02 21 0 21 C0 14.07 0 7.14 0 0 Z " fill="#030302" transform="translate(328,144)"/>
<path d="M0 0 C2 2 2 2 2.22705078 3.87939453 C2.21657715 4.62302246 2.20610352 5.36665039 2.1953125 6.1328125 C2.18886719 6.93847656 2.18242187 7.74414062 2.17578125 8.57421875 C2.15902344 9.41597656 2.14226562 10.25773438 2.125 11.125 C2.11597656 11.97449219 2.10695313 12.82398438 2.09765625 13.69921875 C2.07405647 15.79959884 2.03818483 17.89983444 2 20 C1.01 20 0.02 20 -1 20 C-1.02888514 16.85418577 -1.04675923 13.70840531 -1.0625 10.5625 C-1.07087891 9.66466797 -1.07925781 8.76683594 -1.08789062 7.84179688 C-1.09111328 6.98779297 -1.09433594 6.13378906 -1.09765625 5.25390625 C-1.10551147 4.06776733 -1.10551147 4.06776733 -1.11352539 2.85766602 C-1 1 -1 1 0 0 Z " fill="#030302" transform="translate(261,243)"/>
<path d="M0 0 C2 2 2 2 2.22705078 3.87939453 C2.21657715 4.62302246 2.20610352 5.36665039 2.1953125 6.1328125 C2.18886719 6.93847656 2.18242187 7.74414062 2.17578125 8.57421875 C2.15902344 9.41597656 2.14226562 10.25773438 2.125 11.125 C2.11597656 11.97449219 2.10695312 12.82398438 2.09765625 13.69921875 C2.07405647 15.79959884 2.03818483 17.89983444 2 20 C1.01 20 0.02 20 -1 20 C-1.02888514 16.85418577 -1.04675923 13.70840531 -1.0625 10.5625 C-1.07087891 9.66466797 -1.07925781 8.76683594 -1.08789062 7.84179688 C-1.09111328 6.98779297 -1.09433594 6.13378906 -1.09765625 5.25390625 C-1.10551147 4.06776733 -1.10551147 4.06776733 -1.11352539 2.85766602 C-1 1 -1 1 0 0 Z " fill="#030302" transform="translate(253,205)"/>
<path d="M0 0 C2 2 2 2 2.22705078 3.87939453 C2.21657715 4.62302246 2.20610352 5.36665039 2.1953125 6.1328125 C2.18886719 6.93847656 2.18242187 7.74414062 2.17578125 8.57421875 C2.15902344 9.41597656 2.14226562 10.25773438 2.125 11.125 C2.11597656 11.97449219 2.10695312 12.82398438 2.09765625 13.69921875 C2.07405647 15.79959884 2.03818483 17.89983444 2 20 C1.01 20 0.02 20 -1 20 C-1.02888514 16.85418577 -1.04675923 13.70840531 -1.0625 10.5625 C-1.07087891 9.66466797 -1.07925781 8.76683594 -1.08789062 7.84179688 C-1.09111328 6.98779297 -1.09433594 6.13378906 -1.09765625 5.25390625 C-1.10551147 4.06776733 -1.10551147 4.06776733 -1.11352539 2.85766602 C-1 1 -1 1 0 0 Z " fill="#030302" transform="translate(185,199)"/>
<path d="M0 0 C2 2 2 2 2.22705078 3.87939453 C2.21657715 4.62302246 2.20610352 5.36665039 2.1953125 6.1328125 C2.18886719 6.93847656 2.18242187 7.74414062 2.17578125 8.57421875 C2.15902344 9.41597656 2.14226562 10.25773437 2.125 11.125 C2.11597656 11.97449219 2.10695313 12.82398437 2.09765625 13.69921875 C2.07405647 15.79959884 2.03818483 17.89983444 2 20 C1.01 20 0.02 20 -1 20 C-1.02888514 16.85418577 -1.04675923 13.70840531 -1.0625 10.5625 C-1.07087891 9.66466797 -1.07925781 8.76683594 -1.08789062 7.84179688 C-1.09111328 6.98779297 -1.09433594 6.13378906 -1.09765625 5.25390625 C-1.10551147 4.06776733 -1.10551147 4.06776733 -1.11352539 2.85766602 C-1 1 -1 1 0 0 Z " fill="#030302" transform="translate(277,109)"/>
<path d="M0 0 C0.99 0.33 1.98 0.66 3 1 C3 6.28 3 11.56 3 17 C2.01 17 1.02 17 0 17 C0 11.39 0 5.78 0 0 Z " fill="#030302" transform="translate(272,112)"/>
<path d="M0 0 C0.66 0.33 1.32 0.66 2 1 C2 6.28 2 11.56 2 17 C1.01 17 0.02 17 -1 17 C-1.02691685 14.54159395 -1.04679802 12.08348118 -1.0625 9.625 C-1.07087891 8.92632812 -1.07925781 8.22765625 -1.08789062 7.5078125 C-1.11328125 2.2265625 -1.11328125 2.2265625 0 0 Z " fill="#030302" transform="translate(257,244)"/>
<path d="M0 0 C2 2 2 2 2.1953125 5.2578125 C2.17210937 6.53398437 2.14890625 7.81015625 2.125 9.125 C2.10695313 10.40632812 2.08890625 11.68765625 2.0703125 13.0078125 C2.04710937 13.99523437 2.02390625 14.98265625 2 16 C1.01 16 0.02 16 -1 16 C-1.02685095 13.52076199 -1.04676547 11.0418116 -1.0625 8.5625 C-1.07506836 7.50192383 -1.07506836 7.50192383 -1.08789062 6.41992188 C-1.09653588 4.61306441 -1.05220011 2.80612397 -1 1 C-0.67 0.67 -0.34 0.34 0 0 Z " fill="#030302" transform="translate(317,141)"/>
<path d="M0 0 C0 0.66 0 1.32 0 2 C-3.4352048 4.29013653 -4.985331 4.17842973 -9 4 C-9 3.01 -9 2.02 -9 1 C-5.64919071 -1.10976881 -3.77897651 -1.0497157 0 0 Z " fill="#0D0907" transform="translate(172,332)"/>
<path d="M0 0 C2 2 2 2 2.1953125 4.8203125 C2.16050781 6.45613281 2.16050781 6.45613281 2.125 8.125 C2.10695312 9.22070312 2.08890625 10.31640625 2.0703125 11.4453125 C2.04710937 12.28835937 2.02390625 13.13140625 2 14 C1.01 14 0.02 14 -1 14 C-1.02685938 11.85423363 -1.04633088 9.70837355 -1.0625 7.5625 C-1.07410156 6.36753906 -1.08570313 5.17257813 -1.09765625 3.94140625 C-1 1 -1 1 0 0 Z " fill="#030302" transform="translate(245,139)"/>
<path d="M0 0 C0.99 0.33 1.98 0.66 3 1 C3 4.96 3 8.92 3 13 C2.01 13 1.02 13 0 13 C0 8.71 0 4.42 0 0 Z " fill="#030302" transform="translate(204,264)"/>
<path d="M0 0 C2 2 2 2 2.1953125 4.3828125 C2.17210937 5.28773438 2.14890625 6.19265625 2.125 7.125 C2.10695313 8.03507812 2.08890625 8.94515625 2.0703125 9.8828125 C2.03550781 10.93082031 2.03550781 10.93082031 2 12 C1.01 12 0.02 12 -1 12 C-1.02687279 10.18757948 -1.04633715 8.37504767 -1.0625 6.5625 C-1.07410156 5.55316406 -1.08570313 4.54382813 -1.09765625 3.50390625 C-1 1 -1 1 0 0 Z " fill="#030302" transform="translate(301,253)"/>
<path d="M0 0 C2 2 2 2 2.1953125 4.3828125 C2.17210937 5.28773438 2.14890625 6.19265625 2.125 7.125 C2.10695313 8.03507813 2.08890625 8.94515625 2.0703125 9.8828125 C2.03550781 10.93082031 2.03550781 10.93082031 2 12 C1.01 12 0.02 12 -1 12 C-1.02687279 10.18757948 -1.04633715 8.37504767 -1.0625 6.5625 C-1.07410156 5.55316406 -1.08570313 4.54382813 -1.09765625 3.50390625 C-1 1 -1 1 0 0 Z " fill="#030302" transform="translate(361,145)"/>
<path d="M0 0 C2 2 2 2 2.1953125 4.3828125 C2.17210937 5.28773438 2.14890625 6.19265625 2.125 7.125 C2.10695312 8.03507813 2.08890625 8.94515625 2.0703125 9.8828125 C2.03550781 10.93082031 2.03550781 10.93082031 2 12 C1.01 12 0.02 12 -1 12 C-1.02687279 10.18757948 -1.04633715 8.37504767 -1.0625 6.5625 C-1.07410156 5.55316406 -1.08570313 4.54382813 -1.09765625 3.50390625 C-1 1 -1 1 0 0 Z " fill="#030302" transform="translate(245,125)"/>
<path d="M0 0 C0.99 0.33 1.98 0.66 3 1 C3 4.3 3 7.6 3 11 C2.01 11 1.02 11 0 11 C0 7.37 0 3.74 0 0 Z " fill="#030302" transform="translate(280,176)"/>
<path d="M0 0 C2 2 2 2 2.1953125 3.9453125 C2.13020833 5.96354167 2.06510417 7.98177083 2 10 C1.01 10 0.02 10 -1 10 C-1.02689216 8.52093108 -1.04634621 7.04172517 -1.0625 5.5625 C-1.07410156 4.73878906 -1.08570313 3.91507812 -1.09765625 3.06640625 C-1 1 -1 1 0 0 Z " fill="#030302" transform="translate(185,287)"/>
<path d="M0 0 C2 2 2 2 2.1953125 3.9453125 C2.13020833 5.96354167 2.06510417 7.98177083 2 10 C1.01 10 0.02 10 -1 10 C-1.02689216 8.52093108 -1.04634621 7.04172517 -1.0625 5.5625 C-1.07410156 4.73878906 -1.08570313 3.91507812 -1.09765625 3.06640625 C-1 1 -1 1 0 0 Z " fill="#030302" transform="translate(173,255)"/>
<path d="M0 0 C2 2 2 2 2.1953125 3.9453125 C2.13020833 5.96354167 2.06510417 7.98177083 2 10 C1.01 10 0.02 10 -1 10 C-1.02689216 8.52093108 -1.04634621 7.04172517 -1.0625 5.5625 C-1.07410156 4.73878906 -1.08570313 3.91507813 -1.09765625 3.06640625 C-1 1 -1 1 0 0 Z " fill="#030302" transform="translate(269,159)"/>
<path d="M0 0 C0.99 0 1.98 0 3 0 C3 2.31 3 4.62 3 7 C1.68 6.67 0.36 6.34 -1 6 C-0.67 4.02 -0.34 2.04 0 0 Z " fill="#0D0907" transform="translate(219,308)"/>
<path d="M0 0 C0.99 0.33 1.98 0.66 3 1 C3 3.64 3 6.28 3 9 C2.01 9 1.02 9 0 9 C0 6.03 0 3.06 0 0 Z " fill="#030302" transform="translate(248,124)"/>
<path d="M0 0 C0.66 0.33 1.32 0.66 2 1 C2 3.64 2 6.28 2 9 C1.01 9 0.02 9 -1 9 C-1.125 2.25 -1.125 2.25 0 0 Z " fill="#030302" transform="translate(377,200)"/>
<path d="M0 0 C0.99 0.33 1.98 0.66 3 1 C3 3.64 3 6.28 3 9 C2.01 8.67 1.02 8.34 0 8 C0 5.36 0 2.72 0 0 Z " fill="#030302" transform="translate(260,120)"/>
<path d="M0 0 C2 2 2 2 2.125 5.125 C2.08375 6.07375 2.0425 7.0225 2 8 C1.01 8 0.02 8 -1 8 C-1.04241723 5.66705225 -1.04092937 3.33297433 -1 1 C-0.67 0.67 -0.34 0.34 0 0 Z " fill="#030302" transform="translate(213,249)"/>
<path d="M0 0 C2 2 2 2 2.125 5.125 C2.08375 6.07375 2.0425 7.0225 2 8 C1.01 8 0.02 8 -1 8 C-1.04241723 5.66705225 -1.04092937 3.33297433 -1 1 C-0.67 0.67 -0.34 0.34 0 0 Z " fill="#030302" transform="translate(189,249)"/>
<path d="M0 0 C2 2 2 2 2.125 5.125 C2.08375 6.07375 2.0425 7.0225 2 8 C1.01 8 0.02 8 -1 8 C-1.04241723 5.66705225 -1.04092937 3.33297433 -1 1 C-0.67 0.67 -0.34 0.34 0 0 Z " fill="#030302" transform="translate(309,229)"/>
<path d="M0 0 C2 2 2 2 2.125 5.125 C2.08375 6.07375 2.0425 7.0225 2 8 C1.01 8 0.02 8 -1 8 C-1.04241723 5.66705225 -1.04092937 3.33297433 -1 1 C-0.67 0.67 -0.34 0.34 0 0 Z " fill="#030302" transform="translate(337,213)"/>
<path d="M0 0 C2 2 2 2 2.125 5.125 C2.08375 6.07375 2.0425 7.0225 2 8 C1.01 8 0.02 8 -1 8 C-1.04241723 5.66705225 -1.04092937 3.33297433 -1 1 C-0.67 0.67 -0.34 0.34 0 0 Z " fill="#030302" transform="translate(265,161)"/>
<path d="M0 0 C2 2 2 2 2.125 5.125 C2.08375 6.07375 2.0425 7.0225 2 8 C1.01 8 0.02 8 -1 8 C-1.04241723 5.66705225 -1.04092937 3.33297433 -1 1 C-0.67 0.67 -0.34 0.34 0 0 Z " fill="#030302" transform="translate(349,129)"/>
<path d="M0 0 C2 1 2 1 2 1 Z " fill="#0C0807" transform="translate(330,324)"/>
<path d="" fill="#0E0A08" transform="translate(0,0)"/>
<path d="" fill="#0E0A08" transform="translate(0,0)"/>
</svg>
